%TF.GenerationSoftware,KiCad,Pcbnew,7.0.7*%
%TF.CreationDate,2023-10-30T05:19:45-05:00*%
%TF.ProjectId,Voltage Blaster,566f6c74-6167-4652-9042-6c6173746572,rev?*%
%TF.SameCoordinates,Original*%
%TF.FileFunction,Soldermask,Bot*%
%TF.FilePolarity,Negative*%
%FSLAX46Y46*%
G04 Gerber Fmt 4.6, Leading zero omitted, Abs format (unit mm)*
G04 Created by KiCad (PCBNEW 7.0.7) date 2023-10-30 05:19:45*
%MOMM*%
%LPD*%
G01*
G04 APERTURE LIST*
%ADD10C,0.010000*%
%ADD11R,1.800000X1.800000*%
%ADD12C,1.800000*%
%ADD13C,1.600000*%
%ADD14O,1.600000X1.600000*%
%ADD15R,1.700000X1.700000*%
%ADD16O,1.700000X1.700000*%
%ADD17R,1.600000X1.600000*%
%ADD18R,2.200000X2.200000*%
%ADD19O,2.200000X2.200000*%
%ADD20R,1.780000X7.366000*%
G04 APERTURE END LIST*
%TO.C,J1*%
D10*
X198120000Y-121031000D02*
X117094000Y-121031000D01*
X117094000Y-113411000D01*
X198120000Y-113411000D01*
X198120000Y-121031000D01*
G36*
X198120000Y-121031000D02*
G01*
X117094000Y-121031000D01*
X117094000Y-113411000D01*
X198120000Y-113411000D01*
X198120000Y-121031000D01*
G37*
%TD*%
D11*
%TO.C,D1*%
X148945600Y-97637600D03*
D12*
X151485600Y-97637600D03*
%TD*%
D13*
%TO.C,R1*%
X165481000Y-107188000D03*
D14*
X155321000Y-107188000D03*
%TD*%
D13*
%TO.C,R4*%
X128524000Y-107188000D03*
D14*
X118364000Y-107188000D03*
%TD*%
D13*
%TO.C,R3*%
X140843000Y-107188000D03*
D14*
X130683000Y-107188000D03*
%TD*%
D11*
%TO.C,D2*%
X142092600Y-97637600D03*
D12*
X144632600Y-97637600D03*
%TD*%
D11*
%TO.C,D4*%
X128371600Y-97637600D03*
D12*
X130911600Y-97637600D03*
%TD*%
D13*
%TO.C,R2*%
X153162000Y-107188000D03*
D14*
X143002000Y-107188000D03*
%TD*%
D15*
%TO.C,JP1*%
X160135000Y-95230000D03*
D16*
X162675000Y-95230000D03*
%TD*%
D17*
%TO.C,C2*%
X170688000Y-105918000D03*
D13*
X172688000Y-105918000D03*
%TD*%
D18*
%TO.C,D6*%
X177673000Y-107061000D03*
D19*
X185293000Y-107061000D03*
%TD*%
D11*
%TO.C,D3*%
X135234600Y-97637600D03*
D12*
X137774600Y-97637600D03*
%TD*%
D18*
%TO.C,D5*%
X189230000Y-107061000D03*
D19*
X196850000Y-107061000D03*
%TD*%
D17*
%TO.C,C1*%
X170720000Y-96520000D03*
D13*
X172720000Y-96520000D03*
%TD*%
D20*
%TO.C,J1*%
X195707000Y-117094000D03*
X193167000Y-117094000D03*
X190627000Y-117094000D03*
X188087000Y-117094000D03*
X185547000Y-117094000D03*
X183007000Y-117094000D03*
X180467000Y-117094000D03*
X177927000Y-117094000D03*
X175387000Y-117094000D03*
X172847000Y-117094000D03*
X170307000Y-117094000D03*
X167767000Y-117094000D03*
X165227000Y-117094000D03*
X162687000Y-117094000D03*
X160147000Y-117094000D03*
X157607000Y-117094000D03*
X155067000Y-117094000D03*
X152527000Y-117094000D03*
X149987000Y-117094000D03*
X147447000Y-117094000D03*
X144907000Y-117094000D03*
X142367000Y-117094000D03*
X139827000Y-117094000D03*
X137287000Y-117094000D03*
X134747000Y-117094000D03*
X132207000Y-117094000D03*
X129667000Y-117094000D03*
X127127000Y-117094000D03*
X124587000Y-117094000D03*
X122047000Y-117094000D03*
X119507000Y-117094000D03*
%TD*%
M02*
