%TF.GenerationSoftware,KiCad,Pcbnew,7.0.7*%
%TF.CreationDate,2023-10-30T05:19:45-05:00*%
%TF.ProjectId,Voltage Blaster,566f6c74-6167-4652-9042-6c6173746572,rev?*%
%TF.SameCoordinates,Original*%
%TF.FileFunction,Legend,Top*%
%TF.FilePolarity,Positive*%
%FSLAX46Y46*%
G04 Gerber Fmt 4.6, Leading zero omitted, Abs format (unit mm)*
G04 Created by KiCad (PCBNEW 7.0.7) date 2023-10-30 05:19:45*
%MOMM*%
%LPD*%
G01*
G04 APERTURE LIST*
%ADD10C,0.200000*%
%ADD11C,0.100000*%
%ADD12C,0.300000*%
%ADD13C,0.150000*%
%ADD14C,0.120000*%
G04 APERTURE END LIST*
D10*
X198012422Y-93268971D02*
X199155279Y-92840400D01*
X199155279Y-92840400D02*
X198012422Y-92411828D01*
X197298136Y-92840400D02*
X196155279Y-92840400D01*
X193440993Y-92268971D02*
X193940993Y-92983257D01*
X194298136Y-92268971D02*
X194298136Y-93768971D01*
X194298136Y-93768971D02*
X193726707Y-93768971D01*
X193726707Y-93768971D02*
X193583850Y-93697542D01*
X193583850Y-93697542D02*
X193512421Y-93626114D01*
X193512421Y-93626114D02*
X193440993Y-93483257D01*
X193440993Y-93483257D02*
X193440993Y-93268971D01*
X193440993Y-93268971D02*
X193512421Y-93126114D01*
X193512421Y-93126114D02*
X193583850Y-93054685D01*
X193583850Y-93054685D02*
X193726707Y-92983257D01*
X193726707Y-92983257D02*
X194298136Y-92983257D01*
X192226707Y-92340400D02*
X192369564Y-92268971D01*
X192369564Y-92268971D02*
X192655279Y-92268971D01*
X192655279Y-92268971D02*
X192798136Y-92340400D01*
X192798136Y-92340400D02*
X192869564Y-92483257D01*
X192869564Y-92483257D02*
X192869564Y-93054685D01*
X192869564Y-93054685D02*
X192798136Y-93197542D01*
X192798136Y-93197542D02*
X192655279Y-93268971D01*
X192655279Y-93268971D02*
X192369564Y-93268971D01*
X192369564Y-93268971D02*
X192226707Y-93197542D01*
X192226707Y-93197542D02*
X192155279Y-93054685D01*
X192155279Y-93054685D02*
X192155279Y-92911828D01*
X192155279Y-92911828D02*
X192869564Y-92768971D01*
X190869565Y-92268971D02*
X190869565Y-93054685D01*
X190869565Y-93054685D02*
X190940993Y-93197542D01*
X190940993Y-93197542D02*
X191083850Y-93268971D01*
X191083850Y-93268971D02*
X191369565Y-93268971D01*
X191369565Y-93268971D02*
X191512422Y-93197542D01*
X190869565Y-92340400D02*
X191012422Y-92268971D01*
X191012422Y-92268971D02*
X191369565Y-92268971D01*
X191369565Y-92268971D02*
X191512422Y-92340400D01*
X191512422Y-92340400D02*
X191583850Y-92483257D01*
X191583850Y-92483257D02*
X191583850Y-92626114D01*
X191583850Y-92626114D02*
X191512422Y-92768971D01*
X191512422Y-92768971D02*
X191369565Y-92840400D01*
X191369565Y-92840400D02*
X191012422Y-92840400D01*
X191012422Y-92840400D02*
X190869565Y-92911828D01*
X190155279Y-92268971D02*
X190155279Y-93268971D01*
X190155279Y-92983257D02*
X190083850Y-93126114D01*
X190083850Y-93126114D02*
X190012422Y-93197542D01*
X190012422Y-93197542D02*
X189869564Y-93268971D01*
X189869564Y-93268971D02*
X189726707Y-93268971D01*
X187869565Y-92268971D02*
X188012422Y-92340400D01*
X188012422Y-92340400D02*
X188083851Y-92411828D01*
X188083851Y-92411828D02*
X188155279Y-92554685D01*
X188155279Y-92554685D02*
X188155279Y-92983257D01*
X188155279Y-92983257D02*
X188083851Y-93126114D01*
X188083851Y-93126114D02*
X188012422Y-93197542D01*
X188012422Y-93197542D02*
X187869565Y-93268971D01*
X187869565Y-93268971D02*
X187655279Y-93268971D01*
X187655279Y-93268971D02*
X187512422Y-93197542D01*
X187512422Y-93197542D02*
X187440994Y-93126114D01*
X187440994Y-93126114D02*
X187369565Y-92983257D01*
X187369565Y-92983257D02*
X187369565Y-92554685D01*
X187369565Y-92554685D02*
X187440994Y-92411828D01*
X187440994Y-92411828D02*
X187512422Y-92340400D01*
X187512422Y-92340400D02*
X187655279Y-92268971D01*
X187655279Y-92268971D02*
X187869565Y-92268971D01*
X186940993Y-93268971D02*
X186369565Y-93268971D01*
X186726708Y-92268971D02*
X186726708Y-93554685D01*
X186726708Y-93554685D02*
X186655279Y-93697542D01*
X186655279Y-93697542D02*
X186512422Y-93768971D01*
X186512422Y-93768971D02*
X186369565Y-93768971D01*
X184726708Y-92268971D02*
X184726708Y-93768971D01*
X184726708Y-93768971D02*
X184155279Y-93768971D01*
X184155279Y-93768971D02*
X184012422Y-93697542D01*
X184012422Y-93697542D02*
X183940993Y-93626114D01*
X183940993Y-93626114D02*
X183869565Y-93483257D01*
X183869565Y-93483257D02*
X183869565Y-93268971D01*
X183869565Y-93268971D02*
X183940993Y-93126114D01*
X183940993Y-93126114D02*
X184012422Y-93054685D01*
X184012422Y-93054685D02*
X184155279Y-92983257D01*
X184155279Y-92983257D02*
X184726708Y-92983257D01*
X182369565Y-92411828D02*
X182440993Y-92340400D01*
X182440993Y-92340400D02*
X182655279Y-92268971D01*
X182655279Y-92268971D02*
X182798136Y-92268971D01*
X182798136Y-92268971D02*
X183012422Y-92340400D01*
X183012422Y-92340400D02*
X183155279Y-92483257D01*
X183155279Y-92483257D02*
X183226708Y-92626114D01*
X183226708Y-92626114D02*
X183298136Y-92911828D01*
X183298136Y-92911828D02*
X183298136Y-93126114D01*
X183298136Y-93126114D02*
X183226708Y-93411828D01*
X183226708Y-93411828D02*
X183155279Y-93554685D01*
X183155279Y-93554685D02*
X183012422Y-93697542D01*
X183012422Y-93697542D02*
X182798136Y-93768971D01*
X182798136Y-93768971D02*
X182655279Y-93768971D01*
X182655279Y-93768971D02*
X182440993Y-93697542D01*
X182440993Y-93697542D02*
X182369565Y-93626114D01*
D11*
X196923963Y-98475104D02*
X196923963Y-97903676D01*
X196923963Y-97903676D02*
X196962058Y-97789390D01*
X196962058Y-97789390D02*
X197038249Y-97713200D01*
X197038249Y-97713200D02*
X197152534Y-97675104D01*
X197152534Y-97675104D02*
X197228725Y-97675104D01*
X196543010Y-97675104D02*
X196543010Y-98475104D01*
X196543010Y-98475104D02*
X196238248Y-98475104D01*
X196238248Y-98475104D02*
X196162058Y-98437009D01*
X196162058Y-98437009D02*
X196123963Y-98398914D01*
X196123963Y-98398914D02*
X196085867Y-98322723D01*
X196085867Y-98322723D02*
X196085867Y-98208438D01*
X196085867Y-98208438D02*
X196123963Y-98132247D01*
X196123963Y-98132247D02*
X196162058Y-98094152D01*
X196162058Y-98094152D02*
X196238248Y-98056057D01*
X196238248Y-98056057D02*
X196543010Y-98056057D01*
X195323963Y-97675104D02*
X195781106Y-97675104D01*
X195552534Y-97675104D02*
X195552534Y-98475104D01*
X195552534Y-98475104D02*
X195628725Y-98360819D01*
X195628725Y-98360819D02*
X195704915Y-98284628D01*
X195704915Y-98284628D02*
X195781106Y-98246533D01*
X194981105Y-97751295D02*
X194943010Y-97713200D01*
X194943010Y-97713200D02*
X194981105Y-97675104D01*
X194981105Y-97675104D02*
X195019201Y-97713200D01*
X195019201Y-97713200D02*
X194981105Y-97751295D01*
X194981105Y-97751295D02*
X194981105Y-97675104D01*
X194981105Y-98170342D02*
X194943010Y-98132247D01*
X194943010Y-98132247D02*
X194981105Y-98094152D01*
X194981105Y-98094152D02*
X195019201Y-98132247D01*
X195019201Y-98132247D02*
X194981105Y-98170342D01*
X194981105Y-98170342D02*
X194981105Y-98094152D01*
X197000153Y-97187104D02*
X196847772Y-97187104D01*
X196847772Y-97187104D02*
X196771582Y-97149009D01*
X196771582Y-97149009D02*
X196695391Y-97072819D01*
X196695391Y-97072819D02*
X196657296Y-96920438D01*
X196657296Y-96920438D02*
X196657296Y-96653771D01*
X196657296Y-96653771D02*
X196695391Y-96501390D01*
X196695391Y-96501390D02*
X196771582Y-96425200D01*
X196771582Y-96425200D02*
X196847772Y-96387104D01*
X196847772Y-96387104D02*
X197000153Y-96387104D01*
X197000153Y-96387104D02*
X197076344Y-96425200D01*
X197076344Y-96425200D02*
X197152534Y-96501390D01*
X197152534Y-96501390D02*
X197190630Y-96653771D01*
X197190630Y-96653771D02*
X197190630Y-96920438D01*
X197190630Y-96920438D02*
X197152534Y-97072819D01*
X197152534Y-97072819D02*
X197076344Y-97149009D01*
X197076344Y-97149009D02*
X197000153Y-97187104D01*
X195971582Y-96920438D02*
X195971582Y-96387104D01*
X196314439Y-96920438D02*
X196314439Y-96501390D01*
X196314439Y-96501390D02*
X196276344Y-96425200D01*
X196276344Y-96425200D02*
X196200154Y-96387104D01*
X196200154Y-96387104D02*
X196085868Y-96387104D01*
X196085868Y-96387104D02*
X196009677Y-96425200D01*
X196009677Y-96425200D02*
X195971582Y-96463295D01*
X195704915Y-96920438D02*
X195400153Y-96920438D01*
X195590629Y-97187104D02*
X195590629Y-96501390D01*
X195590629Y-96501390D02*
X195552534Y-96425200D01*
X195552534Y-96425200D02*
X195476344Y-96387104D01*
X195476344Y-96387104D02*
X195400153Y-96387104D01*
X195133486Y-96920438D02*
X195133486Y-96120438D01*
X195133486Y-96882342D02*
X195057296Y-96920438D01*
X195057296Y-96920438D02*
X194904915Y-96920438D01*
X194904915Y-96920438D02*
X194828724Y-96882342D01*
X194828724Y-96882342D02*
X194790629Y-96844247D01*
X194790629Y-96844247D02*
X194752534Y-96768057D01*
X194752534Y-96768057D02*
X194752534Y-96539485D01*
X194752534Y-96539485D02*
X194790629Y-96463295D01*
X194790629Y-96463295D02*
X194828724Y-96425200D01*
X194828724Y-96425200D02*
X194904915Y-96387104D01*
X194904915Y-96387104D02*
X195057296Y-96387104D01*
X195057296Y-96387104D02*
X195133486Y-96425200D01*
X194066819Y-96920438D02*
X194066819Y-96387104D01*
X194409676Y-96920438D02*
X194409676Y-96501390D01*
X194409676Y-96501390D02*
X194371581Y-96425200D01*
X194371581Y-96425200D02*
X194295391Y-96387104D01*
X194295391Y-96387104D02*
X194181105Y-96387104D01*
X194181105Y-96387104D02*
X194104914Y-96425200D01*
X194104914Y-96425200D02*
X194066819Y-96463295D01*
X193800152Y-96920438D02*
X193495390Y-96920438D01*
X193685866Y-97187104D02*
X193685866Y-96501390D01*
X193685866Y-96501390D02*
X193647771Y-96425200D01*
X193647771Y-96425200D02*
X193571581Y-96387104D01*
X193571581Y-96387104D02*
X193495390Y-96387104D01*
X197152534Y-95099104D02*
X197152534Y-95899104D01*
X197152534Y-95899104D02*
X196962058Y-95899104D01*
X196962058Y-95899104D02*
X196847772Y-95861009D01*
X196847772Y-95861009D02*
X196771582Y-95784819D01*
X196771582Y-95784819D02*
X196733487Y-95708628D01*
X196733487Y-95708628D02*
X196695391Y-95556247D01*
X196695391Y-95556247D02*
X196695391Y-95441961D01*
X196695391Y-95441961D02*
X196733487Y-95289580D01*
X196733487Y-95289580D02*
X196771582Y-95213390D01*
X196771582Y-95213390D02*
X196847772Y-95137200D01*
X196847772Y-95137200D02*
X196962058Y-95099104D01*
X196962058Y-95099104D02*
X197152534Y-95099104D01*
X196352534Y-95099104D02*
X196352534Y-95632438D01*
X196352534Y-95899104D02*
X196390630Y-95861009D01*
X196390630Y-95861009D02*
X196352534Y-95822914D01*
X196352534Y-95822914D02*
X196314439Y-95861009D01*
X196314439Y-95861009D02*
X196352534Y-95899104D01*
X196352534Y-95899104D02*
X196352534Y-95822914D01*
X196009678Y-95137200D02*
X195933487Y-95099104D01*
X195933487Y-95099104D02*
X195781106Y-95099104D01*
X195781106Y-95099104D02*
X195704916Y-95137200D01*
X195704916Y-95137200D02*
X195666820Y-95213390D01*
X195666820Y-95213390D02*
X195666820Y-95251485D01*
X195666820Y-95251485D02*
X195704916Y-95327676D01*
X195704916Y-95327676D02*
X195781106Y-95365771D01*
X195781106Y-95365771D02*
X195895392Y-95365771D01*
X195895392Y-95365771D02*
X195971582Y-95403866D01*
X195971582Y-95403866D02*
X196009678Y-95480057D01*
X196009678Y-95480057D02*
X196009678Y-95518152D01*
X196009678Y-95518152D02*
X195971582Y-95594342D01*
X195971582Y-95594342D02*
X195895392Y-95632438D01*
X195895392Y-95632438D02*
X195781106Y-95632438D01*
X195781106Y-95632438D02*
X195704916Y-95594342D01*
X194981106Y-95137200D02*
X195057297Y-95099104D01*
X195057297Y-95099104D02*
X195209678Y-95099104D01*
X195209678Y-95099104D02*
X195285868Y-95137200D01*
X195285868Y-95137200D02*
X195323963Y-95175295D01*
X195323963Y-95175295D02*
X195362059Y-95251485D01*
X195362059Y-95251485D02*
X195362059Y-95480057D01*
X195362059Y-95480057D02*
X195323963Y-95556247D01*
X195323963Y-95556247D02*
X195285868Y-95594342D01*
X195285868Y-95594342D02*
X195209678Y-95632438D01*
X195209678Y-95632438D02*
X195057297Y-95632438D01*
X195057297Y-95632438D02*
X194981106Y-95594342D01*
X194523964Y-95099104D02*
X194600154Y-95137200D01*
X194600154Y-95137200D02*
X194638249Y-95175295D01*
X194638249Y-95175295D02*
X194676345Y-95251485D01*
X194676345Y-95251485D02*
X194676345Y-95480057D01*
X194676345Y-95480057D02*
X194638249Y-95556247D01*
X194638249Y-95556247D02*
X194600154Y-95594342D01*
X194600154Y-95594342D02*
X194523964Y-95632438D01*
X194523964Y-95632438D02*
X194409678Y-95632438D01*
X194409678Y-95632438D02*
X194333487Y-95594342D01*
X194333487Y-95594342D02*
X194295392Y-95556247D01*
X194295392Y-95556247D02*
X194257297Y-95480057D01*
X194257297Y-95480057D02*
X194257297Y-95251485D01*
X194257297Y-95251485D02*
X194295392Y-95175295D01*
X194295392Y-95175295D02*
X194333487Y-95137200D01*
X194333487Y-95137200D02*
X194409678Y-95099104D01*
X194409678Y-95099104D02*
X194523964Y-95099104D01*
X193914439Y-95632438D02*
X193914439Y-95099104D01*
X193914439Y-95556247D02*
X193876344Y-95594342D01*
X193876344Y-95594342D02*
X193800154Y-95632438D01*
X193800154Y-95632438D02*
X193685868Y-95632438D01*
X193685868Y-95632438D02*
X193609677Y-95594342D01*
X193609677Y-95594342D02*
X193571582Y-95518152D01*
X193571582Y-95518152D02*
X193571582Y-95099104D01*
X193190629Y-95632438D02*
X193190629Y-95099104D01*
X193190629Y-95556247D02*
X193152534Y-95594342D01*
X193152534Y-95594342D02*
X193076344Y-95632438D01*
X193076344Y-95632438D02*
X192962058Y-95632438D01*
X192962058Y-95632438D02*
X192885867Y-95594342D01*
X192885867Y-95594342D02*
X192847772Y-95518152D01*
X192847772Y-95518152D02*
X192847772Y-95099104D01*
X192162057Y-95137200D02*
X192238248Y-95099104D01*
X192238248Y-95099104D02*
X192390629Y-95099104D01*
X192390629Y-95099104D02*
X192466819Y-95137200D01*
X192466819Y-95137200D02*
X192504915Y-95213390D01*
X192504915Y-95213390D02*
X192504915Y-95518152D01*
X192504915Y-95518152D02*
X192466819Y-95594342D01*
X192466819Y-95594342D02*
X192390629Y-95632438D01*
X192390629Y-95632438D02*
X192238248Y-95632438D01*
X192238248Y-95632438D02*
X192162057Y-95594342D01*
X192162057Y-95594342D02*
X192123962Y-95518152D01*
X192123962Y-95518152D02*
X192123962Y-95441961D01*
X192123962Y-95441961D02*
X192504915Y-95365771D01*
X191438248Y-95137200D02*
X191514439Y-95099104D01*
X191514439Y-95099104D02*
X191666820Y-95099104D01*
X191666820Y-95099104D02*
X191743010Y-95137200D01*
X191743010Y-95137200D02*
X191781105Y-95175295D01*
X191781105Y-95175295D02*
X191819201Y-95251485D01*
X191819201Y-95251485D02*
X191819201Y-95480057D01*
X191819201Y-95480057D02*
X191781105Y-95556247D01*
X191781105Y-95556247D02*
X191743010Y-95594342D01*
X191743010Y-95594342D02*
X191666820Y-95632438D01*
X191666820Y-95632438D02*
X191514439Y-95632438D01*
X191514439Y-95632438D02*
X191438248Y-95594342D01*
X191209677Y-95632438D02*
X190904915Y-95632438D01*
X191095391Y-95899104D02*
X191095391Y-95213390D01*
X191095391Y-95213390D02*
X191057296Y-95137200D01*
X191057296Y-95137200D02*
X190981106Y-95099104D01*
X190981106Y-95099104D02*
X190904915Y-95099104D01*
D12*
X168403095Y-102795876D02*
X167986428Y-101545876D01*
X167986428Y-101545876D02*
X167569762Y-102795876D01*
X166974523Y-101545876D02*
X167093571Y-101605400D01*
X167093571Y-101605400D02*
X167153094Y-101664923D01*
X167153094Y-101664923D02*
X167212618Y-101783971D01*
X167212618Y-101783971D02*
X167212618Y-102141114D01*
X167212618Y-102141114D02*
X167153094Y-102260161D01*
X167153094Y-102260161D02*
X167093571Y-102319685D01*
X167093571Y-102319685D02*
X166974523Y-102379209D01*
X166974523Y-102379209D02*
X166795952Y-102379209D01*
X166795952Y-102379209D02*
X166676904Y-102319685D01*
X166676904Y-102319685D02*
X166617380Y-102260161D01*
X166617380Y-102260161D02*
X166557856Y-102141114D01*
X166557856Y-102141114D02*
X166557856Y-101783971D01*
X166557856Y-101783971D02*
X166617380Y-101664923D01*
X166617380Y-101664923D02*
X166676904Y-101605400D01*
X166676904Y-101605400D02*
X166795952Y-101545876D01*
X166795952Y-101545876D02*
X166974523Y-101545876D01*
X165843571Y-101545876D02*
X165962619Y-101605400D01*
X165962619Y-101605400D02*
X166022142Y-101724447D01*
X166022142Y-101724447D02*
X166022142Y-102795876D01*
X165545952Y-102379209D02*
X165069761Y-102379209D01*
X165367380Y-102795876D02*
X165367380Y-101724447D01*
X165367380Y-101724447D02*
X165307857Y-101605400D01*
X165307857Y-101605400D02*
X165188809Y-101545876D01*
X165188809Y-101545876D02*
X165069761Y-101545876D01*
X164117380Y-101545876D02*
X164117380Y-102200638D01*
X164117380Y-102200638D02*
X164176904Y-102319685D01*
X164176904Y-102319685D02*
X164295952Y-102379209D01*
X164295952Y-102379209D02*
X164534047Y-102379209D01*
X164534047Y-102379209D02*
X164653094Y-102319685D01*
X164117380Y-101605400D02*
X164236428Y-101545876D01*
X164236428Y-101545876D02*
X164534047Y-101545876D01*
X164534047Y-101545876D02*
X164653094Y-101605400D01*
X164653094Y-101605400D02*
X164712618Y-101724447D01*
X164712618Y-101724447D02*
X164712618Y-101843495D01*
X164712618Y-101843495D02*
X164653094Y-101962542D01*
X164653094Y-101962542D02*
X164534047Y-102022066D01*
X164534047Y-102022066D02*
X164236428Y-102022066D01*
X164236428Y-102022066D02*
X164117380Y-102081590D01*
X162986428Y-102379209D02*
X162986428Y-101367304D01*
X162986428Y-101367304D02*
X163045952Y-101248257D01*
X163045952Y-101248257D02*
X163105476Y-101188733D01*
X163105476Y-101188733D02*
X163224523Y-101129209D01*
X163224523Y-101129209D02*
X163403095Y-101129209D01*
X163403095Y-101129209D02*
X163522142Y-101188733D01*
X162986428Y-101605400D02*
X163105476Y-101545876D01*
X163105476Y-101545876D02*
X163343571Y-101545876D01*
X163343571Y-101545876D02*
X163462619Y-101605400D01*
X163462619Y-101605400D02*
X163522142Y-101664923D01*
X163522142Y-101664923D02*
X163581666Y-101783971D01*
X163581666Y-101783971D02*
X163581666Y-102141114D01*
X163581666Y-102141114D02*
X163522142Y-102260161D01*
X163522142Y-102260161D02*
X163462619Y-102319685D01*
X163462619Y-102319685D02*
X163343571Y-102379209D01*
X163343571Y-102379209D02*
X163105476Y-102379209D01*
X163105476Y-102379209D02*
X162986428Y-102319685D01*
X161915000Y-101605400D02*
X162034048Y-101545876D01*
X162034048Y-101545876D02*
X162272143Y-101545876D01*
X162272143Y-101545876D02*
X162391190Y-101605400D01*
X162391190Y-101605400D02*
X162450714Y-101724447D01*
X162450714Y-101724447D02*
X162450714Y-102200638D01*
X162450714Y-102200638D02*
X162391190Y-102319685D01*
X162391190Y-102319685D02*
X162272143Y-102379209D01*
X162272143Y-102379209D02*
X162034048Y-102379209D01*
X162034048Y-102379209D02*
X161915000Y-102319685D01*
X161915000Y-102319685D02*
X161855476Y-102200638D01*
X161855476Y-102200638D02*
X161855476Y-102081590D01*
X161855476Y-102081590D02*
X162450714Y-101962542D01*
X159950714Y-102200638D02*
X159772142Y-102141114D01*
X159772142Y-102141114D02*
X159712619Y-102081590D01*
X159712619Y-102081590D02*
X159653095Y-101962542D01*
X159653095Y-101962542D02*
X159653095Y-101783971D01*
X159653095Y-101783971D02*
X159712619Y-101664923D01*
X159712619Y-101664923D02*
X159772142Y-101605400D01*
X159772142Y-101605400D02*
X159891190Y-101545876D01*
X159891190Y-101545876D02*
X160367380Y-101545876D01*
X160367380Y-101545876D02*
X160367380Y-102795876D01*
X160367380Y-102795876D02*
X159950714Y-102795876D01*
X159950714Y-102795876D02*
X159831666Y-102736352D01*
X159831666Y-102736352D02*
X159772142Y-102676828D01*
X159772142Y-102676828D02*
X159712619Y-102557780D01*
X159712619Y-102557780D02*
X159712619Y-102438733D01*
X159712619Y-102438733D02*
X159772142Y-102319685D01*
X159772142Y-102319685D02*
X159831666Y-102260161D01*
X159831666Y-102260161D02*
X159950714Y-102200638D01*
X159950714Y-102200638D02*
X160367380Y-102200638D01*
X158938809Y-101545876D02*
X159057857Y-101605400D01*
X159057857Y-101605400D02*
X159117380Y-101724447D01*
X159117380Y-101724447D02*
X159117380Y-102795876D01*
X157926904Y-101545876D02*
X157926904Y-102200638D01*
X157926904Y-102200638D02*
X157986428Y-102319685D01*
X157986428Y-102319685D02*
X158105476Y-102379209D01*
X158105476Y-102379209D02*
X158343571Y-102379209D01*
X158343571Y-102379209D02*
X158462618Y-102319685D01*
X157926904Y-101605400D02*
X158045952Y-101545876D01*
X158045952Y-101545876D02*
X158343571Y-101545876D01*
X158343571Y-101545876D02*
X158462618Y-101605400D01*
X158462618Y-101605400D02*
X158522142Y-101724447D01*
X158522142Y-101724447D02*
X158522142Y-101843495D01*
X158522142Y-101843495D02*
X158462618Y-101962542D01*
X158462618Y-101962542D02*
X158343571Y-102022066D01*
X158343571Y-102022066D02*
X158045952Y-102022066D01*
X158045952Y-102022066D02*
X157926904Y-102081590D01*
X157391190Y-101605400D02*
X157272143Y-101545876D01*
X157272143Y-101545876D02*
X157034047Y-101545876D01*
X157034047Y-101545876D02*
X156915000Y-101605400D01*
X156915000Y-101605400D02*
X156855476Y-101724447D01*
X156855476Y-101724447D02*
X156855476Y-101783971D01*
X156855476Y-101783971D02*
X156915000Y-101903019D01*
X156915000Y-101903019D02*
X157034047Y-101962542D01*
X157034047Y-101962542D02*
X157212619Y-101962542D01*
X157212619Y-101962542D02*
X157331666Y-102022066D01*
X157331666Y-102022066D02*
X157391190Y-102141114D01*
X157391190Y-102141114D02*
X157391190Y-102200638D01*
X157391190Y-102200638D02*
X157331666Y-102319685D01*
X157331666Y-102319685D02*
X157212619Y-102379209D01*
X157212619Y-102379209D02*
X157034047Y-102379209D01*
X157034047Y-102379209D02*
X156915000Y-102319685D01*
X156498333Y-102379209D02*
X156022142Y-102379209D01*
X156319761Y-102795876D02*
X156319761Y-101724447D01*
X156319761Y-101724447D02*
X156260238Y-101605400D01*
X156260238Y-101605400D02*
X156141190Y-101545876D01*
X156141190Y-101545876D02*
X156022142Y-101545876D01*
X155129285Y-101605400D02*
X155248333Y-101545876D01*
X155248333Y-101545876D02*
X155486428Y-101545876D01*
X155486428Y-101545876D02*
X155605475Y-101605400D01*
X155605475Y-101605400D02*
X155664999Y-101724447D01*
X155664999Y-101724447D02*
X155664999Y-102200638D01*
X155664999Y-102200638D02*
X155605475Y-102319685D01*
X155605475Y-102319685D02*
X155486428Y-102379209D01*
X155486428Y-102379209D02*
X155248333Y-102379209D01*
X155248333Y-102379209D02*
X155129285Y-102319685D01*
X155129285Y-102319685D02*
X155069761Y-102200638D01*
X155069761Y-102200638D02*
X155069761Y-102081590D01*
X155069761Y-102081590D02*
X155664999Y-101962542D01*
X154534046Y-101545876D02*
X154534046Y-102379209D01*
X154534046Y-102141114D02*
X154474523Y-102260161D01*
X154474523Y-102260161D02*
X154414999Y-102319685D01*
X154414999Y-102319685D02*
X154295951Y-102379209D01*
X154295951Y-102379209D02*
X154176904Y-102379209D01*
X165932856Y-99057185D02*
X165992379Y-99116709D01*
X165992379Y-99116709D02*
X166111427Y-99295280D01*
X166111427Y-99295280D02*
X166170951Y-99414328D01*
X166170951Y-99414328D02*
X166230475Y-99592900D01*
X166230475Y-99592900D02*
X166289998Y-99890519D01*
X166289998Y-99890519D02*
X166289998Y-100128614D01*
X166289998Y-100128614D02*
X166230475Y-100426233D01*
X166230475Y-100426233D02*
X166170951Y-100604804D01*
X166170951Y-100604804D02*
X166111427Y-100723852D01*
X166111427Y-100723852D02*
X165992379Y-100902423D01*
X165992379Y-100902423D02*
X165932856Y-100961947D01*
X165456665Y-100188138D02*
X165039999Y-100188138D01*
X164861427Y-99533376D02*
X165456665Y-99533376D01*
X165456665Y-99533376D02*
X165456665Y-100783376D01*
X165456665Y-100783376D02*
X164861427Y-100783376D01*
X164325713Y-100366709D02*
X164325713Y-99533376D01*
X164325713Y-100247661D02*
X164266190Y-100307185D01*
X164266190Y-100307185D02*
X164147142Y-100366709D01*
X164147142Y-100366709D02*
X163968571Y-100366709D01*
X163968571Y-100366709D02*
X163849523Y-100307185D01*
X163849523Y-100307185D02*
X163789999Y-100188138D01*
X163789999Y-100188138D02*
X163789999Y-99533376D01*
X163194761Y-99533376D02*
X163194761Y-100783376D01*
X162659047Y-99533376D02*
X162659047Y-100188138D01*
X162659047Y-100188138D02*
X162718571Y-100307185D01*
X162718571Y-100307185D02*
X162837619Y-100366709D01*
X162837619Y-100366709D02*
X163016190Y-100366709D01*
X163016190Y-100366709D02*
X163135238Y-100307185D01*
X163135238Y-100307185D02*
X163194761Y-100247661D01*
X161528095Y-99533376D02*
X161528095Y-100188138D01*
X161528095Y-100188138D02*
X161587619Y-100307185D01*
X161587619Y-100307185D02*
X161706667Y-100366709D01*
X161706667Y-100366709D02*
X161944762Y-100366709D01*
X161944762Y-100366709D02*
X162063809Y-100307185D01*
X161528095Y-99592900D02*
X161647143Y-99533376D01*
X161647143Y-99533376D02*
X161944762Y-99533376D01*
X161944762Y-99533376D02*
X162063809Y-99592900D01*
X162063809Y-99592900D02*
X162123333Y-99711947D01*
X162123333Y-99711947D02*
X162123333Y-99830995D01*
X162123333Y-99830995D02*
X162063809Y-99950042D01*
X162063809Y-99950042D02*
X161944762Y-100009566D01*
X161944762Y-100009566D02*
X161647143Y-100009566D01*
X161647143Y-100009566D02*
X161528095Y-100069090D01*
X160932857Y-100366709D02*
X160932857Y-99533376D01*
X160932857Y-100247661D02*
X160873334Y-100307185D01*
X160873334Y-100307185D02*
X160754286Y-100366709D01*
X160754286Y-100366709D02*
X160575715Y-100366709D01*
X160575715Y-100366709D02*
X160456667Y-100307185D01*
X160456667Y-100307185D02*
X160397143Y-100188138D01*
X160397143Y-100188138D02*
X160397143Y-99533376D01*
X159266191Y-99592900D02*
X159385239Y-99533376D01*
X159385239Y-99533376D02*
X159623334Y-99533376D01*
X159623334Y-99533376D02*
X159742382Y-99592900D01*
X159742382Y-99592900D02*
X159801905Y-99652423D01*
X159801905Y-99652423D02*
X159861429Y-99771471D01*
X159861429Y-99771471D02*
X159861429Y-100128614D01*
X159861429Y-100128614D02*
X159801905Y-100247661D01*
X159801905Y-100247661D02*
X159742382Y-100307185D01*
X159742382Y-100307185D02*
X159623334Y-100366709D01*
X159623334Y-100366709D02*
X159385239Y-100366709D01*
X159385239Y-100366709D02*
X159266191Y-100307185D01*
X158254286Y-99592900D02*
X158373334Y-99533376D01*
X158373334Y-99533376D02*
X158611429Y-99533376D01*
X158611429Y-99533376D02*
X158730476Y-99592900D01*
X158730476Y-99592900D02*
X158790000Y-99711947D01*
X158790000Y-99711947D02*
X158790000Y-100188138D01*
X158790000Y-100188138D02*
X158730476Y-100307185D01*
X158730476Y-100307185D02*
X158611429Y-100366709D01*
X158611429Y-100366709D02*
X158373334Y-100366709D01*
X158373334Y-100366709D02*
X158254286Y-100307185D01*
X158254286Y-100307185D02*
X158194762Y-100188138D01*
X158194762Y-100188138D02*
X158194762Y-100069090D01*
X158194762Y-100069090D02*
X158790000Y-99950042D01*
X157123333Y-99533376D02*
X157123333Y-100783376D01*
X157123333Y-99592900D02*
X157242381Y-99533376D01*
X157242381Y-99533376D02*
X157480476Y-99533376D01*
X157480476Y-99533376D02*
X157599524Y-99592900D01*
X157599524Y-99592900D02*
X157659047Y-99652423D01*
X157659047Y-99652423D02*
X157718571Y-99771471D01*
X157718571Y-99771471D02*
X157718571Y-100128614D01*
X157718571Y-100128614D02*
X157659047Y-100247661D01*
X157659047Y-100247661D02*
X157599524Y-100307185D01*
X157599524Y-100307185D02*
X157480476Y-100366709D01*
X157480476Y-100366709D02*
X157242381Y-100366709D01*
X157242381Y-100366709D02*
X157123333Y-100307185D01*
X156647143Y-99057185D02*
X156587619Y-99116709D01*
X156587619Y-99116709D02*
X156468572Y-99295280D01*
X156468572Y-99295280D02*
X156409048Y-99414328D01*
X156409048Y-99414328D02*
X156349524Y-99592900D01*
X156349524Y-99592900D02*
X156290000Y-99890519D01*
X156290000Y-99890519D02*
X156290000Y-100128614D01*
X156290000Y-100128614D02*
X156349524Y-100426233D01*
X156349524Y-100426233D02*
X156409048Y-100604804D01*
X156409048Y-100604804D02*
X156468572Y-100723852D01*
X156468572Y-100723852D02*
X156587619Y-100902423D01*
X156587619Y-100902423D02*
X156647143Y-100961947D01*
D13*
X190201190Y-110517704D02*
X190201190Y-111317704D01*
X190201190Y-111317704D02*
X189896428Y-111317704D01*
X189896428Y-111317704D02*
X189820238Y-111279609D01*
X189820238Y-111279609D02*
X189782143Y-111241514D01*
X189782143Y-111241514D02*
X189744047Y-111165323D01*
X189744047Y-111165323D02*
X189744047Y-111051038D01*
X189744047Y-111051038D02*
X189782143Y-110974847D01*
X189782143Y-110974847D02*
X189820238Y-110936752D01*
X189820238Y-110936752D02*
X189896428Y-110898657D01*
X189896428Y-110898657D02*
X190201190Y-110898657D01*
X189401190Y-110517704D02*
X189401190Y-111051038D01*
X189401190Y-110898657D02*
X189363095Y-110974847D01*
X189363095Y-110974847D02*
X189325000Y-111012942D01*
X189325000Y-111012942D02*
X189248809Y-111051038D01*
X189248809Y-111051038D02*
X189172619Y-111051038D01*
X188791667Y-110517704D02*
X188867857Y-110555800D01*
X188867857Y-110555800D02*
X188905952Y-110593895D01*
X188905952Y-110593895D02*
X188944048Y-110670085D01*
X188944048Y-110670085D02*
X188944048Y-110898657D01*
X188944048Y-110898657D02*
X188905952Y-110974847D01*
X188905952Y-110974847D02*
X188867857Y-111012942D01*
X188867857Y-111012942D02*
X188791667Y-111051038D01*
X188791667Y-111051038D02*
X188677381Y-111051038D01*
X188677381Y-111051038D02*
X188601190Y-111012942D01*
X188601190Y-111012942D02*
X188563095Y-110974847D01*
X188563095Y-110974847D02*
X188525000Y-110898657D01*
X188525000Y-110898657D02*
X188525000Y-110670085D01*
X188525000Y-110670085D02*
X188563095Y-110593895D01*
X188563095Y-110593895D02*
X188601190Y-110555800D01*
X188601190Y-110555800D02*
X188677381Y-110517704D01*
X188677381Y-110517704D02*
X188791667Y-110517704D01*
X188296428Y-111051038D02*
X187991666Y-111051038D01*
X188182142Y-111317704D02*
X188182142Y-110631990D01*
X188182142Y-110631990D02*
X188144047Y-110555800D01*
X188144047Y-110555800D02*
X188067857Y-110517704D01*
X188067857Y-110517704D02*
X187991666Y-110517704D01*
X187420237Y-110555800D02*
X187496428Y-110517704D01*
X187496428Y-110517704D02*
X187648809Y-110517704D01*
X187648809Y-110517704D02*
X187724999Y-110555800D01*
X187724999Y-110555800D02*
X187763095Y-110631990D01*
X187763095Y-110631990D02*
X187763095Y-110936752D01*
X187763095Y-110936752D02*
X187724999Y-111012942D01*
X187724999Y-111012942D02*
X187648809Y-111051038D01*
X187648809Y-111051038D02*
X187496428Y-111051038D01*
X187496428Y-111051038D02*
X187420237Y-111012942D01*
X187420237Y-111012942D02*
X187382142Y-110936752D01*
X187382142Y-110936752D02*
X187382142Y-110860561D01*
X187382142Y-110860561D02*
X187763095Y-110784371D01*
X186696428Y-110555800D02*
X186772619Y-110517704D01*
X186772619Y-110517704D02*
X186925000Y-110517704D01*
X186925000Y-110517704D02*
X187001190Y-110555800D01*
X187001190Y-110555800D02*
X187039285Y-110593895D01*
X187039285Y-110593895D02*
X187077381Y-110670085D01*
X187077381Y-110670085D02*
X187077381Y-110898657D01*
X187077381Y-110898657D02*
X187039285Y-110974847D01*
X187039285Y-110974847D02*
X187001190Y-111012942D01*
X187001190Y-111012942D02*
X186925000Y-111051038D01*
X186925000Y-111051038D02*
X186772619Y-111051038D01*
X186772619Y-111051038D02*
X186696428Y-111012942D01*
X186467857Y-111051038D02*
X186163095Y-111051038D01*
X186353571Y-111317704D02*
X186353571Y-110631990D01*
X186353571Y-110631990D02*
X186315476Y-110555800D01*
X186315476Y-110555800D02*
X186239286Y-110517704D01*
X186239286Y-110517704D02*
X186163095Y-110517704D01*
X185896428Y-110517704D02*
X185896428Y-111051038D01*
X185896428Y-111317704D02*
X185934524Y-111279609D01*
X185934524Y-111279609D02*
X185896428Y-111241514D01*
X185896428Y-111241514D02*
X185858333Y-111279609D01*
X185858333Y-111279609D02*
X185896428Y-111317704D01*
X185896428Y-111317704D02*
X185896428Y-111241514D01*
X185401191Y-110517704D02*
X185477381Y-110555800D01*
X185477381Y-110555800D02*
X185515476Y-110593895D01*
X185515476Y-110593895D02*
X185553572Y-110670085D01*
X185553572Y-110670085D02*
X185553572Y-110898657D01*
X185553572Y-110898657D02*
X185515476Y-110974847D01*
X185515476Y-110974847D02*
X185477381Y-111012942D01*
X185477381Y-111012942D02*
X185401191Y-111051038D01*
X185401191Y-111051038D02*
X185286905Y-111051038D01*
X185286905Y-111051038D02*
X185210714Y-111012942D01*
X185210714Y-111012942D02*
X185172619Y-110974847D01*
X185172619Y-110974847D02*
X185134524Y-110898657D01*
X185134524Y-110898657D02*
X185134524Y-110670085D01*
X185134524Y-110670085D02*
X185172619Y-110593895D01*
X185172619Y-110593895D02*
X185210714Y-110555800D01*
X185210714Y-110555800D02*
X185286905Y-110517704D01*
X185286905Y-110517704D02*
X185401191Y-110517704D01*
X184791666Y-111051038D02*
X184791666Y-110517704D01*
X184791666Y-110974847D02*
X184753571Y-111012942D01*
X184753571Y-111012942D02*
X184677381Y-111051038D01*
X184677381Y-111051038D02*
X184563095Y-111051038D01*
X184563095Y-111051038D02*
X184486904Y-111012942D01*
X184486904Y-111012942D02*
X184448809Y-110936752D01*
X184448809Y-110936752D02*
X184448809Y-110517704D01*
X189115475Y-109229704D02*
X189115475Y-110029704D01*
X189115475Y-110029704D02*
X188924999Y-110029704D01*
X188924999Y-110029704D02*
X188810713Y-109991609D01*
X188810713Y-109991609D02*
X188734523Y-109915419D01*
X188734523Y-109915419D02*
X188696428Y-109839228D01*
X188696428Y-109839228D02*
X188658332Y-109686847D01*
X188658332Y-109686847D02*
X188658332Y-109572561D01*
X188658332Y-109572561D02*
X188696428Y-109420180D01*
X188696428Y-109420180D02*
X188734523Y-109343990D01*
X188734523Y-109343990D02*
X188810713Y-109267800D01*
X188810713Y-109267800D02*
X188924999Y-109229704D01*
X188924999Y-109229704D02*
X189115475Y-109229704D01*
X188315475Y-109229704D02*
X188315475Y-109763038D01*
X188315475Y-110029704D02*
X188353571Y-109991609D01*
X188353571Y-109991609D02*
X188315475Y-109953514D01*
X188315475Y-109953514D02*
X188277380Y-109991609D01*
X188277380Y-109991609D02*
X188315475Y-110029704D01*
X188315475Y-110029704D02*
X188315475Y-109953514D01*
X187820238Y-109229704D02*
X187896428Y-109267800D01*
X187896428Y-109267800D02*
X187934523Y-109305895D01*
X187934523Y-109305895D02*
X187972619Y-109382085D01*
X187972619Y-109382085D02*
X187972619Y-109610657D01*
X187972619Y-109610657D02*
X187934523Y-109686847D01*
X187934523Y-109686847D02*
X187896428Y-109724942D01*
X187896428Y-109724942D02*
X187820238Y-109763038D01*
X187820238Y-109763038D02*
X187705952Y-109763038D01*
X187705952Y-109763038D02*
X187629761Y-109724942D01*
X187629761Y-109724942D02*
X187591666Y-109686847D01*
X187591666Y-109686847D02*
X187553571Y-109610657D01*
X187553571Y-109610657D02*
X187553571Y-109382085D01*
X187553571Y-109382085D02*
X187591666Y-109305895D01*
X187591666Y-109305895D02*
X187629761Y-109267800D01*
X187629761Y-109267800D02*
X187705952Y-109229704D01*
X187705952Y-109229704D02*
X187820238Y-109229704D01*
X186867856Y-109229704D02*
X186867856Y-110029704D01*
X186867856Y-109267800D02*
X186944047Y-109229704D01*
X186944047Y-109229704D02*
X187096428Y-109229704D01*
X187096428Y-109229704D02*
X187172618Y-109267800D01*
X187172618Y-109267800D02*
X187210713Y-109305895D01*
X187210713Y-109305895D02*
X187248809Y-109382085D01*
X187248809Y-109382085D02*
X187248809Y-109610657D01*
X187248809Y-109610657D02*
X187210713Y-109686847D01*
X187210713Y-109686847D02*
X187172618Y-109724942D01*
X187172618Y-109724942D02*
X187096428Y-109763038D01*
X187096428Y-109763038D02*
X186944047Y-109763038D01*
X186944047Y-109763038D02*
X186867856Y-109724942D01*
X186182141Y-109267800D02*
X186258332Y-109229704D01*
X186258332Y-109229704D02*
X186410713Y-109229704D01*
X186410713Y-109229704D02*
X186486903Y-109267800D01*
X186486903Y-109267800D02*
X186524999Y-109343990D01*
X186524999Y-109343990D02*
X186524999Y-109648752D01*
X186524999Y-109648752D02*
X186486903Y-109724942D01*
X186486903Y-109724942D02*
X186410713Y-109763038D01*
X186410713Y-109763038D02*
X186258332Y-109763038D01*
X186258332Y-109763038D02*
X186182141Y-109724942D01*
X186182141Y-109724942D02*
X186144046Y-109648752D01*
X186144046Y-109648752D02*
X186144046Y-109572561D01*
X186144046Y-109572561D02*
X186524999Y-109496371D01*
X185839285Y-109267800D02*
X185763094Y-109229704D01*
X185763094Y-109229704D02*
X185610713Y-109229704D01*
X185610713Y-109229704D02*
X185534523Y-109267800D01*
X185534523Y-109267800D02*
X185496427Y-109343990D01*
X185496427Y-109343990D02*
X185496427Y-109382085D01*
X185496427Y-109382085D02*
X185534523Y-109458276D01*
X185534523Y-109458276D02*
X185610713Y-109496371D01*
X185610713Y-109496371D02*
X185724999Y-109496371D01*
X185724999Y-109496371D02*
X185801189Y-109534466D01*
X185801189Y-109534466D02*
X185839285Y-109610657D01*
X185839285Y-109610657D02*
X185839285Y-109648752D01*
X185839285Y-109648752D02*
X185801189Y-109724942D01*
X185801189Y-109724942D02*
X185724999Y-109763038D01*
X185724999Y-109763038D02*
X185610713Y-109763038D01*
X185610713Y-109763038D02*
X185534523Y-109724942D01*
X150958694Y-101627780D02*
X150958694Y-102627780D01*
X150958694Y-102627780D02*
X150720599Y-102627780D01*
X150720599Y-102627780D02*
X150577742Y-102580161D01*
X150577742Y-102580161D02*
X150482504Y-102484923D01*
X150482504Y-102484923D02*
X150434885Y-102389685D01*
X150434885Y-102389685D02*
X150387266Y-102199209D01*
X150387266Y-102199209D02*
X150387266Y-102056352D01*
X150387266Y-102056352D02*
X150434885Y-101865876D01*
X150434885Y-101865876D02*
X150482504Y-101770638D01*
X150482504Y-101770638D02*
X150577742Y-101675400D01*
X150577742Y-101675400D02*
X150720599Y-101627780D01*
X150720599Y-101627780D02*
X150958694Y-101627780D01*
X149434885Y-101627780D02*
X150006313Y-101627780D01*
X149720599Y-101627780D02*
X149720599Y-102627780D01*
X149720599Y-102627780D02*
X149815837Y-102484923D01*
X149815837Y-102484923D02*
X149911075Y-102389685D01*
X149911075Y-102389685D02*
X150006313Y-102342066D01*
X151527313Y-93245733D02*
X150765409Y-93245733D01*
X151146361Y-92864780D02*
X151146361Y-93626685D01*
X149813028Y-93864780D02*
X150289218Y-93864780D01*
X150289218Y-93864780D02*
X150336837Y-93388590D01*
X150336837Y-93388590D02*
X150289218Y-93436209D01*
X150289218Y-93436209D02*
X150193980Y-93483828D01*
X150193980Y-93483828D02*
X149955885Y-93483828D01*
X149955885Y-93483828D02*
X149860647Y-93436209D01*
X149860647Y-93436209D02*
X149813028Y-93388590D01*
X149813028Y-93388590D02*
X149765409Y-93293352D01*
X149765409Y-93293352D02*
X149765409Y-93055257D01*
X149765409Y-93055257D02*
X149813028Y-92960019D01*
X149813028Y-92960019D02*
X149860647Y-92912400D01*
X149860647Y-92912400D02*
X149955885Y-92864780D01*
X149955885Y-92864780D02*
X150193980Y-92864780D01*
X150193980Y-92864780D02*
X150289218Y-92912400D01*
X150289218Y-92912400D02*
X150336837Y-92960019D01*
X149479694Y-93864780D02*
X149146361Y-92864780D01*
X149146361Y-92864780D02*
X148813028Y-93864780D01*
X160567666Y-109103180D02*
X160900999Y-109579371D01*
X161139094Y-109103180D02*
X161139094Y-110103180D01*
X161139094Y-110103180D02*
X160758142Y-110103180D01*
X160758142Y-110103180D02*
X160662904Y-110055561D01*
X160662904Y-110055561D02*
X160615285Y-110007942D01*
X160615285Y-110007942D02*
X160567666Y-109912704D01*
X160567666Y-109912704D02*
X160567666Y-109769847D01*
X160567666Y-109769847D02*
X160615285Y-109674609D01*
X160615285Y-109674609D02*
X160662904Y-109626990D01*
X160662904Y-109626990D02*
X160758142Y-109579371D01*
X160758142Y-109579371D02*
X161139094Y-109579371D01*
X159615285Y-109103180D02*
X160186713Y-109103180D01*
X159900999Y-109103180D02*
X159900999Y-110103180D01*
X159900999Y-110103180D02*
X159996237Y-109960323D01*
X159996237Y-109960323D02*
X160091475Y-109865085D01*
X160091475Y-109865085D02*
X160186713Y-109817466D01*
X162186713Y-105363180D02*
X161567666Y-105363180D01*
X161567666Y-105363180D02*
X161900999Y-104982228D01*
X161900999Y-104982228D02*
X161758142Y-104982228D01*
X161758142Y-104982228D02*
X161662904Y-104934609D01*
X161662904Y-104934609D02*
X161615285Y-104886990D01*
X161615285Y-104886990D02*
X161567666Y-104791752D01*
X161567666Y-104791752D02*
X161567666Y-104553657D01*
X161567666Y-104553657D02*
X161615285Y-104458419D01*
X161615285Y-104458419D02*
X161662904Y-104410800D01*
X161662904Y-104410800D02*
X161758142Y-104363180D01*
X161758142Y-104363180D02*
X162043856Y-104363180D01*
X162043856Y-104363180D02*
X162139094Y-104410800D01*
X162139094Y-104410800D02*
X162186713Y-104458419D01*
X161234332Y-105363180D02*
X160615285Y-105363180D01*
X160615285Y-105363180D02*
X160948618Y-104982228D01*
X160948618Y-104982228D02*
X160805761Y-104982228D01*
X160805761Y-104982228D02*
X160710523Y-104934609D01*
X160710523Y-104934609D02*
X160662904Y-104886990D01*
X160662904Y-104886990D02*
X160615285Y-104791752D01*
X160615285Y-104791752D02*
X160615285Y-104553657D01*
X160615285Y-104553657D02*
X160662904Y-104458419D01*
X160662904Y-104458419D02*
X160710523Y-104410800D01*
X160710523Y-104410800D02*
X160805761Y-104363180D01*
X160805761Y-104363180D02*
X161091475Y-104363180D01*
X161091475Y-104363180D02*
X161186713Y-104410800D01*
X161186713Y-104410800D02*
X161234332Y-104458419D01*
X159996237Y-105363180D02*
X159900999Y-105363180D01*
X159900999Y-105363180D02*
X159805761Y-105315561D01*
X159805761Y-105315561D02*
X159758142Y-105267942D01*
X159758142Y-105267942D02*
X159710523Y-105172704D01*
X159710523Y-105172704D02*
X159662904Y-104982228D01*
X159662904Y-104982228D02*
X159662904Y-104744133D01*
X159662904Y-104744133D02*
X159710523Y-104553657D01*
X159710523Y-104553657D02*
X159758142Y-104458419D01*
X159758142Y-104458419D02*
X159805761Y-104410800D01*
X159805761Y-104410800D02*
X159900999Y-104363180D01*
X159900999Y-104363180D02*
X159996237Y-104363180D01*
X159996237Y-104363180D02*
X160091475Y-104410800D01*
X160091475Y-104410800D02*
X160139094Y-104458419D01*
X160139094Y-104458419D02*
X160186713Y-104553657D01*
X160186713Y-104553657D02*
X160234332Y-104744133D01*
X160234332Y-104744133D02*
X160234332Y-104982228D01*
X160234332Y-104982228D02*
X160186713Y-105172704D01*
X160186713Y-105172704D02*
X160139094Y-105267942D01*
X160139094Y-105267942D02*
X160091475Y-105315561D01*
X160091475Y-105315561D02*
X159996237Y-105363180D01*
X158662904Y-104363180D02*
X158996237Y-104839371D01*
X159234332Y-104363180D02*
X159234332Y-105363180D01*
X159234332Y-105363180D02*
X158853380Y-105363180D01*
X158853380Y-105363180D02*
X158758142Y-105315561D01*
X158758142Y-105315561D02*
X158710523Y-105267942D01*
X158710523Y-105267942D02*
X158662904Y-105172704D01*
X158662904Y-105172704D02*
X158662904Y-105029847D01*
X158662904Y-105029847D02*
X158710523Y-104934609D01*
X158710523Y-104934609D02*
X158758142Y-104886990D01*
X158758142Y-104886990D02*
X158853380Y-104839371D01*
X158853380Y-104839371D02*
X159234332Y-104839371D01*
X186013523Y-102216180D02*
X186013523Y-103216180D01*
X186013523Y-103216180D02*
X185680190Y-102501895D01*
X185680190Y-102501895D02*
X185346857Y-103216180D01*
X185346857Y-103216180D02*
X185346857Y-102216180D01*
X184299238Y-102311419D02*
X184346857Y-102263800D01*
X184346857Y-102263800D02*
X184489714Y-102216180D01*
X184489714Y-102216180D02*
X184584952Y-102216180D01*
X184584952Y-102216180D02*
X184727809Y-102263800D01*
X184727809Y-102263800D02*
X184823047Y-102359038D01*
X184823047Y-102359038D02*
X184870666Y-102454276D01*
X184870666Y-102454276D02*
X184918285Y-102644752D01*
X184918285Y-102644752D02*
X184918285Y-102787609D01*
X184918285Y-102787609D02*
X184870666Y-102978085D01*
X184870666Y-102978085D02*
X184823047Y-103073323D01*
X184823047Y-103073323D02*
X184727809Y-103168561D01*
X184727809Y-103168561D02*
X184584952Y-103216180D01*
X184584952Y-103216180D02*
X184489714Y-103216180D01*
X184489714Y-103216180D02*
X184346857Y-103168561D01*
X184346857Y-103168561D02*
X184299238Y-103120942D01*
X183965904Y-103216180D02*
X183299238Y-103216180D01*
X183299238Y-103216180D02*
X183727809Y-102216180D01*
X182870666Y-102216180D02*
X182680190Y-102216180D01*
X182680190Y-102216180D02*
X182584952Y-102263800D01*
X182584952Y-102263800D02*
X182537333Y-102311419D01*
X182537333Y-102311419D02*
X182442095Y-102454276D01*
X182442095Y-102454276D02*
X182394476Y-102644752D01*
X182394476Y-102644752D02*
X182394476Y-103025704D01*
X182394476Y-103025704D02*
X182442095Y-103120942D01*
X182442095Y-103120942D02*
X182489714Y-103168561D01*
X182489714Y-103168561D02*
X182584952Y-103216180D01*
X182584952Y-103216180D02*
X182775428Y-103216180D01*
X182775428Y-103216180D02*
X182870666Y-103168561D01*
X182870666Y-103168561D02*
X182918285Y-103120942D01*
X182918285Y-103120942D02*
X182965904Y-103025704D01*
X182965904Y-103025704D02*
X182965904Y-102787609D01*
X182965904Y-102787609D02*
X182918285Y-102692371D01*
X182918285Y-102692371D02*
X182870666Y-102644752D01*
X182870666Y-102644752D02*
X182775428Y-102597133D01*
X182775428Y-102597133D02*
X182584952Y-102597133D01*
X182584952Y-102597133D02*
X182489714Y-102644752D01*
X182489714Y-102644752D02*
X182442095Y-102692371D01*
X182442095Y-102692371D02*
X182394476Y-102787609D01*
X181965904Y-102216180D02*
X181965904Y-103216180D01*
X181965904Y-103216180D02*
X181632571Y-102501895D01*
X181632571Y-102501895D02*
X181299238Y-103216180D01*
X181299238Y-103216180D02*
X181299238Y-102216180D01*
X180632571Y-103216180D02*
X180537333Y-103216180D01*
X180537333Y-103216180D02*
X180442095Y-103168561D01*
X180442095Y-103168561D02*
X180394476Y-103120942D01*
X180394476Y-103120942D02*
X180346857Y-103025704D01*
X180346857Y-103025704D02*
X180299238Y-102835228D01*
X180299238Y-102835228D02*
X180299238Y-102597133D01*
X180299238Y-102597133D02*
X180346857Y-102406657D01*
X180346857Y-102406657D02*
X180394476Y-102311419D01*
X180394476Y-102311419D02*
X180442095Y-102263800D01*
X180442095Y-102263800D02*
X180537333Y-102216180D01*
X180537333Y-102216180D02*
X180632571Y-102216180D01*
X180632571Y-102216180D02*
X180727809Y-102263800D01*
X180727809Y-102263800D02*
X180775428Y-102311419D01*
X180775428Y-102311419D02*
X180823047Y-102406657D01*
X180823047Y-102406657D02*
X180870666Y-102597133D01*
X180870666Y-102597133D02*
X180870666Y-102835228D01*
X180870666Y-102835228D02*
X180823047Y-103025704D01*
X180823047Y-103025704D02*
X180775428Y-103120942D01*
X180775428Y-103120942D02*
X180727809Y-103168561D01*
X180727809Y-103168561D02*
X180632571Y-103216180D01*
X179394476Y-103216180D02*
X179870666Y-103216180D01*
X179870666Y-103216180D02*
X179918285Y-102739990D01*
X179918285Y-102739990D02*
X179870666Y-102787609D01*
X179870666Y-102787609D02*
X179775428Y-102835228D01*
X179775428Y-102835228D02*
X179537333Y-102835228D01*
X179537333Y-102835228D02*
X179442095Y-102787609D01*
X179442095Y-102787609D02*
X179394476Y-102739990D01*
X179394476Y-102739990D02*
X179346857Y-102644752D01*
X179346857Y-102644752D02*
X179346857Y-102406657D01*
X179346857Y-102406657D02*
X179394476Y-102311419D01*
X179394476Y-102311419D02*
X179442095Y-102263800D01*
X179442095Y-102263800D02*
X179537333Y-102216180D01*
X179537333Y-102216180D02*
X179775428Y-102216180D01*
X179775428Y-102216180D02*
X179870666Y-102263800D01*
X179870666Y-102263800D02*
X179918285Y-102311419D01*
X123610666Y-109103180D02*
X123943999Y-109579371D01*
X124182094Y-109103180D02*
X124182094Y-110103180D01*
X124182094Y-110103180D02*
X123801142Y-110103180D01*
X123801142Y-110103180D02*
X123705904Y-110055561D01*
X123705904Y-110055561D02*
X123658285Y-110007942D01*
X123658285Y-110007942D02*
X123610666Y-109912704D01*
X123610666Y-109912704D02*
X123610666Y-109769847D01*
X123610666Y-109769847D02*
X123658285Y-109674609D01*
X123658285Y-109674609D02*
X123705904Y-109626990D01*
X123705904Y-109626990D02*
X123801142Y-109579371D01*
X123801142Y-109579371D02*
X124182094Y-109579371D01*
X122753523Y-109769847D02*
X122753523Y-109103180D01*
X122991618Y-110150800D02*
X123229713Y-109436514D01*
X123229713Y-109436514D02*
X122610666Y-109436514D01*
X123658285Y-104363180D02*
X124229713Y-104363180D01*
X123943999Y-104363180D02*
X123943999Y-105363180D01*
X123943999Y-105363180D02*
X124039237Y-105220323D01*
X124039237Y-105220323D02*
X124134475Y-105125085D01*
X124134475Y-105125085D02*
X124229713Y-105077466D01*
X123229713Y-104363180D02*
X123229713Y-105363180D01*
X122658285Y-104363180D02*
X123086856Y-104934609D01*
X122658285Y-105363180D02*
X123229713Y-104791752D01*
X135929666Y-109103180D02*
X136262999Y-109579371D01*
X136501094Y-109103180D02*
X136501094Y-110103180D01*
X136501094Y-110103180D02*
X136120142Y-110103180D01*
X136120142Y-110103180D02*
X136024904Y-110055561D01*
X136024904Y-110055561D02*
X135977285Y-110007942D01*
X135977285Y-110007942D02*
X135929666Y-109912704D01*
X135929666Y-109912704D02*
X135929666Y-109769847D01*
X135929666Y-109769847D02*
X135977285Y-109674609D01*
X135977285Y-109674609D02*
X136024904Y-109626990D01*
X136024904Y-109626990D02*
X136120142Y-109579371D01*
X136120142Y-109579371D02*
X136501094Y-109579371D01*
X135596332Y-110103180D02*
X134977285Y-110103180D01*
X134977285Y-110103180D02*
X135310618Y-109722228D01*
X135310618Y-109722228D02*
X135167761Y-109722228D01*
X135167761Y-109722228D02*
X135072523Y-109674609D01*
X135072523Y-109674609D02*
X135024904Y-109626990D01*
X135024904Y-109626990D02*
X134977285Y-109531752D01*
X134977285Y-109531752D02*
X134977285Y-109293657D01*
X134977285Y-109293657D02*
X135024904Y-109198419D01*
X135024904Y-109198419D02*
X135072523Y-109150800D01*
X135072523Y-109150800D02*
X135167761Y-109103180D01*
X135167761Y-109103180D02*
X135453475Y-109103180D01*
X135453475Y-109103180D02*
X135548713Y-109150800D01*
X135548713Y-109150800D02*
X135596332Y-109198419D01*
X137575713Y-105345180D02*
X136956666Y-105345180D01*
X136956666Y-105345180D02*
X137289999Y-104964228D01*
X137289999Y-104964228D02*
X137147142Y-104964228D01*
X137147142Y-104964228D02*
X137051904Y-104916609D01*
X137051904Y-104916609D02*
X137004285Y-104868990D01*
X137004285Y-104868990D02*
X136956666Y-104773752D01*
X136956666Y-104773752D02*
X136956666Y-104535657D01*
X136956666Y-104535657D02*
X137004285Y-104440419D01*
X137004285Y-104440419D02*
X137051904Y-104392800D01*
X137051904Y-104392800D02*
X137147142Y-104345180D01*
X137147142Y-104345180D02*
X137432856Y-104345180D01*
X137432856Y-104345180D02*
X137528094Y-104392800D01*
X137528094Y-104392800D02*
X137575713Y-104440419D01*
X136623332Y-105345180D02*
X136004285Y-105345180D01*
X136004285Y-105345180D02*
X136337618Y-104964228D01*
X136337618Y-104964228D02*
X136194761Y-104964228D01*
X136194761Y-104964228D02*
X136099523Y-104916609D01*
X136099523Y-104916609D02*
X136051904Y-104868990D01*
X136051904Y-104868990D02*
X136004285Y-104773752D01*
X136004285Y-104773752D02*
X136004285Y-104535657D01*
X136004285Y-104535657D02*
X136051904Y-104440419D01*
X136051904Y-104440419D02*
X136099523Y-104392800D01*
X136099523Y-104392800D02*
X136194761Y-104345180D01*
X136194761Y-104345180D02*
X136480475Y-104345180D01*
X136480475Y-104345180D02*
X136575713Y-104392800D01*
X136575713Y-104392800D02*
X136623332Y-104440419D01*
X135385237Y-105345180D02*
X135289999Y-105345180D01*
X135289999Y-105345180D02*
X135194761Y-105297561D01*
X135194761Y-105297561D02*
X135147142Y-105249942D01*
X135147142Y-105249942D02*
X135099523Y-105154704D01*
X135099523Y-105154704D02*
X135051904Y-104964228D01*
X135051904Y-104964228D02*
X135051904Y-104726133D01*
X135051904Y-104726133D02*
X135099523Y-104535657D01*
X135099523Y-104535657D02*
X135147142Y-104440419D01*
X135147142Y-104440419D02*
X135194761Y-104392800D01*
X135194761Y-104392800D02*
X135289999Y-104345180D01*
X135289999Y-104345180D02*
X135385237Y-104345180D01*
X135385237Y-104345180D02*
X135480475Y-104392800D01*
X135480475Y-104392800D02*
X135528094Y-104440419D01*
X135528094Y-104440419D02*
X135575713Y-104535657D01*
X135575713Y-104535657D02*
X135623332Y-104726133D01*
X135623332Y-104726133D02*
X135623332Y-104964228D01*
X135623332Y-104964228D02*
X135575713Y-105154704D01*
X135575713Y-105154704D02*
X135528094Y-105249942D01*
X135528094Y-105249942D02*
X135480475Y-105297561D01*
X135480475Y-105297561D02*
X135385237Y-105345180D01*
X134051904Y-104345180D02*
X134385237Y-104821371D01*
X134623332Y-104345180D02*
X134623332Y-105345180D01*
X134623332Y-105345180D02*
X134242380Y-105345180D01*
X134242380Y-105345180D02*
X134147142Y-105297561D01*
X134147142Y-105297561D02*
X134099523Y-105249942D01*
X134099523Y-105249942D02*
X134051904Y-105154704D01*
X134051904Y-105154704D02*
X134051904Y-105011847D01*
X134051904Y-105011847D02*
X134099523Y-104916609D01*
X134099523Y-104916609D02*
X134147142Y-104868990D01*
X134147142Y-104868990D02*
X134242380Y-104821371D01*
X134242380Y-104821371D02*
X134623332Y-104821371D01*
X144049894Y-101627780D02*
X144049894Y-102627780D01*
X144049894Y-102627780D02*
X143811799Y-102627780D01*
X143811799Y-102627780D02*
X143668942Y-102580161D01*
X143668942Y-102580161D02*
X143573704Y-102484923D01*
X143573704Y-102484923D02*
X143526085Y-102389685D01*
X143526085Y-102389685D02*
X143478466Y-102199209D01*
X143478466Y-102199209D02*
X143478466Y-102056352D01*
X143478466Y-102056352D02*
X143526085Y-101865876D01*
X143526085Y-101865876D02*
X143573704Y-101770638D01*
X143573704Y-101770638D02*
X143668942Y-101675400D01*
X143668942Y-101675400D02*
X143811799Y-101627780D01*
X143811799Y-101627780D02*
X144049894Y-101627780D01*
X143097513Y-102532542D02*
X143049894Y-102580161D01*
X143049894Y-102580161D02*
X142954656Y-102627780D01*
X142954656Y-102627780D02*
X142716561Y-102627780D01*
X142716561Y-102627780D02*
X142621323Y-102580161D01*
X142621323Y-102580161D02*
X142573704Y-102532542D01*
X142573704Y-102532542D02*
X142526085Y-102437304D01*
X142526085Y-102437304D02*
X142526085Y-102342066D01*
X142526085Y-102342066D02*
X142573704Y-102199209D01*
X142573704Y-102199209D02*
X143145132Y-101627780D01*
X143145132Y-101627780D02*
X142526085Y-101627780D01*
X145270504Y-93245733D02*
X144508600Y-93245733D01*
X144889552Y-92864780D02*
X144889552Y-93626685D01*
X143508600Y-92864780D02*
X144080028Y-92864780D01*
X143794314Y-92864780D02*
X143794314Y-93864780D01*
X143794314Y-93864780D02*
X143889552Y-93721923D01*
X143889552Y-93721923D02*
X143984790Y-93626685D01*
X143984790Y-93626685D02*
X144080028Y-93579066D01*
X143127647Y-93769542D02*
X143080028Y-93817161D01*
X143080028Y-93817161D02*
X142984790Y-93864780D01*
X142984790Y-93864780D02*
X142746695Y-93864780D01*
X142746695Y-93864780D02*
X142651457Y-93817161D01*
X142651457Y-93817161D02*
X142603838Y-93769542D01*
X142603838Y-93769542D02*
X142556219Y-93674304D01*
X142556219Y-93674304D02*
X142556219Y-93579066D01*
X142556219Y-93579066D02*
X142603838Y-93436209D01*
X142603838Y-93436209D02*
X143175266Y-92864780D01*
X143175266Y-92864780D02*
X142556219Y-92864780D01*
X142270504Y-93864780D02*
X141937171Y-92864780D01*
X141937171Y-92864780D02*
X141603838Y-93864780D01*
X130511694Y-101627780D02*
X130511694Y-102627780D01*
X130511694Y-102627780D02*
X130273599Y-102627780D01*
X130273599Y-102627780D02*
X130130742Y-102580161D01*
X130130742Y-102580161D02*
X130035504Y-102484923D01*
X130035504Y-102484923D02*
X129987885Y-102389685D01*
X129987885Y-102389685D02*
X129940266Y-102199209D01*
X129940266Y-102199209D02*
X129940266Y-102056352D01*
X129940266Y-102056352D02*
X129987885Y-101865876D01*
X129987885Y-101865876D02*
X130035504Y-101770638D01*
X130035504Y-101770638D02*
X130130742Y-101675400D01*
X130130742Y-101675400D02*
X130273599Y-101627780D01*
X130273599Y-101627780D02*
X130511694Y-101627780D01*
X129083123Y-102294447D02*
X129083123Y-101627780D01*
X129321218Y-102675400D02*
X129559313Y-101961114D01*
X129559313Y-101961114D02*
X128940266Y-101961114D01*
X131662504Y-93245733D02*
X130900600Y-93245733D01*
X129900600Y-92864780D02*
X130472028Y-92864780D01*
X130186314Y-92864780D02*
X130186314Y-93864780D01*
X130186314Y-93864780D02*
X130281552Y-93721923D01*
X130281552Y-93721923D02*
X130376790Y-93626685D01*
X130376790Y-93626685D02*
X130472028Y-93579066D01*
X129519647Y-93769542D02*
X129472028Y-93817161D01*
X129472028Y-93817161D02*
X129376790Y-93864780D01*
X129376790Y-93864780D02*
X129138695Y-93864780D01*
X129138695Y-93864780D02*
X129043457Y-93817161D01*
X129043457Y-93817161D02*
X128995838Y-93769542D01*
X128995838Y-93769542D02*
X128948219Y-93674304D01*
X128948219Y-93674304D02*
X128948219Y-93579066D01*
X128948219Y-93579066D02*
X128995838Y-93436209D01*
X128995838Y-93436209D02*
X129567266Y-92864780D01*
X129567266Y-92864780D02*
X128948219Y-92864780D01*
X128662504Y-93864780D02*
X128329171Y-92864780D01*
X128329171Y-92864780D02*
X127995838Y-93864780D01*
X148248666Y-109103180D02*
X148581999Y-109579371D01*
X148820094Y-109103180D02*
X148820094Y-110103180D01*
X148820094Y-110103180D02*
X148439142Y-110103180D01*
X148439142Y-110103180D02*
X148343904Y-110055561D01*
X148343904Y-110055561D02*
X148296285Y-110007942D01*
X148296285Y-110007942D02*
X148248666Y-109912704D01*
X148248666Y-109912704D02*
X148248666Y-109769847D01*
X148248666Y-109769847D02*
X148296285Y-109674609D01*
X148296285Y-109674609D02*
X148343904Y-109626990D01*
X148343904Y-109626990D02*
X148439142Y-109579371D01*
X148439142Y-109579371D02*
X148820094Y-109579371D01*
X147867713Y-110007942D02*
X147820094Y-110055561D01*
X147820094Y-110055561D02*
X147724856Y-110103180D01*
X147724856Y-110103180D02*
X147486761Y-110103180D01*
X147486761Y-110103180D02*
X147391523Y-110055561D01*
X147391523Y-110055561D02*
X147343904Y-110007942D01*
X147343904Y-110007942D02*
X147296285Y-109912704D01*
X147296285Y-109912704D02*
X147296285Y-109817466D01*
X147296285Y-109817466D02*
X147343904Y-109674609D01*
X147343904Y-109674609D02*
X147915332Y-109103180D01*
X147915332Y-109103180D02*
X147296285Y-109103180D01*
X148334285Y-104325180D02*
X148905713Y-104325180D01*
X148619999Y-104325180D02*
X148619999Y-105325180D01*
X148619999Y-105325180D02*
X148715237Y-105182323D01*
X148715237Y-105182323D02*
X148810475Y-105087085D01*
X148810475Y-105087085D02*
X148905713Y-105039466D01*
X147905713Y-104325180D02*
X147905713Y-105325180D01*
X147334285Y-104325180D02*
X147762856Y-104896609D01*
X147334285Y-105325180D02*
X147905713Y-104753752D01*
X162187533Y-93336780D02*
X162187533Y-92622495D01*
X162187533Y-92622495D02*
X162235152Y-92479638D01*
X162235152Y-92479638D02*
X162330390Y-92384400D01*
X162330390Y-92384400D02*
X162473247Y-92336780D01*
X162473247Y-92336780D02*
X162568485Y-92336780D01*
X161711342Y-92336780D02*
X161711342Y-93336780D01*
X161711342Y-93336780D02*
X161330390Y-93336780D01*
X161330390Y-93336780D02*
X161235152Y-93289161D01*
X161235152Y-93289161D02*
X161187533Y-93241542D01*
X161187533Y-93241542D02*
X161139914Y-93146304D01*
X161139914Y-93146304D02*
X161139914Y-93003447D01*
X161139914Y-93003447D02*
X161187533Y-92908209D01*
X161187533Y-92908209D02*
X161235152Y-92860590D01*
X161235152Y-92860590D02*
X161330390Y-92812971D01*
X161330390Y-92812971D02*
X161711342Y-92812971D01*
X160187533Y-92336780D02*
X160758961Y-92336780D01*
X160473247Y-92336780D02*
X160473247Y-93336780D01*
X160473247Y-93336780D02*
X160568485Y-93193923D01*
X160568485Y-93193923D02*
X160663723Y-93098685D01*
X160663723Y-93098685D02*
X160758961Y-93051066D01*
X171854666Y-101808419D02*
X171902285Y-101760800D01*
X171902285Y-101760800D02*
X172045142Y-101713180D01*
X172045142Y-101713180D02*
X172140380Y-101713180D01*
X172140380Y-101713180D02*
X172283237Y-101760800D01*
X172283237Y-101760800D02*
X172378475Y-101856038D01*
X172378475Y-101856038D02*
X172426094Y-101951276D01*
X172426094Y-101951276D02*
X172473713Y-102141752D01*
X172473713Y-102141752D02*
X172473713Y-102284609D01*
X172473713Y-102284609D02*
X172426094Y-102475085D01*
X172426094Y-102475085D02*
X172378475Y-102570323D01*
X172378475Y-102570323D02*
X172283237Y-102665561D01*
X172283237Y-102665561D02*
X172140380Y-102713180D01*
X172140380Y-102713180D02*
X172045142Y-102713180D01*
X172045142Y-102713180D02*
X171902285Y-102665561D01*
X171902285Y-102665561D02*
X171854666Y-102617942D01*
X171473713Y-102617942D02*
X171426094Y-102665561D01*
X171426094Y-102665561D02*
X171330856Y-102713180D01*
X171330856Y-102713180D02*
X171092761Y-102713180D01*
X171092761Y-102713180D02*
X170997523Y-102665561D01*
X170997523Y-102665561D02*
X170949904Y-102617942D01*
X170949904Y-102617942D02*
X170902285Y-102522704D01*
X170902285Y-102522704D02*
X170902285Y-102427466D01*
X170902285Y-102427466D02*
X170949904Y-102284609D01*
X170949904Y-102284609D02*
X171521332Y-101713180D01*
X171521332Y-101713180D02*
X170902285Y-101713180D01*
X173330856Y-110117942D02*
X173283237Y-110165561D01*
X173283237Y-110165561D02*
X173187999Y-110213180D01*
X173187999Y-110213180D02*
X172949904Y-110213180D01*
X172949904Y-110213180D02*
X172854666Y-110165561D01*
X172854666Y-110165561D02*
X172807047Y-110117942D01*
X172807047Y-110117942D02*
X172759428Y-110022704D01*
X172759428Y-110022704D02*
X172759428Y-109927466D01*
X172759428Y-109927466D02*
X172807047Y-109784609D01*
X172807047Y-109784609D02*
X173378475Y-109213180D01*
X173378475Y-109213180D02*
X172759428Y-109213180D01*
X172378475Y-110117942D02*
X172330856Y-110165561D01*
X172330856Y-110165561D02*
X172235618Y-110213180D01*
X172235618Y-110213180D02*
X171997523Y-110213180D01*
X171997523Y-110213180D02*
X171902285Y-110165561D01*
X171902285Y-110165561D02*
X171854666Y-110117942D01*
X171854666Y-110117942D02*
X171807047Y-110022704D01*
X171807047Y-110022704D02*
X171807047Y-109927466D01*
X171807047Y-109927466D02*
X171854666Y-109784609D01*
X171854666Y-109784609D02*
X172426094Y-109213180D01*
X172426094Y-109213180D02*
X171807047Y-109213180D01*
X170949904Y-109879847D02*
X170949904Y-109213180D01*
X171378475Y-109879847D02*
X171378475Y-109356038D01*
X171378475Y-109356038D02*
X171330856Y-109260800D01*
X171330856Y-109260800D02*
X171235618Y-109213180D01*
X171235618Y-109213180D02*
X171092761Y-109213180D01*
X171092761Y-109213180D02*
X170997523Y-109260800D01*
X170997523Y-109260800D02*
X170949904Y-109308419D01*
X170140380Y-109736990D02*
X170473713Y-109736990D01*
X170473713Y-109213180D02*
X170473713Y-110213180D01*
X170473713Y-110213180D02*
X169997523Y-110213180D01*
X182221094Y-104136180D02*
X182221094Y-105136180D01*
X182221094Y-105136180D02*
X181982999Y-105136180D01*
X181982999Y-105136180D02*
X181840142Y-105088561D01*
X181840142Y-105088561D02*
X181744904Y-104993323D01*
X181744904Y-104993323D02*
X181697285Y-104898085D01*
X181697285Y-104898085D02*
X181649666Y-104707609D01*
X181649666Y-104707609D02*
X181649666Y-104564752D01*
X181649666Y-104564752D02*
X181697285Y-104374276D01*
X181697285Y-104374276D02*
X181744904Y-104279038D01*
X181744904Y-104279038D02*
X181840142Y-104183800D01*
X181840142Y-104183800D02*
X181982999Y-104136180D01*
X181982999Y-104136180D02*
X182221094Y-104136180D01*
X180792523Y-105136180D02*
X180982999Y-105136180D01*
X180982999Y-105136180D02*
X181078237Y-105088561D01*
X181078237Y-105088561D02*
X181125856Y-105040942D01*
X181125856Y-105040942D02*
X181221094Y-104898085D01*
X181221094Y-104898085D02*
X181268713Y-104707609D01*
X181268713Y-104707609D02*
X181268713Y-104326657D01*
X181268713Y-104326657D02*
X181221094Y-104231419D01*
X181221094Y-104231419D02*
X181173475Y-104183800D01*
X181173475Y-104183800D02*
X181078237Y-104136180D01*
X181078237Y-104136180D02*
X180887761Y-104136180D01*
X180887761Y-104136180D02*
X180792523Y-104183800D01*
X180792523Y-104183800D02*
X180744904Y-104231419D01*
X180744904Y-104231419D02*
X180697285Y-104326657D01*
X180697285Y-104326657D02*
X180697285Y-104564752D01*
X180697285Y-104564752D02*
X180744904Y-104659990D01*
X180744904Y-104659990D02*
X180792523Y-104707609D01*
X180792523Y-104707609D02*
X180887761Y-104755228D01*
X180887761Y-104755228D02*
X181078237Y-104755228D01*
X181078237Y-104755228D02*
X181173475Y-104707609D01*
X181173475Y-104707609D02*
X181221094Y-104659990D01*
X181221094Y-104659990D02*
X181268713Y-104564752D01*
X183697285Y-109123800D02*
X183554428Y-109076180D01*
X183554428Y-109076180D02*
X183316333Y-109076180D01*
X183316333Y-109076180D02*
X183221095Y-109123800D01*
X183221095Y-109123800D02*
X183173476Y-109171419D01*
X183173476Y-109171419D02*
X183125857Y-109266657D01*
X183125857Y-109266657D02*
X183125857Y-109361895D01*
X183125857Y-109361895D02*
X183173476Y-109457133D01*
X183173476Y-109457133D02*
X183221095Y-109504752D01*
X183221095Y-109504752D02*
X183316333Y-109552371D01*
X183316333Y-109552371D02*
X183506809Y-109599990D01*
X183506809Y-109599990D02*
X183602047Y-109647609D01*
X183602047Y-109647609D02*
X183649666Y-109695228D01*
X183649666Y-109695228D02*
X183697285Y-109790466D01*
X183697285Y-109790466D02*
X183697285Y-109885704D01*
X183697285Y-109885704D02*
X183649666Y-109980942D01*
X183649666Y-109980942D02*
X183602047Y-110028561D01*
X183602047Y-110028561D02*
X183506809Y-110076180D01*
X183506809Y-110076180D02*
X183268714Y-110076180D01*
X183268714Y-110076180D02*
X183125857Y-110028561D01*
X182363952Y-109599990D02*
X182221095Y-109552371D01*
X182221095Y-109552371D02*
X182173476Y-109504752D01*
X182173476Y-109504752D02*
X182125857Y-109409514D01*
X182125857Y-109409514D02*
X182125857Y-109266657D01*
X182125857Y-109266657D02*
X182173476Y-109171419D01*
X182173476Y-109171419D02*
X182221095Y-109123800D01*
X182221095Y-109123800D02*
X182316333Y-109076180D01*
X182316333Y-109076180D02*
X182697285Y-109076180D01*
X182697285Y-109076180D02*
X182697285Y-110076180D01*
X182697285Y-110076180D02*
X182363952Y-110076180D01*
X182363952Y-110076180D02*
X182268714Y-110028561D01*
X182268714Y-110028561D02*
X182221095Y-109980942D01*
X182221095Y-109980942D02*
X182173476Y-109885704D01*
X182173476Y-109885704D02*
X182173476Y-109790466D01*
X182173476Y-109790466D02*
X182221095Y-109695228D01*
X182221095Y-109695228D02*
X182268714Y-109647609D01*
X182268714Y-109647609D02*
X182363952Y-109599990D01*
X182363952Y-109599990D02*
X182697285Y-109599990D01*
X181173476Y-109076180D02*
X181744904Y-109076180D01*
X181459190Y-109076180D02*
X181459190Y-110076180D01*
X181459190Y-110076180D02*
X181554428Y-109933323D01*
X181554428Y-109933323D02*
X181649666Y-109838085D01*
X181649666Y-109838085D02*
X181744904Y-109790466D01*
X180316333Y-109742847D02*
X180316333Y-109076180D01*
X180554428Y-110123800D02*
X180792523Y-109409514D01*
X180792523Y-109409514D02*
X180173476Y-109409514D01*
X179602047Y-110076180D02*
X179506809Y-110076180D01*
X179506809Y-110076180D02*
X179411571Y-110028561D01*
X179411571Y-110028561D02*
X179363952Y-109980942D01*
X179363952Y-109980942D02*
X179316333Y-109885704D01*
X179316333Y-109885704D02*
X179268714Y-109695228D01*
X179268714Y-109695228D02*
X179268714Y-109457133D01*
X179268714Y-109457133D02*
X179316333Y-109266657D01*
X179316333Y-109266657D02*
X179363952Y-109171419D01*
X179363952Y-109171419D02*
X179411571Y-109123800D01*
X179411571Y-109123800D02*
X179506809Y-109076180D01*
X179506809Y-109076180D02*
X179602047Y-109076180D01*
X179602047Y-109076180D02*
X179697285Y-109123800D01*
X179697285Y-109123800D02*
X179744904Y-109171419D01*
X179744904Y-109171419D02*
X179792523Y-109266657D01*
X179792523Y-109266657D02*
X179840142Y-109457133D01*
X179840142Y-109457133D02*
X179840142Y-109695228D01*
X179840142Y-109695228D02*
X179792523Y-109885704D01*
X179792523Y-109885704D02*
X179744904Y-109980942D01*
X179744904Y-109980942D02*
X179697285Y-110028561D01*
X179697285Y-110028561D02*
X179602047Y-110076180D01*
X137381694Y-101627780D02*
X137381694Y-102627780D01*
X137381694Y-102627780D02*
X137143599Y-102627780D01*
X137143599Y-102627780D02*
X137000742Y-102580161D01*
X137000742Y-102580161D02*
X136905504Y-102484923D01*
X136905504Y-102484923D02*
X136857885Y-102389685D01*
X136857885Y-102389685D02*
X136810266Y-102199209D01*
X136810266Y-102199209D02*
X136810266Y-102056352D01*
X136810266Y-102056352D02*
X136857885Y-101865876D01*
X136857885Y-101865876D02*
X136905504Y-101770638D01*
X136905504Y-101770638D02*
X137000742Y-101675400D01*
X137000742Y-101675400D02*
X137143599Y-101627780D01*
X137143599Y-101627780D02*
X137381694Y-101627780D01*
X136476932Y-102627780D02*
X135857885Y-102627780D01*
X135857885Y-102627780D02*
X136191218Y-102246828D01*
X136191218Y-102246828D02*
X136048361Y-102246828D01*
X136048361Y-102246828D02*
X135953123Y-102199209D01*
X135953123Y-102199209D02*
X135905504Y-102151590D01*
X135905504Y-102151590D02*
X135857885Y-102056352D01*
X135857885Y-102056352D02*
X135857885Y-101818257D01*
X135857885Y-101818257D02*
X135905504Y-101723019D01*
X135905504Y-101723019D02*
X135953123Y-101675400D01*
X135953123Y-101675400D02*
X136048361Y-101627780D01*
X136048361Y-101627780D02*
X136334075Y-101627780D01*
X136334075Y-101627780D02*
X136429313Y-101675400D01*
X136429313Y-101675400D02*
X136476932Y-101723019D01*
X138183313Y-93245733D02*
X137421409Y-93245733D01*
X136469028Y-93864780D02*
X136945218Y-93864780D01*
X136945218Y-93864780D02*
X136992837Y-93388590D01*
X136992837Y-93388590D02*
X136945218Y-93436209D01*
X136945218Y-93436209D02*
X136849980Y-93483828D01*
X136849980Y-93483828D02*
X136611885Y-93483828D01*
X136611885Y-93483828D02*
X136516647Y-93436209D01*
X136516647Y-93436209D02*
X136469028Y-93388590D01*
X136469028Y-93388590D02*
X136421409Y-93293352D01*
X136421409Y-93293352D02*
X136421409Y-93055257D01*
X136421409Y-93055257D02*
X136469028Y-92960019D01*
X136469028Y-92960019D02*
X136516647Y-92912400D01*
X136516647Y-92912400D02*
X136611885Y-92864780D01*
X136611885Y-92864780D02*
X136849980Y-92864780D01*
X136849980Y-92864780D02*
X136945218Y-92912400D01*
X136945218Y-92912400D02*
X136992837Y-92960019D01*
X136135694Y-93864780D02*
X135802361Y-92864780D01*
X135802361Y-92864780D02*
X135469028Y-93864780D01*
X193778094Y-104136180D02*
X193778094Y-105136180D01*
X193778094Y-105136180D02*
X193539999Y-105136180D01*
X193539999Y-105136180D02*
X193397142Y-105088561D01*
X193397142Y-105088561D02*
X193301904Y-104993323D01*
X193301904Y-104993323D02*
X193254285Y-104898085D01*
X193254285Y-104898085D02*
X193206666Y-104707609D01*
X193206666Y-104707609D02*
X193206666Y-104564752D01*
X193206666Y-104564752D02*
X193254285Y-104374276D01*
X193254285Y-104374276D02*
X193301904Y-104279038D01*
X193301904Y-104279038D02*
X193397142Y-104183800D01*
X193397142Y-104183800D02*
X193539999Y-104136180D01*
X193539999Y-104136180D02*
X193778094Y-104136180D01*
X192301904Y-105136180D02*
X192778094Y-105136180D01*
X192778094Y-105136180D02*
X192825713Y-104659990D01*
X192825713Y-104659990D02*
X192778094Y-104707609D01*
X192778094Y-104707609D02*
X192682856Y-104755228D01*
X192682856Y-104755228D02*
X192444761Y-104755228D01*
X192444761Y-104755228D02*
X192349523Y-104707609D01*
X192349523Y-104707609D02*
X192301904Y-104659990D01*
X192301904Y-104659990D02*
X192254285Y-104564752D01*
X192254285Y-104564752D02*
X192254285Y-104326657D01*
X192254285Y-104326657D02*
X192301904Y-104231419D01*
X192301904Y-104231419D02*
X192349523Y-104183800D01*
X192349523Y-104183800D02*
X192444761Y-104136180D01*
X192444761Y-104136180D02*
X192682856Y-104136180D01*
X192682856Y-104136180D02*
X192778094Y-104183800D01*
X192778094Y-104183800D02*
X192825713Y-104231419D01*
X195254285Y-109123800D02*
X195111428Y-109076180D01*
X195111428Y-109076180D02*
X194873333Y-109076180D01*
X194873333Y-109076180D02*
X194778095Y-109123800D01*
X194778095Y-109123800D02*
X194730476Y-109171419D01*
X194730476Y-109171419D02*
X194682857Y-109266657D01*
X194682857Y-109266657D02*
X194682857Y-109361895D01*
X194682857Y-109361895D02*
X194730476Y-109457133D01*
X194730476Y-109457133D02*
X194778095Y-109504752D01*
X194778095Y-109504752D02*
X194873333Y-109552371D01*
X194873333Y-109552371D02*
X195063809Y-109599990D01*
X195063809Y-109599990D02*
X195159047Y-109647609D01*
X195159047Y-109647609D02*
X195206666Y-109695228D01*
X195206666Y-109695228D02*
X195254285Y-109790466D01*
X195254285Y-109790466D02*
X195254285Y-109885704D01*
X195254285Y-109885704D02*
X195206666Y-109980942D01*
X195206666Y-109980942D02*
X195159047Y-110028561D01*
X195159047Y-110028561D02*
X195063809Y-110076180D01*
X195063809Y-110076180D02*
X194825714Y-110076180D01*
X194825714Y-110076180D02*
X194682857Y-110028561D01*
X193920952Y-109599990D02*
X193778095Y-109552371D01*
X193778095Y-109552371D02*
X193730476Y-109504752D01*
X193730476Y-109504752D02*
X193682857Y-109409514D01*
X193682857Y-109409514D02*
X193682857Y-109266657D01*
X193682857Y-109266657D02*
X193730476Y-109171419D01*
X193730476Y-109171419D02*
X193778095Y-109123800D01*
X193778095Y-109123800D02*
X193873333Y-109076180D01*
X193873333Y-109076180D02*
X194254285Y-109076180D01*
X194254285Y-109076180D02*
X194254285Y-110076180D01*
X194254285Y-110076180D02*
X193920952Y-110076180D01*
X193920952Y-110076180D02*
X193825714Y-110028561D01*
X193825714Y-110028561D02*
X193778095Y-109980942D01*
X193778095Y-109980942D02*
X193730476Y-109885704D01*
X193730476Y-109885704D02*
X193730476Y-109790466D01*
X193730476Y-109790466D02*
X193778095Y-109695228D01*
X193778095Y-109695228D02*
X193825714Y-109647609D01*
X193825714Y-109647609D02*
X193920952Y-109599990D01*
X193920952Y-109599990D02*
X194254285Y-109599990D01*
X192730476Y-109076180D02*
X193301904Y-109076180D01*
X193016190Y-109076180D02*
X193016190Y-110076180D01*
X193016190Y-110076180D02*
X193111428Y-109933323D01*
X193111428Y-109933323D02*
X193206666Y-109838085D01*
X193206666Y-109838085D02*
X193301904Y-109790466D01*
X191873333Y-109742847D02*
X191873333Y-109076180D01*
X192111428Y-110123800D02*
X192349523Y-109409514D01*
X192349523Y-109409514D02*
X191730476Y-109409514D01*
X191159047Y-110076180D02*
X191063809Y-110076180D01*
X191063809Y-110076180D02*
X190968571Y-110028561D01*
X190968571Y-110028561D02*
X190920952Y-109980942D01*
X190920952Y-109980942D02*
X190873333Y-109885704D01*
X190873333Y-109885704D02*
X190825714Y-109695228D01*
X190825714Y-109695228D02*
X190825714Y-109457133D01*
X190825714Y-109457133D02*
X190873333Y-109266657D01*
X190873333Y-109266657D02*
X190920952Y-109171419D01*
X190920952Y-109171419D02*
X190968571Y-109123800D01*
X190968571Y-109123800D02*
X191063809Y-109076180D01*
X191063809Y-109076180D02*
X191159047Y-109076180D01*
X191159047Y-109076180D02*
X191254285Y-109123800D01*
X191254285Y-109123800D02*
X191301904Y-109171419D01*
X191301904Y-109171419D02*
X191349523Y-109266657D01*
X191349523Y-109266657D02*
X191397142Y-109457133D01*
X191397142Y-109457133D02*
X191397142Y-109695228D01*
X191397142Y-109695228D02*
X191349523Y-109885704D01*
X191349523Y-109885704D02*
X191301904Y-109980942D01*
X191301904Y-109980942D02*
X191254285Y-110028561D01*
X191254285Y-110028561D02*
X191159047Y-110076180D01*
X171886666Y-92410419D02*
X171934285Y-92362800D01*
X171934285Y-92362800D02*
X172077142Y-92315180D01*
X172077142Y-92315180D02*
X172172380Y-92315180D01*
X172172380Y-92315180D02*
X172315237Y-92362800D01*
X172315237Y-92362800D02*
X172410475Y-92458038D01*
X172410475Y-92458038D02*
X172458094Y-92553276D01*
X172458094Y-92553276D02*
X172505713Y-92743752D01*
X172505713Y-92743752D02*
X172505713Y-92886609D01*
X172505713Y-92886609D02*
X172458094Y-93077085D01*
X172458094Y-93077085D02*
X172410475Y-93172323D01*
X172410475Y-93172323D02*
X172315237Y-93267561D01*
X172315237Y-93267561D02*
X172172380Y-93315180D01*
X172172380Y-93315180D02*
X172077142Y-93315180D01*
X172077142Y-93315180D02*
X171934285Y-93267561D01*
X171934285Y-93267561D02*
X171886666Y-93219942D01*
X170934285Y-92315180D02*
X171505713Y-92315180D01*
X171219999Y-92315180D02*
X171219999Y-93315180D01*
X171219999Y-93315180D02*
X171315237Y-93172323D01*
X171315237Y-93172323D02*
X171410475Y-93077085D01*
X171410475Y-93077085D02*
X171505713Y-93029466D01*
X173362856Y-100719942D02*
X173315237Y-100767561D01*
X173315237Y-100767561D02*
X173219999Y-100815180D01*
X173219999Y-100815180D02*
X172981904Y-100815180D01*
X172981904Y-100815180D02*
X172886666Y-100767561D01*
X172886666Y-100767561D02*
X172839047Y-100719942D01*
X172839047Y-100719942D02*
X172791428Y-100624704D01*
X172791428Y-100624704D02*
X172791428Y-100529466D01*
X172791428Y-100529466D02*
X172839047Y-100386609D01*
X172839047Y-100386609D02*
X173410475Y-99815180D01*
X173410475Y-99815180D02*
X172791428Y-99815180D01*
X172410475Y-100719942D02*
X172362856Y-100767561D01*
X172362856Y-100767561D02*
X172267618Y-100815180D01*
X172267618Y-100815180D02*
X172029523Y-100815180D01*
X172029523Y-100815180D02*
X171934285Y-100767561D01*
X171934285Y-100767561D02*
X171886666Y-100719942D01*
X171886666Y-100719942D02*
X171839047Y-100624704D01*
X171839047Y-100624704D02*
X171839047Y-100529466D01*
X171839047Y-100529466D02*
X171886666Y-100386609D01*
X171886666Y-100386609D02*
X172458094Y-99815180D01*
X172458094Y-99815180D02*
X171839047Y-99815180D01*
X170981904Y-100481847D02*
X170981904Y-99815180D01*
X171410475Y-100481847D02*
X171410475Y-99958038D01*
X171410475Y-99958038D02*
X171362856Y-99862800D01*
X171362856Y-99862800D02*
X171267618Y-99815180D01*
X171267618Y-99815180D02*
X171124761Y-99815180D01*
X171124761Y-99815180D02*
X171029523Y-99862800D01*
X171029523Y-99862800D02*
X170981904Y-99910419D01*
X170172380Y-100338990D02*
X170505713Y-100338990D01*
X170505713Y-99815180D02*
X170505713Y-100815180D01*
X170505713Y-100815180D02*
X170029523Y-100815180D01*
D14*
%TO.C,D1*%
X147655600Y-96092600D02*
X147655600Y-99182600D01*
X153205599Y-97638062D02*
G75*
G03*
X147655601Y-96092770I-2989999J462D01*
G01*
X147655600Y-99182430D02*
G75*
G03*
X153205600Y-97637138I2560000J1544830D01*
G01*
X152715600Y-97637600D02*
G75*
G03*
X152715600Y-97637600I-2500000J0D01*
G01*
%TO.C,R1*%
X164441000Y-107188000D02*
X163671000Y-107188000D01*
X163671000Y-108558000D02*
X163671000Y-105818000D01*
X163671000Y-105818000D02*
X157131000Y-105818000D01*
X157131000Y-108558000D02*
X163671000Y-108558000D01*
X157131000Y-105818000D02*
X157131000Y-108558000D01*
X156361000Y-107188000D02*
X157131000Y-107188000D01*
%TO.C,U1*%
X179394000Y-94721000D02*
X179394000Y-94991000D01*
X179394000Y-94991000D02*
X176564000Y-94991000D01*
X179394000Y-101351000D02*
X178294000Y-101351000D01*
X179394000Y-101621000D02*
X179394000Y-101351000D01*
X185814000Y-94721000D02*
X179394000Y-94721000D01*
X185814000Y-101621000D02*
X179394000Y-101621000D01*
%TO.C,R4*%
X127484000Y-107188000D02*
X126714000Y-107188000D01*
X126714000Y-108558000D02*
X126714000Y-105818000D01*
X126714000Y-105818000D02*
X120174000Y-105818000D01*
X120174000Y-108558000D02*
X126714000Y-108558000D01*
X120174000Y-105818000D02*
X120174000Y-108558000D01*
X119404000Y-107188000D02*
X120174000Y-107188000D01*
%TO.C,R3*%
X139803000Y-107188000D02*
X139033000Y-107188000D01*
X139033000Y-108558000D02*
X139033000Y-105818000D01*
X139033000Y-105818000D02*
X132493000Y-105818000D01*
X132493000Y-108558000D02*
X139033000Y-108558000D01*
X132493000Y-105818000D02*
X132493000Y-108558000D01*
X131723000Y-107188000D02*
X132493000Y-107188000D01*
%TO.C,D2*%
X140802600Y-96092600D02*
X140802600Y-99182600D01*
X146352599Y-97638062D02*
G75*
G03*
X140802601Y-96092770I-2989999J462D01*
G01*
X140802600Y-99182430D02*
G75*
G03*
X146352600Y-97637138I2560000J1544830D01*
G01*
X145862600Y-97637600D02*
G75*
G03*
X145862600Y-97637600I-2500000J0D01*
G01*
%TO.C,D4*%
X127081600Y-96092600D02*
X127081600Y-99182600D01*
X132631599Y-97638062D02*
G75*
G03*
X127081601Y-96092770I-2989999J462D01*
G01*
X127081600Y-99182430D02*
G75*
G03*
X132631600Y-97637138I2560000J1544830D01*
G01*
X132141600Y-97637600D02*
G75*
G03*
X132141600Y-97637600I-2500000J0D01*
G01*
%TO.C,R2*%
X152122000Y-107188000D02*
X151352000Y-107188000D01*
X151352000Y-108558000D02*
X151352000Y-105818000D01*
X151352000Y-105818000D02*
X144812000Y-105818000D01*
X144812000Y-108558000D02*
X151352000Y-108558000D01*
X144812000Y-105818000D02*
X144812000Y-108558000D01*
X144042000Y-107188000D02*
X144812000Y-107188000D01*
%TO.C,JP1*%
X158805000Y-96560000D02*
X158805000Y-95230000D01*
X160135000Y-96560000D02*
X158805000Y-96560000D01*
X161405000Y-96560000D02*
X164005000Y-96560000D01*
X161405000Y-96560000D02*
X161405000Y-93900000D01*
X164005000Y-96560000D02*
X164005000Y-93900000D01*
X161405000Y-93900000D02*
X164005000Y-93900000D01*
%TO.C,C2*%
X168883225Y-104443000D02*
X169383225Y-104443000D01*
X169133225Y-104193000D02*
X169133225Y-104693000D01*
X171688000Y-103338000D02*
X171688000Y-104878000D01*
X171688000Y-106958000D02*
X171688000Y-108498000D01*
X171728000Y-103338000D02*
X171728000Y-104878000D01*
X171728000Y-106958000D02*
X171728000Y-108498000D01*
X171768000Y-103339000D02*
X171768000Y-104878000D01*
X171768000Y-106958000D02*
X171768000Y-108497000D01*
X171808000Y-103340000D02*
X171808000Y-104878000D01*
X171808000Y-106958000D02*
X171808000Y-108496000D01*
X171848000Y-103342000D02*
X171848000Y-104878000D01*
X171848000Y-106958000D02*
X171848000Y-108494000D01*
X171888000Y-103345000D02*
X171888000Y-104878000D01*
X171888000Y-106958000D02*
X171888000Y-108491000D01*
X171928000Y-103349000D02*
X171928000Y-104878000D01*
X171928000Y-106958000D02*
X171928000Y-108487000D01*
X171968000Y-103353000D02*
X171968000Y-104878000D01*
X171968000Y-106958000D02*
X171968000Y-108483000D01*
X172008000Y-103357000D02*
X172008000Y-104878000D01*
X172008000Y-106958000D02*
X172008000Y-108479000D01*
X172048000Y-103362000D02*
X172048000Y-104878000D01*
X172048000Y-106958000D02*
X172048000Y-108474000D01*
X172088000Y-103368000D02*
X172088000Y-104878000D01*
X172088000Y-106958000D02*
X172088000Y-108468000D01*
X172128000Y-103375000D02*
X172128000Y-104878000D01*
X172128000Y-106958000D02*
X172128000Y-108461000D01*
X172168000Y-103382000D02*
X172168000Y-104878000D01*
X172168000Y-106958000D02*
X172168000Y-108454000D01*
X172208000Y-103390000D02*
X172208000Y-104878000D01*
X172208000Y-106958000D02*
X172208000Y-108446000D01*
X172248000Y-103398000D02*
X172248000Y-104878000D01*
X172248000Y-106958000D02*
X172248000Y-108438000D01*
X172288000Y-103407000D02*
X172288000Y-104878000D01*
X172288000Y-106958000D02*
X172288000Y-108429000D01*
X172328000Y-103417000D02*
X172328000Y-104878000D01*
X172328000Y-106958000D02*
X172328000Y-108419000D01*
X172368000Y-103427000D02*
X172368000Y-104878000D01*
X172368000Y-106958000D02*
X172368000Y-108409000D01*
X172409000Y-103438000D02*
X172409000Y-104878000D01*
X172409000Y-106958000D02*
X172409000Y-108398000D01*
X172449000Y-103450000D02*
X172449000Y-104878000D01*
X172449000Y-106958000D02*
X172449000Y-108386000D01*
X172489000Y-103463000D02*
X172489000Y-104878000D01*
X172489000Y-106958000D02*
X172489000Y-108373000D01*
X172529000Y-103476000D02*
X172529000Y-104878000D01*
X172529000Y-106958000D02*
X172529000Y-108360000D01*
X172569000Y-103490000D02*
X172569000Y-104878000D01*
X172569000Y-106958000D02*
X172569000Y-108346000D01*
X172609000Y-103504000D02*
X172609000Y-104878000D01*
X172609000Y-106958000D02*
X172609000Y-108332000D01*
X172649000Y-103520000D02*
X172649000Y-104878000D01*
X172649000Y-106958000D02*
X172649000Y-108316000D01*
X172689000Y-103536000D02*
X172689000Y-104878000D01*
X172689000Y-106958000D02*
X172689000Y-108300000D01*
X172729000Y-103553000D02*
X172729000Y-104878000D01*
X172729000Y-106958000D02*
X172729000Y-108283000D01*
X172769000Y-103570000D02*
X172769000Y-104878000D01*
X172769000Y-106958000D02*
X172769000Y-108266000D01*
X172809000Y-103589000D02*
X172809000Y-104878000D01*
X172809000Y-106958000D02*
X172809000Y-108247000D01*
X172849000Y-103608000D02*
X172849000Y-104878000D01*
X172849000Y-106958000D02*
X172849000Y-108228000D01*
X172889000Y-103628000D02*
X172889000Y-104878000D01*
X172889000Y-106958000D02*
X172889000Y-108208000D01*
X172929000Y-103650000D02*
X172929000Y-104878000D01*
X172929000Y-106958000D02*
X172929000Y-108186000D01*
X172969000Y-103671000D02*
X172969000Y-104878000D01*
X172969000Y-106958000D02*
X172969000Y-108165000D01*
X173009000Y-103694000D02*
X173009000Y-104878000D01*
X173009000Y-106958000D02*
X173009000Y-108142000D01*
X173049000Y-103718000D02*
X173049000Y-104878000D01*
X173049000Y-106958000D02*
X173049000Y-108118000D01*
X173089000Y-103743000D02*
X173089000Y-104878000D01*
X173089000Y-106958000D02*
X173089000Y-108093000D01*
X173129000Y-103769000D02*
X173129000Y-104878000D01*
X173129000Y-106958000D02*
X173129000Y-108067000D01*
X173169000Y-103796000D02*
X173169000Y-104878000D01*
X173169000Y-106958000D02*
X173169000Y-108040000D01*
X173209000Y-103823000D02*
X173209000Y-104878000D01*
X173209000Y-106958000D02*
X173209000Y-108013000D01*
X173249000Y-103853000D02*
X173249000Y-104878000D01*
X173249000Y-106958000D02*
X173249000Y-107983000D01*
X173289000Y-103883000D02*
X173289000Y-104878000D01*
X173289000Y-106958000D02*
X173289000Y-107953000D01*
X173329000Y-103914000D02*
X173329000Y-104878000D01*
X173329000Y-106958000D02*
X173329000Y-107922000D01*
X173369000Y-103947000D02*
X173369000Y-104878000D01*
X173369000Y-106958000D02*
X173369000Y-107889000D01*
X173409000Y-103981000D02*
X173409000Y-104878000D01*
X173409000Y-106958000D02*
X173409000Y-107855000D01*
X173449000Y-104017000D02*
X173449000Y-104878000D01*
X173449000Y-106958000D02*
X173449000Y-107819000D01*
X173489000Y-104054000D02*
X173489000Y-104878000D01*
X173489000Y-106958000D02*
X173489000Y-107782000D01*
X173529000Y-104092000D02*
X173529000Y-104878000D01*
X173529000Y-106958000D02*
X173529000Y-107744000D01*
X173569000Y-104133000D02*
X173569000Y-104878000D01*
X173569000Y-106958000D02*
X173569000Y-107703000D01*
X173609000Y-104175000D02*
X173609000Y-104878000D01*
X173609000Y-106958000D02*
X173609000Y-107661000D01*
X173649000Y-104219000D02*
X173649000Y-104878000D01*
X173649000Y-106958000D02*
X173649000Y-107617000D01*
X173689000Y-104265000D02*
X173689000Y-104878000D01*
X173689000Y-106958000D02*
X173689000Y-107571000D01*
X173729000Y-104313000D02*
X173729000Y-107523000D01*
X173769000Y-104364000D02*
X173769000Y-107472000D01*
X173809000Y-104418000D02*
X173809000Y-107418000D01*
X173849000Y-104475000D02*
X173849000Y-107361000D01*
X173889000Y-104535000D02*
X173889000Y-107301000D01*
X173929000Y-104599000D02*
X173929000Y-107237000D01*
X173969000Y-104667000D02*
X173969000Y-107169000D01*
X174009000Y-104740000D02*
X174009000Y-107096000D01*
X174049000Y-104820000D02*
X174049000Y-107016000D01*
X174089000Y-104907000D02*
X174089000Y-106929000D01*
X174129000Y-105003000D02*
X174129000Y-106833000D01*
X174169000Y-105113000D02*
X174169000Y-106723000D01*
X174209000Y-105241000D02*
X174209000Y-106595000D01*
X174249000Y-105400000D02*
X174249000Y-106436000D01*
X174289000Y-105634000D02*
X174289000Y-106202000D01*
X174308000Y-105918000D02*
G75*
G03*
X174308000Y-105918000I-2620000J0D01*
G01*
%TO.C,D6*%
X178763000Y-105591000D02*
X184203000Y-105591000D01*
X178763000Y-105721000D02*
X178763000Y-105591000D01*
X178763000Y-108401000D02*
X178763000Y-108531000D01*
X178763000Y-108531000D02*
X184203000Y-108531000D01*
X179543000Y-105591000D02*
X179543000Y-108531000D01*
X179663000Y-105591000D02*
X179663000Y-108531000D01*
X179783000Y-105591000D02*
X179783000Y-108531000D01*
X184203000Y-105591000D02*
X184203000Y-105721000D01*
X184203000Y-108531000D02*
X184203000Y-108401000D01*
%TO.C,D3*%
X133944600Y-96092600D02*
X133944600Y-99182600D01*
X139494599Y-97638062D02*
G75*
G03*
X133944601Y-96092770I-2989999J462D01*
G01*
X133944600Y-99182430D02*
G75*
G03*
X139494600Y-97637138I2560000J1544830D01*
G01*
X139004600Y-97637600D02*
G75*
G03*
X139004600Y-97637600I-2500000J0D01*
G01*
%TO.C,D5*%
X190320000Y-105591000D02*
X195760000Y-105591000D01*
X190320000Y-105721000D02*
X190320000Y-105591000D01*
X190320000Y-108401000D02*
X190320000Y-108531000D01*
X190320000Y-108531000D02*
X195760000Y-108531000D01*
X191100000Y-105591000D02*
X191100000Y-108531000D01*
X191220000Y-105591000D02*
X191220000Y-108531000D01*
X191340000Y-105591000D02*
X191340000Y-108531000D01*
X195760000Y-105591000D02*
X195760000Y-105721000D01*
X195760000Y-108531000D02*
X195760000Y-108401000D01*
%TO.C,C1*%
X168915225Y-95045000D02*
X169415225Y-95045000D01*
X169165225Y-94795000D02*
X169165225Y-95295000D01*
X171720000Y-93940000D02*
X171720000Y-95480000D01*
X171720000Y-97560000D02*
X171720000Y-99100000D01*
X171760000Y-93940000D02*
X171760000Y-95480000D01*
X171760000Y-97560000D02*
X171760000Y-99100000D01*
X171800000Y-93941000D02*
X171800000Y-95480000D01*
X171800000Y-97560000D02*
X171800000Y-99099000D01*
X171840000Y-93942000D02*
X171840000Y-95480000D01*
X171840000Y-97560000D02*
X171840000Y-99098000D01*
X171880000Y-93944000D02*
X171880000Y-95480000D01*
X171880000Y-97560000D02*
X171880000Y-99096000D01*
X171920000Y-93947000D02*
X171920000Y-95480000D01*
X171920000Y-97560000D02*
X171920000Y-99093000D01*
X171960000Y-93951000D02*
X171960000Y-95480000D01*
X171960000Y-97560000D02*
X171960000Y-99089000D01*
X172000000Y-93955000D02*
X172000000Y-95480000D01*
X172000000Y-97560000D02*
X172000000Y-99085000D01*
X172040000Y-93959000D02*
X172040000Y-95480000D01*
X172040000Y-97560000D02*
X172040000Y-99081000D01*
X172080000Y-93964000D02*
X172080000Y-95480000D01*
X172080000Y-97560000D02*
X172080000Y-99076000D01*
X172120000Y-93970000D02*
X172120000Y-95480000D01*
X172120000Y-97560000D02*
X172120000Y-99070000D01*
X172160000Y-93977000D02*
X172160000Y-95480000D01*
X172160000Y-97560000D02*
X172160000Y-99063000D01*
X172200000Y-93984000D02*
X172200000Y-95480000D01*
X172200000Y-97560000D02*
X172200000Y-99056000D01*
X172240000Y-93992000D02*
X172240000Y-95480000D01*
X172240000Y-97560000D02*
X172240000Y-99048000D01*
X172280000Y-94000000D02*
X172280000Y-95480000D01*
X172280000Y-97560000D02*
X172280000Y-99040000D01*
X172320000Y-94009000D02*
X172320000Y-95480000D01*
X172320000Y-97560000D02*
X172320000Y-99031000D01*
X172360000Y-94019000D02*
X172360000Y-95480000D01*
X172360000Y-97560000D02*
X172360000Y-99021000D01*
X172400000Y-94029000D02*
X172400000Y-95480000D01*
X172400000Y-97560000D02*
X172400000Y-99011000D01*
X172441000Y-94040000D02*
X172441000Y-95480000D01*
X172441000Y-97560000D02*
X172441000Y-99000000D01*
X172481000Y-94052000D02*
X172481000Y-95480000D01*
X172481000Y-97560000D02*
X172481000Y-98988000D01*
X172521000Y-94065000D02*
X172521000Y-95480000D01*
X172521000Y-97560000D02*
X172521000Y-98975000D01*
X172561000Y-94078000D02*
X172561000Y-95480000D01*
X172561000Y-97560000D02*
X172561000Y-98962000D01*
X172601000Y-94092000D02*
X172601000Y-95480000D01*
X172601000Y-97560000D02*
X172601000Y-98948000D01*
X172641000Y-94106000D02*
X172641000Y-95480000D01*
X172641000Y-97560000D02*
X172641000Y-98934000D01*
X172681000Y-94122000D02*
X172681000Y-95480000D01*
X172681000Y-97560000D02*
X172681000Y-98918000D01*
X172721000Y-94138000D02*
X172721000Y-95480000D01*
X172721000Y-97560000D02*
X172721000Y-98902000D01*
X172761000Y-94155000D02*
X172761000Y-95480000D01*
X172761000Y-97560000D02*
X172761000Y-98885000D01*
X172801000Y-94172000D02*
X172801000Y-95480000D01*
X172801000Y-97560000D02*
X172801000Y-98868000D01*
X172841000Y-94191000D02*
X172841000Y-95480000D01*
X172841000Y-97560000D02*
X172841000Y-98849000D01*
X172881000Y-94210000D02*
X172881000Y-95480000D01*
X172881000Y-97560000D02*
X172881000Y-98830000D01*
X172921000Y-94230000D02*
X172921000Y-95480000D01*
X172921000Y-97560000D02*
X172921000Y-98810000D01*
X172961000Y-94252000D02*
X172961000Y-95480000D01*
X172961000Y-97560000D02*
X172961000Y-98788000D01*
X173001000Y-94273000D02*
X173001000Y-95480000D01*
X173001000Y-97560000D02*
X173001000Y-98767000D01*
X173041000Y-94296000D02*
X173041000Y-95480000D01*
X173041000Y-97560000D02*
X173041000Y-98744000D01*
X173081000Y-94320000D02*
X173081000Y-95480000D01*
X173081000Y-97560000D02*
X173081000Y-98720000D01*
X173121000Y-94345000D02*
X173121000Y-95480000D01*
X173121000Y-97560000D02*
X173121000Y-98695000D01*
X173161000Y-94371000D02*
X173161000Y-95480000D01*
X173161000Y-97560000D02*
X173161000Y-98669000D01*
X173201000Y-94398000D02*
X173201000Y-95480000D01*
X173201000Y-97560000D02*
X173201000Y-98642000D01*
X173241000Y-94425000D02*
X173241000Y-95480000D01*
X173241000Y-97560000D02*
X173241000Y-98615000D01*
X173281000Y-94455000D02*
X173281000Y-95480000D01*
X173281000Y-97560000D02*
X173281000Y-98585000D01*
X173321000Y-94485000D02*
X173321000Y-95480000D01*
X173321000Y-97560000D02*
X173321000Y-98555000D01*
X173361000Y-94516000D02*
X173361000Y-95480000D01*
X173361000Y-97560000D02*
X173361000Y-98524000D01*
X173401000Y-94549000D02*
X173401000Y-95480000D01*
X173401000Y-97560000D02*
X173401000Y-98491000D01*
X173441000Y-94583000D02*
X173441000Y-95480000D01*
X173441000Y-97560000D02*
X173441000Y-98457000D01*
X173481000Y-94619000D02*
X173481000Y-95480000D01*
X173481000Y-97560000D02*
X173481000Y-98421000D01*
X173521000Y-94656000D02*
X173521000Y-95480000D01*
X173521000Y-97560000D02*
X173521000Y-98384000D01*
X173561000Y-94694000D02*
X173561000Y-95480000D01*
X173561000Y-97560000D02*
X173561000Y-98346000D01*
X173601000Y-94735000D02*
X173601000Y-95480000D01*
X173601000Y-97560000D02*
X173601000Y-98305000D01*
X173641000Y-94777000D02*
X173641000Y-95480000D01*
X173641000Y-97560000D02*
X173641000Y-98263000D01*
X173681000Y-94821000D02*
X173681000Y-95480000D01*
X173681000Y-97560000D02*
X173681000Y-98219000D01*
X173721000Y-94867000D02*
X173721000Y-95480000D01*
X173721000Y-97560000D02*
X173721000Y-98173000D01*
X173761000Y-94915000D02*
X173761000Y-98125000D01*
X173801000Y-94966000D02*
X173801000Y-98074000D01*
X173841000Y-95020000D02*
X173841000Y-98020000D01*
X173881000Y-95077000D02*
X173881000Y-97963000D01*
X173921000Y-95137000D02*
X173921000Y-97903000D01*
X173961000Y-95201000D02*
X173961000Y-97839000D01*
X174001000Y-95269000D02*
X174001000Y-97771000D01*
X174041000Y-95342000D02*
X174041000Y-97698000D01*
X174081000Y-95422000D02*
X174081000Y-97618000D01*
X174121000Y-95509000D02*
X174121000Y-97531000D01*
X174161000Y-95605000D02*
X174161000Y-97435000D01*
X174201000Y-95715000D02*
X174201000Y-97325000D01*
X174241000Y-95843000D02*
X174241000Y-97197000D01*
X174281000Y-96002000D02*
X174281000Y-97038000D01*
X174321000Y-96236000D02*
X174321000Y-96804000D01*
X174340000Y-96520000D02*
G75*
G03*
X174340000Y-96520000I-2620000J0D01*
G01*
%TD*%
M02*
