%TF.GenerationSoftware,KiCad,Pcbnew,7.0.7*%
%TF.CreationDate,2023-11-02T23:14:20-05:00*%
%TF.ProjectId,Voltage Blaster,566f6c74-6167-4652-9042-6c6173746572,rev?*%
%TF.SameCoordinates,Original*%
%TF.FileFunction,Legend,Top*%
%TF.FilePolarity,Positive*%
%FSLAX46Y46*%
G04 Gerber Fmt 4.6, Leading zero omitted, Abs format (unit mm)*
G04 Created by KiCad (PCBNEW 7.0.7) date 2023-11-02 23:14:20*
%MOMM*%
%LPD*%
G01*
G04 APERTURE LIST*
%ADD10C,0.200000*%
%ADD11C,0.100000*%
%ADD12C,0.300000*%
%ADD13C,0.150000*%
%ADD14C,0.120000*%
G04 APERTURE END LIST*
D10*
X183405863Y-93406028D02*
X182905863Y-92691742D01*
X182548720Y-93406028D02*
X182548720Y-91906028D01*
X182548720Y-91906028D02*
X183120149Y-91906028D01*
X183120149Y-91906028D02*
X183263006Y-91977457D01*
X183263006Y-91977457D02*
X183334435Y-92048885D01*
X183334435Y-92048885D02*
X183405863Y-92191742D01*
X183405863Y-92191742D02*
X183405863Y-92406028D01*
X183405863Y-92406028D02*
X183334435Y-92548885D01*
X183334435Y-92548885D02*
X183263006Y-92620314D01*
X183263006Y-92620314D02*
X183120149Y-92691742D01*
X183120149Y-92691742D02*
X182548720Y-92691742D01*
X184620149Y-93334600D02*
X184477292Y-93406028D01*
X184477292Y-93406028D02*
X184191578Y-93406028D01*
X184191578Y-93406028D02*
X184048720Y-93334600D01*
X184048720Y-93334600D02*
X183977292Y-93191742D01*
X183977292Y-93191742D02*
X183977292Y-92620314D01*
X183977292Y-92620314D02*
X184048720Y-92477457D01*
X184048720Y-92477457D02*
X184191578Y-92406028D01*
X184191578Y-92406028D02*
X184477292Y-92406028D01*
X184477292Y-92406028D02*
X184620149Y-92477457D01*
X184620149Y-92477457D02*
X184691578Y-92620314D01*
X184691578Y-92620314D02*
X184691578Y-92763171D01*
X184691578Y-92763171D02*
X183977292Y-92906028D01*
X185977292Y-93406028D02*
X185977292Y-92620314D01*
X185977292Y-92620314D02*
X185905863Y-92477457D01*
X185905863Y-92477457D02*
X185763006Y-92406028D01*
X185763006Y-92406028D02*
X185477292Y-92406028D01*
X185477292Y-92406028D02*
X185334434Y-92477457D01*
X185977292Y-93334600D02*
X185834434Y-93406028D01*
X185834434Y-93406028D02*
X185477292Y-93406028D01*
X185477292Y-93406028D02*
X185334434Y-93334600D01*
X185334434Y-93334600D02*
X185263006Y-93191742D01*
X185263006Y-93191742D02*
X185263006Y-93048885D01*
X185263006Y-93048885D02*
X185334434Y-92906028D01*
X185334434Y-92906028D02*
X185477292Y-92834600D01*
X185477292Y-92834600D02*
X185834434Y-92834600D01*
X185834434Y-92834600D02*
X185977292Y-92763171D01*
X186691577Y-93406028D02*
X186691577Y-92406028D01*
X186691577Y-92691742D02*
X186763006Y-92548885D01*
X186763006Y-92548885D02*
X186834435Y-92477457D01*
X186834435Y-92477457D02*
X186977292Y-92406028D01*
X186977292Y-92406028D02*
X187120149Y-92406028D01*
X188977291Y-93406028D02*
X188834434Y-93334600D01*
X188834434Y-93334600D02*
X188763005Y-93263171D01*
X188763005Y-93263171D02*
X188691577Y-93120314D01*
X188691577Y-93120314D02*
X188691577Y-92691742D01*
X188691577Y-92691742D02*
X188763005Y-92548885D01*
X188763005Y-92548885D02*
X188834434Y-92477457D01*
X188834434Y-92477457D02*
X188977291Y-92406028D01*
X188977291Y-92406028D02*
X189191577Y-92406028D01*
X189191577Y-92406028D02*
X189334434Y-92477457D01*
X189334434Y-92477457D02*
X189405863Y-92548885D01*
X189405863Y-92548885D02*
X189477291Y-92691742D01*
X189477291Y-92691742D02*
X189477291Y-93120314D01*
X189477291Y-93120314D02*
X189405863Y-93263171D01*
X189405863Y-93263171D02*
X189334434Y-93334600D01*
X189334434Y-93334600D02*
X189191577Y-93406028D01*
X189191577Y-93406028D02*
X188977291Y-93406028D01*
X189905863Y-92406028D02*
X190477291Y-92406028D01*
X190120148Y-93406028D02*
X190120148Y-92120314D01*
X190120148Y-92120314D02*
X190191577Y-91977457D01*
X190191577Y-91977457D02*
X190334434Y-91906028D01*
X190334434Y-91906028D02*
X190477291Y-91906028D01*
X192120148Y-93406028D02*
X192120148Y-91906028D01*
X192120148Y-91906028D02*
X192691577Y-91906028D01*
X192691577Y-91906028D02*
X192834434Y-91977457D01*
X192834434Y-91977457D02*
X192905863Y-92048885D01*
X192905863Y-92048885D02*
X192977291Y-92191742D01*
X192977291Y-92191742D02*
X192977291Y-92406028D01*
X192977291Y-92406028D02*
X192905863Y-92548885D01*
X192905863Y-92548885D02*
X192834434Y-92620314D01*
X192834434Y-92620314D02*
X192691577Y-92691742D01*
X192691577Y-92691742D02*
X192120148Y-92691742D01*
X194477291Y-93263171D02*
X194405863Y-93334600D01*
X194405863Y-93334600D02*
X194191577Y-93406028D01*
X194191577Y-93406028D02*
X194048720Y-93406028D01*
X194048720Y-93406028D02*
X193834434Y-93334600D01*
X193834434Y-93334600D02*
X193691577Y-93191742D01*
X193691577Y-93191742D02*
X193620148Y-93048885D01*
X193620148Y-93048885D02*
X193548720Y-92763171D01*
X193548720Y-92763171D02*
X193548720Y-92548885D01*
X193548720Y-92548885D02*
X193620148Y-92263171D01*
X193620148Y-92263171D02*
X193691577Y-92120314D01*
X193691577Y-92120314D02*
X193834434Y-91977457D01*
X193834434Y-91977457D02*
X194048720Y-91906028D01*
X194048720Y-91906028D02*
X194191577Y-91906028D01*
X194191577Y-91906028D02*
X194405863Y-91977457D01*
X194405863Y-91977457D02*
X194477291Y-92048885D01*
X196263005Y-92834600D02*
X197405863Y-92834600D01*
X198120148Y-92406028D02*
X199263006Y-92834600D01*
X199263006Y-92834600D02*
X198120148Y-93263171D01*
D11*
X189684836Y-96350895D02*
X189684836Y-96922323D01*
X189684836Y-96922323D02*
X189646741Y-97036609D01*
X189646741Y-97036609D02*
X189570550Y-97112800D01*
X189570550Y-97112800D02*
X189456265Y-97150895D01*
X189456265Y-97150895D02*
X189380074Y-97150895D01*
X190065789Y-97150895D02*
X190065789Y-96350895D01*
X190065789Y-96350895D02*
X190370551Y-96350895D01*
X190370551Y-96350895D02*
X190446741Y-96388990D01*
X190446741Y-96388990D02*
X190484836Y-96427085D01*
X190484836Y-96427085D02*
X190522932Y-96503276D01*
X190522932Y-96503276D02*
X190522932Y-96617561D01*
X190522932Y-96617561D02*
X190484836Y-96693752D01*
X190484836Y-96693752D02*
X190446741Y-96731847D01*
X190446741Y-96731847D02*
X190370551Y-96769942D01*
X190370551Y-96769942D02*
X190065789Y-96769942D01*
X191284836Y-97150895D02*
X190827693Y-97150895D01*
X191056265Y-97150895D02*
X191056265Y-96350895D01*
X191056265Y-96350895D02*
X190980074Y-96465180D01*
X190980074Y-96465180D02*
X190903884Y-96541371D01*
X190903884Y-96541371D02*
X190827693Y-96579466D01*
X191627694Y-97074704D02*
X191665789Y-97112800D01*
X191665789Y-97112800D02*
X191627694Y-97150895D01*
X191627694Y-97150895D02*
X191589598Y-97112800D01*
X191589598Y-97112800D02*
X191627694Y-97074704D01*
X191627694Y-97074704D02*
X191627694Y-97150895D01*
X191627694Y-96655657D02*
X191665789Y-96693752D01*
X191665789Y-96693752D02*
X191627694Y-96731847D01*
X191627694Y-96731847D02*
X191589598Y-96693752D01*
X191589598Y-96693752D02*
X191627694Y-96655657D01*
X191627694Y-96655657D02*
X191627694Y-96731847D01*
X189608646Y-97638895D02*
X189761027Y-97638895D01*
X189761027Y-97638895D02*
X189837217Y-97676990D01*
X189837217Y-97676990D02*
X189913408Y-97753180D01*
X189913408Y-97753180D02*
X189951503Y-97905561D01*
X189951503Y-97905561D02*
X189951503Y-98172228D01*
X189951503Y-98172228D02*
X189913408Y-98324609D01*
X189913408Y-98324609D02*
X189837217Y-98400800D01*
X189837217Y-98400800D02*
X189761027Y-98438895D01*
X189761027Y-98438895D02*
X189608646Y-98438895D01*
X189608646Y-98438895D02*
X189532455Y-98400800D01*
X189532455Y-98400800D02*
X189456265Y-98324609D01*
X189456265Y-98324609D02*
X189418169Y-98172228D01*
X189418169Y-98172228D02*
X189418169Y-97905561D01*
X189418169Y-97905561D02*
X189456265Y-97753180D01*
X189456265Y-97753180D02*
X189532455Y-97676990D01*
X189532455Y-97676990D02*
X189608646Y-97638895D01*
X190637217Y-97905561D02*
X190637217Y-98438895D01*
X190294360Y-97905561D02*
X190294360Y-98324609D01*
X190294360Y-98324609D02*
X190332455Y-98400800D01*
X190332455Y-98400800D02*
X190408645Y-98438895D01*
X190408645Y-98438895D02*
X190522931Y-98438895D01*
X190522931Y-98438895D02*
X190599122Y-98400800D01*
X190599122Y-98400800D02*
X190637217Y-98362704D01*
X190903884Y-97905561D02*
X191208646Y-97905561D01*
X191018170Y-97638895D02*
X191018170Y-98324609D01*
X191018170Y-98324609D02*
X191056265Y-98400800D01*
X191056265Y-98400800D02*
X191132455Y-98438895D01*
X191132455Y-98438895D02*
X191208646Y-98438895D01*
X191475313Y-97905561D02*
X191475313Y-98705561D01*
X191475313Y-97943657D02*
X191551503Y-97905561D01*
X191551503Y-97905561D02*
X191703884Y-97905561D01*
X191703884Y-97905561D02*
X191780075Y-97943657D01*
X191780075Y-97943657D02*
X191818170Y-97981752D01*
X191818170Y-97981752D02*
X191856265Y-98057942D01*
X191856265Y-98057942D02*
X191856265Y-98286514D01*
X191856265Y-98286514D02*
X191818170Y-98362704D01*
X191818170Y-98362704D02*
X191780075Y-98400800D01*
X191780075Y-98400800D02*
X191703884Y-98438895D01*
X191703884Y-98438895D02*
X191551503Y-98438895D01*
X191551503Y-98438895D02*
X191475313Y-98400800D01*
X192541980Y-97905561D02*
X192541980Y-98438895D01*
X192199123Y-97905561D02*
X192199123Y-98324609D01*
X192199123Y-98324609D02*
X192237218Y-98400800D01*
X192237218Y-98400800D02*
X192313408Y-98438895D01*
X192313408Y-98438895D02*
X192427694Y-98438895D01*
X192427694Y-98438895D02*
X192503885Y-98400800D01*
X192503885Y-98400800D02*
X192541980Y-98362704D01*
X192808647Y-97905561D02*
X193113409Y-97905561D01*
X192922933Y-97638895D02*
X192922933Y-98324609D01*
X192922933Y-98324609D02*
X192961028Y-98400800D01*
X192961028Y-98400800D02*
X193037218Y-98438895D01*
X193037218Y-98438895D02*
X193113409Y-98438895D01*
X189456265Y-99726895D02*
X189456265Y-98926895D01*
X189456265Y-98926895D02*
X189646741Y-98926895D01*
X189646741Y-98926895D02*
X189761027Y-98964990D01*
X189761027Y-98964990D02*
X189837217Y-99041180D01*
X189837217Y-99041180D02*
X189875312Y-99117371D01*
X189875312Y-99117371D02*
X189913408Y-99269752D01*
X189913408Y-99269752D02*
X189913408Y-99384038D01*
X189913408Y-99384038D02*
X189875312Y-99536419D01*
X189875312Y-99536419D02*
X189837217Y-99612609D01*
X189837217Y-99612609D02*
X189761027Y-99688800D01*
X189761027Y-99688800D02*
X189646741Y-99726895D01*
X189646741Y-99726895D02*
X189456265Y-99726895D01*
X190256265Y-99726895D02*
X190256265Y-99193561D01*
X190256265Y-98926895D02*
X190218169Y-98964990D01*
X190218169Y-98964990D02*
X190256265Y-99003085D01*
X190256265Y-99003085D02*
X190294360Y-98964990D01*
X190294360Y-98964990D02*
X190256265Y-98926895D01*
X190256265Y-98926895D02*
X190256265Y-99003085D01*
X190599121Y-99688800D02*
X190675312Y-99726895D01*
X190675312Y-99726895D02*
X190827693Y-99726895D01*
X190827693Y-99726895D02*
X190903883Y-99688800D01*
X190903883Y-99688800D02*
X190941979Y-99612609D01*
X190941979Y-99612609D02*
X190941979Y-99574514D01*
X190941979Y-99574514D02*
X190903883Y-99498323D01*
X190903883Y-99498323D02*
X190827693Y-99460228D01*
X190827693Y-99460228D02*
X190713407Y-99460228D01*
X190713407Y-99460228D02*
X190637217Y-99422133D01*
X190637217Y-99422133D02*
X190599121Y-99345942D01*
X190599121Y-99345942D02*
X190599121Y-99307847D01*
X190599121Y-99307847D02*
X190637217Y-99231657D01*
X190637217Y-99231657D02*
X190713407Y-99193561D01*
X190713407Y-99193561D02*
X190827693Y-99193561D01*
X190827693Y-99193561D02*
X190903883Y-99231657D01*
X191627693Y-99688800D02*
X191551502Y-99726895D01*
X191551502Y-99726895D02*
X191399121Y-99726895D01*
X191399121Y-99726895D02*
X191322931Y-99688800D01*
X191322931Y-99688800D02*
X191284836Y-99650704D01*
X191284836Y-99650704D02*
X191246740Y-99574514D01*
X191246740Y-99574514D02*
X191246740Y-99345942D01*
X191246740Y-99345942D02*
X191284836Y-99269752D01*
X191284836Y-99269752D02*
X191322931Y-99231657D01*
X191322931Y-99231657D02*
X191399121Y-99193561D01*
X191399121Y-99193561D02*
X191551502Y-99193561D01*
X191551502Y-99193561D02*
X191627693Y-99231657D01*
X192084835Y-99726895D02*
X192008645Y-99688800D01*
X192008645Y-99688800D02*
X191970550Y-99650704D01*
X191970550Y-99650704D02*
X191932454Y-99574514D01*
X191932454Y-99574514D02*
X191932454Y-99345942D01*
X191932454Y-99345942D02*
X191970550Y-99269752D01*
X191970550Y-99269752D02*
X192008645Y-99231657D01*
X192008645Y-99231657D02*
X192084835Y-99193561D01*
X192084835Y-99193561D02*
X192199121Y-99193561D01*
X192199121Y-99193561D02*
X192275312Y-99231657D01*
X192275312Y-99231657D02*
X192313407Y-99269752D01*
X192313407Y-99269752D02*
X192351502Y-99345942D01*
X192351502Y-99345942D02*
X192351502Y-99574514D01*
X192351502Y-99574514D02*
X192313407Y-99650704D01*
X192313407Y-99650704D02*
X192275312Y-99688800D01*
X192275312Y-99688800D02*
X192199121Y-99726895D01*
X192199121Y-99726895D02*
X192084835Y-99726895D01*
X192694360Y-99193561D02*
X192694360Y-99726895D01*
X192694360Y-99269752D02*
X192732455Y-99231657D01*
X192732455Y-99231657D02*
X192808645Y-99193561D01*
X192808645Y-99193561D02*
X192922931Y-99193561D01*
X192922931Y-99193561D02*
X192999122Y-99231657D01*
X192999122Y-99231657D02*
X193037217Y-99307847D01*
X193037217Y-99307847D02*
X193037217Y-99726895D01*
X193418170Y-99193561D02*
X193418170Y-99726895D01*
X193418170Y-99269752D02*
X193456265Y-99231657D01*
X193456265Y-99231657D02*
X193532455Y-99193561D01*
X193532455Y-99193561D02*
X193646741Y-99193561D01*
X193646741Y-99193561D02*
X193722932Y-99231657D01*
X193722932Y-99231657D02*
X193761027Y-99307847D01*
X193761027Y-99307847D02*
X193761027Y-99726895D01*
X194446742Y-99688800D02*
X194370551Y-99726895D01*
X194370551Y-99726895D02*
X194218170Y-99726895D01*
X194218170Y-99726895D02*
X194141980Y-99688800D01*
X194141980Y-99688800D02*
X194103884Y-99612609D01*
X194103884Y-99612609D02*
X194103884Y-99307847D01*
X194103884Y-99307847D02*
X194141980Y-99231657D01*
X194141980Y-99231657D02*
X194218170Y-99193561D01*
X194218170Y-99193561D02*
X194370551Y-99193561D01*
X194370551Y-99193561D02*
X194446742Y-99231657D01*
X194446742Y-99231657D02*
X194484837Y-99307847D01*
X194484837Y-99307847D02*
X194484837Y-99384038D01*
X194484837Y-99384038D02*
X194103884Y-99460228D01*
X195170551Y-99688800D02*
X195094360Y-99726895D01*
X195094360Y-99726895D02*
X194941979Y-99726895D01*
X194941979Y-99726895D02*
X194865789Y-99688800D01*
X194865789Y-99688800D02*
X194827694Y-99650704D01*
X194827694Y-99650704D02*
X194789598Y-99574514D01*
X194789598Y-99574514D02*
X194789598Y-99345942D01*
X194789598Y-99345942D02*
X194827694Y-99269752D01*
X194827694Y-99269752D02*
X194865789Y-99231657D01*
X194865789Y-99231657D02*
X194941979Y-99193561D01*
X194941979Y-99193561D02*
X195094360Y-99193561D01*
X195094360Y-99193561D02*
X195170551Y-99231657D01*
X195399122Y-99193561D02*
X195703884Y-99193561D01*
X195513408Y-98926895D02*
X195513408Y-99612609D01*
X195513408Y-99612609D02*
X195551503Y-99688800D01*
X195551503Y-99688800D02*
X195627693Y-99726895D01*
X195627693Y-99726895D02*
X195703884Y-99726895D01*
D12*
X154096904Y-98598923D02*
X154513571Y-99848923D01*
X154513571Y-99848923D02*
X154930237Y-98598923D01*
X155525476Y-99848923D02*
X155406428Y-99789400D01*
X155406428Y-99789400D02*
X155346905Y-99729876D01*
X155346905Y-99729876D02*
X155287381Y-99610828D01*
X155287381Y-99610828D02*
X155287381Y-99253685D01*
X155287381Y-99253685D02*
X155346905Y-99134638D01*
X155346905Y-99134638D02*
X155406428Y-99075114D01*
X155406428Y-99075114D02*
X155525476Y-99015590D01*
X155525476Y-99015590D02*
X155704047Y-99015590D01*
X155704047Y-99015590D02*
X155823095Y-99075114D01*
X155823095Y-99075114D02*
X155882619Y-99134638D01*
X155882619Y-99134638D02*
X155942143Y-99253685D01*
X155942143Y-99253685D02*
X155942143Y-99610828D01*
X155942143Y-99610828D02*
X155882619Y-99729876D01*
X155882619Y-99729876D02*
X155823095Y-99789400D01*
X155823095Y-99789400D02*
X155704047Y-99848923D01*
X155704047Y-99848923D02*
X155525476Y-99848923D01*
X156656428Y-99848923D02*
X156537380Y-99789400D01*
X156537380Y-99789400D02*
X156477857Y-99670352D01*
X156477857Y-99670352D02*
X156477857Y-98598923D01*
X156954047Y-99015590D02*
X157430238Y-99015590D01*
X157132619Y-98598923D02*
X157132619Y-99670352D01*
X157132619Y-99670352D02*
X157192142Y-99789400D01*
X157192142Y-99789400D02*
X157311190Y-99848923D01*
X157311190Y-99848923D02*
X157430238Y-99848923D01*
X158382619Y-99848923D02*
X158382619Y-99194161D01*
X158382619Y-99194161D02*
X158323095Y-99075114D01*
X158323095Y-99075114D02*
X158204047Y-99015590D01*
X158204047Y-99015590D02*
X157965952Y-99015590D01*
X157965952Y-99015590D02*
X157846905Y-99075114D01*
X158382619Y-99789400D02*
X158263571Y-99848923D01*
X158263571Y-99848923D02*
X157965952Y-99848923D01*
X157965952Y-99848923D02*
X157846905Y-99789400D01*
X157846905Y-99789400D02*
X157787381Y-99670352D01*
X157787381Y-99670352D02*
X157787381Y-99551304D01*
X157787381Y-99551304D02*
X157846905Y-99432257D01*
X157846905Y-99432257D02*
X157965952Y-99372733D01*
X157965952Y-99372733D02*
X158263571Y-99372733D01*
X158263571Y-99372733D02*
X158382619Y-99313209D01*
X159513571Y-99015590D02*
X159513571Y-100027495D01*
X159513571Y-100027495D02*
X159454047Y-100146542D01*
X159454047Y-100146542D02*
X159394523Y-100206066D01*
X159394523Y-100206066D02*
X159275476Y-100265590D01*
X159275476Y-100265590D02*
X159096904Y-100265590D01*
X159096904Y-100265590D02*
X158977857Y-100206066D01*
X159513571Y-99789400D02*
X159394523Y-99848923D01*
X159394523Y-99848923D02*
X159156428Y-99848923D01*
X159156428Y-99848923D02*
X159037380Y-99789400D01*
X159037380Y-99789400D02*
X158977857Y-99729876D01*
X158977857Y-99729876D02*
X158918333Y-99610828D01*
X158918333Y-99610828D02*
X158918333Y-99253685D01*
X158918333Y-99253685D02*
X158977857Y-99134638D01*
X158977857Y-99134638D02*
X159037380Y-99075114D01*
X159037380Y-99075114D02*
X159156428Y-99015590D01*
X159156428Y-99015590D02*
X159394523Y-99015590D01*
X159394523Y-99015590D02*
X159513571Y-99075114D01*
X160584999Y-99789400D02*
X160465951Y-99848923D01*
X160465951Y-99848923D02*
X160227856Y-99848923D01*
X160227856Y-99848923D02*
X160108809Y-99789400D01*
X160108809Y-99789400D02*
X160049285Y-99670352D01*
X160049285Y-99670352D02*
X160049285Y-99194161D01*
X160049285Y-99194161D02*
X160108809Y-99075114D01*
X160108809Y-99075114D02*
X160227856Y-99015590D01*
X160227856Y-99015590D02*
X160465951Y-99015590D01*
X160465951Y-99015590D02*
X160584999Y-99075114D01*
X160584999Y-99075114D02*
X160644523Y-99194161D01*
X160644523Y-99194161D02*
X160644523Y-99313209D01*
X160644523Y-99313209D02*
X160049285Y-99432257D01*
X162549285Y-99194161D02*
X162727857Y-99253685D01*
X162727857Y-99253685D02*
X162787380Y-99313209D01*
X162787380Y-99313209D02*
X162846904Y-99432257D01*
X162846904Y-99432257D02*
X162846904Y-99610828D01*
X162846904Y-99610828D02*
X162787380Y-99729876D01*
X162787380Y-99729876D02*
X162727857Y-99789400D01*
X162727857Y-99789400D02*
X162608809Y-99848923D01*
X162608809Y-99848923D02*
X162132619Y-99848923D01*
X162132619Y-99848923D02*
X162132619Y-98598923D01*
X162132619Y-98598923D02*
X162549285Y-98598923D01*
X162549285Y-98598923D02*
X162668333Y-98658447D01*
X162668333Y-98658447D02*
X162727857Y-98717971D01*
X162727857Y-98717971D02*
X162787380Y-98837019D01*
X162787380Y-98837019D02*
X162787380Y-98956066D01*
X162787380Y-98956066D02*
X162727857Y-99075114D01*
X162727857Y-99075114D02*
X162668333Y-99134638D01*
X162668333Y-99134638D02*
X162549285Y-99194161D01*
X162549285Y-99194161D02*
X162132619Y-99194161D01*
X163561190Y-99848923D02*
X163442142Y-99789400D01*
X163442142Y-99789400D02*
X163382619Y-99670352D01*
X163382619Y-99670352D02*
X163382619Y-98598923D01*
X164573095Y-99848923D02*
X164573095Y-99194161D01*
X164573095Y-99194161D02*
X164513571Y-99075114D01*
X164513571Y-99075114D02*
X164394523Y-99015590D01*
X164394523Y-99015590D02*
X164156428Y-99015590D01*
X164156428Y-99015590D02*
X164037381Y-99075114D01*
X164573095Y-99789400D02*
X164454047Y-99848923D01*
X164454047Y-99848923D02*
X164156428Y-99848923D01*
X164156428Y-99848923D02*
X164037381Y-99789400D01*
X164037381Y-99789400D02*
X163977857Y-99670352D01*
X163977857Y-99670352D02*
X163977857Y-99551304D01*
X163977857Y-99551304D02*
X164037381Y-99432257D01*
X164037381Y-99432257D02*
X164156428Y-99372733D01*
X164156428Y-99372733D02*
X164454047Y-99372733D01*
X164454047Y-99372733D02*
X164573095Y-99313209D01*
X165108809Y-99789400D02*
X165227856Y-99848923D01*
X165227856Y-99848923D02*
X165465952Y-99848923D01*
X165465952Y-99848923D02*
X165584999Y-99789400D01*
X165584999Y-99789400D02*
X165644523Y-99670352D01*
X165644523Y-99670352D02*
X165644523Y-99610828D01*
X165644523Y-99610828D02*
X165584999Y-99491780D01*
X165584999Y-99491780D02*
X165465952Y-99432257D01*
X165465952Y-99432257D02*
X165287380Y-99432257D01*
X165287380Y-99432257D02*
X165168333Y-99372733D01*
X165168333Y-99372733D02*
X165108809Y-99253685D01*
X165108809Y-99253685D02*
X165108809Y-99194161D01*
X165108809Y-99194161D02*
X165168333Y-99075114D01*
X165168333Y-99075114D02*
X165287380Y-99015590D01*
X165287380Y-99015590D02*
X165465952Y-99015590D01*
X165465952Y-99015590D02*
X165584999Y-99075114D01*
X166001666Y-99015590D02*
X166477857Y-99015590D01*
X166180238Y-98598923D02*
X166180238Y-99670352D01*
X166180238Y-99670352D02*
X166239761Y-99789400D01*
X166239761Y-99789400D02*
X166358809Y-99848923D01*
X166358809Y-99848923D02*
X166477857Y-99848923D01*
X167370714Y-99789400D02*
X167251666Y-99848923D01*
X167251666Y-99848923D02*
X167013571Y-99848923D01*
X167013571Y-99848923D02*
X166894524Y-99789400D01*
X166894524Y-99789400D02*
X166835000Y-99670352D01*
X166835000Y-99670352D02*
X166835000Y-99194161D01*
X166835000Y-99194161D02*
X166894524Y-99075114D01*
X166894524Y-99075114D02*
X167013571Y-99015590D01*
X167013571Y-99015590D02*
X167251666Y-99015590D01*
X167251666Y-99015590D02*
X167370714Y-99075114D01*
X167370714Y-99075114D02*
X167430238Y-99194161D01*
X167430238Y-99194161D02*
X167430238Y-99313209D01*
X167430238Y-99313209D02*
X166835000Y-99432257D01*
X167965953Y-99848923D02*
X167965953Y-99015590D01*
X167965953Y-99253685D02*
X168025476Y-99134638D01*
X168025476Y-99134638D02*
X168085000Y-99075114D01*
X168085000Y-99075114D02*
X168204048Y-99015590D01*
X168204048Y-99015590D02*
X168323095Y-99015590D01*
X156567143Y-102337614D02*
X156507620Y-102278090D01*
X156507620Y-102278090D02*
X156388572Y-102099519D01*
X156388572Y-102099519D02*
X156329048Y-101980471D01*
X156329048Y-101980471D02*
X156269524Y-101801900D01*
X156269524Y-101801900D02*
X156210001Y-101504280D01*
X156210001Y-101504280D02*
X156210001Y-101266185D01*
X156210001Y-101266185D02*
X156269524Y-100968566D01*
X156269524Y-100968566D02*
X156329048Y-100789995D01*
X156329048Y-100789995D02*
X156388572Y-100670947D01*
X156388572Y-100670947D02*
X156507620Y-100492376D01*
X156507620Y-100492376D02*
X156567143Y-100432852D01*
X157043334Y-101206661D02*
X157460000Y-101206661D01*
X157638572Y-101861423D02*
X157043334Y-101861423D01*
X157043334Y-101861423D02*
X157043334Y-100611423D01*
X157043334Y-100611423D02*
X157638572Y-100611423D01*
X158174286Y-101028090D02*
X158174286Y-101861423D01*
X158174286Y-101147138D02*
X158233809Y-101087614D01*
X158233809Y-101087614D02*
X158352857Y-101028090D01*
X158352857Y-101028090D02*
X158531428Y-101028090D01*
X158531428Y-101028090D02*
X158650476Y-101087614D01*
X158650476Y-101087614D02*
X158710000Y-101206661D01*
X158710000Y-101206661D02*
X158710000Y-101861423D01*
X159305238Y-101861423D02*
X159305238Y-100611423D01*
X159840952Y-101861423D02*
X159840952Y-101206661D01*
X159840952Y-101206661D02*
X159781428Y-101087614D01*
X159781428Y-101087614D02*
X159662380Y-101028090D01*
X159662380Y-101028090D02*
X159483809Y-101028090D01*
X159483809Y-101028090D02*
X159364761Y-101087614D01*
X159364761Y-101087614D02*
X159305238Y-101147138D01*
X160971904Y-101861423D02*
X160971904Y-101206661D01*
X160971904Y-101206661D02*
X160912380Y-101087614D01*
X160912380Y-101087614D02*
X160793332Y-101028090D01*
X160793332Y-101028090D02*
X160555237Y-101028090D01*
X160555237Y-101028090D02*
X160436190Y-101087614D01*
X160971904Y-101801900D02*
X160852856Y-101861423D01*
X160852856Y-101861423D02*
X160555237Y-101861423D01*
X160555237Y-101861423D02*
X160436190Y-101801900D01*
X160436190Y-101801900D02*
X160376666Y-101682852D01*
X160376666Y-101682852D02*
X160376666Y-101563804D01*
X160376666Y-101563804D02*
X160436190Y-101444757D01*
X160436190Y-101444757D02*
X160555237Y-101385233D01*
X160555237Y-101385233D02*
X160852856Y-101385233D01*
X160852856Y-101385233D02*
X160971904Y-101325709D01*
X161567142Y-101028090D02*
X161567142Y-101861423D01*
X161567142Y-101147138D02*
X161626665Y-101087614D01*
X161626665Y-101087614D02*
X161745713Y-101028090D01*
X161745713Y-101028090D02*
X161924284Y-101028090D01*
X161924284Y-101028090D02*
X162043332Y-101087614D01*
X162043332Y-101087614D02*
X162102856Y-101206661D01*
X162102856Y-101206661D02*
X162102856Y-101861423D01*
X163233808Y-101801900D02*
X163114760Y-101861423D01*
X163114760Y-101861423D02*
X162876665Y-101861423D01*
X162876665Y-101861423D02*
X162757617Y-101801900D01*
X162757617Y-101801900D02*
X162698094Y-101742376D01*
X162698094Y-101742376D02*
X162638570Y-101623328D01*
X162638570Y-101623328D02*
X162638570Y-101266185D01*
X162638570Y-101266185D02*
X162698094Y-101147138D01*
X162698094Y-101147138D02*
X162757617Y-101087614D01*
X162757617Y-101087614D02*
X162876665Y-101028090D01*
X162876665Y-101028090D02*
X163114760Y-101028090D01*
X163114760Y-101028090D02*
X163233808Y-101087614D01*
X164245713Y-101801900D02*
X164126665Y-101861423D01*
X164126665Y-101861423D02*
X163888570Y-101861423D01*
X163888570Y-101861423D02*
X163769523Y-101801900D01*
X163769523Y-101801900D02*
X163709999Y-101682852D01*
X163709999Y-101682852D02*
X163709999Y-101206661D01*
X163709999Y-101206661D02*
X163769523Y-101087614D01*
X163769523Y-101087614D02*
X163888570Y-101028090D01*
X163888570Y-101028090D02*
X164126665Y-101028090D01*
X164126665Y-101028090D02*
X164245713Y-101087614D01*
X164245713Y-101087614D02*
X164305237Y-101206661D01*
X164305237Y-101206661D02*
X164305237Y-101325709D01*
X164305237Y-101325709D02*
X163709999Y-101444757D01*
X165376666Y-101861423D02*
X165376666Y-100611423D01*
X165376666Y-101801900D02*
X165257618Y-101861423D01*
X165257618Y-101861423D02*
X165019523Y-101861423D01*
X165019523Y-101861423D02*
X164900475Y-101801900D01*
X164900475Y-101801900D02*
X164840952Y-101742376D01*
X164840952Y-101742376D02*
X164781428Y-101623328D01*
X164781428Y-101623328D02*
X164781428Y-101266185D01*
X164781428Y-101266185D02*
X164840952Y-101147138D01*
X164840952Y-101147138D02*
X164900475Y-101087614D01*
X164900475Y-101087614D02*
X165019523Y-101028090D01*
X165019523Y-101028090D02*
X165257618Y-101028090D01*
X165257618Y-101028090D02*
X165376666Y-101087614D01*
X165852856Y-102337614D02*
X165912380Y-102278090D01*
X165912380Y-102278090D02*
X166031427Y-102099519D01*
X166031427Y-102099519D02*
X166090951Y-101980471D01*
X166090951Y-101980471D02*
X166150475Y-101801900D01*
X166150475Y-101801900D02*
X166209999Y-101504280D01*
X166209999Y-101504280D02*
X166209999Y-101266185D01*
X166209999Y-101266185D02*
X166150475Y-100968566D01*
X166150475Y-100968566D02*
X166090951Y-100789995D01*
X166090951Y-100789995D02*
X166031427Y-100670947D01*
X166031427Y-100670947D02*
X165912380Y-100492376D01*
X165912380Y-100492376D02*
X165852856Y-100432852D01*
D13*
X184448809Y-109954295D02*
X184448809Y-109154295D01*
X184448809Y-109154295D02*
X184753571Y-109154295D01*
X184753571Y-109154295D02*
X184829761Y-109192390D01*
X184829761Y-109192390D02*
X184867856Y-109230485D01*
X184867856Y-109230485D02*
X184905952Y-109306676D01*
X184905952Y-109306676D02*
X184905952Y-109420961D01*
X184905952Y-109420961D02*
X184867856Y-109497152D01*
X184867856Y-109497152D02*
X184829761Y-109535247D01*
X184829761Y-109535247D02*
X184753571Y-109573342D01*
X184753571Y-109573342D02*
X184448809Y-109573342D01*
X185248809Y-109954295D02*
X185248809Y-109420961D01*
X185248809Y-109573342D02*
X185286904Y-109497152D01*
X185286904Y-109497152D02*
X185324999Y-109459057D01*
X185324999Y-109459057D02*
X185401190Y-109420961D01*
X185401190Y-109420961D02*
X185477380Y-109420961D01*
X185858332Y-109954295D02*
X185782142Y-109916200D01*
X185782142Y-109916200D02*
X185744047Y-109878104D01*
X185744047Y-109878104D02*
X185705951Y-109801914D01*
X185705951Y-109801914D02*
X185705951Y-109573342D01*
X185705951Y-109573342D02*
X185744047Y-109497152D01*
X185744047Y-109497152D02*
X185782142Y-109459057D01*
X185782142Y-109459057D02*
X185858332Y-109420961D01*
X185858332Y-109420961D02*
X185972618Y-109420961D01*
X185972618Y-109420961D02*
X186048809Y-109459057D01*
X186048809Y-109459057D02*
X186086904Y-109497152D01*
X186086904Y-109497152D02*
X186124999Y-109573342D01*
X186124999Y-109573342D02*
X186124999Y-109801914D01*
X186124999Y-109801914D02*
X186086904Y-109878104D01*
X186086904Y-109878104D02*
X186048809Y-109916200D01*
X186048809Y-109916200D02*
X185972618Y-109954295D01*
X185972618Y-109954295D02*
X185858332Y-109954295D01*
X186353571Y-109420961D02*
X186658333Y-109420961D01*
X186467857Y-109154295D02*
X186467857Y-109840009D01*
X186467857Y-109840009D02*
X186505952Y-109916200D01*
X186505952Y-109916200D02*
X186582142Y-109954295D01*
X186582142Y-109954295D02*
X186658333Y-109954295D01*
X187229762Y-109916200D02*
X187153571Y-109954295D01*
X187153571Y-109954295D02*
X187001190Y-109954295D01*
X187001190Y-109954295D02*
X186925000Y-109916200D01*
X186925000Y-109916200D02*
X186886904Y-109840009D01*
X186886904Y-109840009D02*
X186886904Y-109535247D01*
X186886904Y-109535247D02*
X186925000Y-109459057D01*
X186925000Y-109459057D02*
X187001190Y-109420961D01*
X187001190Y-109420961D02*
X187153571Y-109420961D01*
X187153571Y-109420961D02*
X187229762Y-109459057D01*
X187229762Y-109459057D02*
X187267857Y-109535247D01*
X187267857Y-109535247D02*
X187267857Y-109611438D01*
X187267857Y-109611438D02*
X186886904Y-109687628D01*
X187953571Y-109916200D02*
X187877380Y-109954295D01*
X187877380Y-109954295D02*
X187724999Y-109954295D01*
X187724999Y-109954295D02*
X187648809Y-109916200D01*
X187648809Y-109916200D02*
X187610714Y-109878104D01*
X187610714Y-109878104D02*
X187572618Y-109801914D01*
X187572618Y-109801914D02*
X187572618Y-109573342D01*
X187572618Y-109573342D02*
X187610714Y-109497152D01*
X187610714Y-109497152D02*
X187648809Y-109459057D01*
X187648809Y-109459057D02*
X187724999Y-109420961D01*
X187724999Y-109420961D02*
X187877380Y-109420961D01*
X187877380Y-109420961D02*
X187953571Y-109459057D01*
X188182142Y-109420961D02*
X188486904Y-109420961D01*
X188296428Y-109154295D02*
X188296428Y-109840009D01*
X188296428Y-109840009D02*
X188334523Y-109916200D01*
X188334523Y-109916200D02*
X188410713Y-109954295D01*
X188410713Y-109954295D02*
X188486904Y-109954295D01*
X188753571Y-109954295D02*
X188753571Y-109420961D01*
X188753571Y-109154295D02*
X188715475Y-109192390D01*
X188715475Y-109192390D02*
X188753571Y-109230485D01*
X188753571Y-109230485D02*
X188791666Y-109192390D01*
X188791666Y-109192390D02*
X188753571Y-109154295D01*
X188753571Y-109154295D02*
X188753571Y-109230485D01*
X189248808Y-109954295D02*
X189172618Y-109916200D01*
X189172618Y-109916200D02*
X189134523Y-109878104D01*
X189134523Y-109878104D02*
X189096427Y-109801914D01*
X189096427Y-109801914D02*
X189096427Y-109573342D01*
X189096427Y-109573342D02*
X189134523Y-109497152D01*
X189134523Y-109497152D02*
X189172618Y-109459057D01*
X189172618Y-109459057D02*
X189248808Y-109420961D01*
X189248808Y-109420961D02*
X189363094Y-109420961D01*
X189363094Y-109420961D02*
X189439285Y-109459057D01*
X189439285Y-109459057D02*
X189477380Y-109497152D01*
X189477380Y-109497152D02*
X189515475Y-109573342D01*
X189515475Y-109573342D02*
X189515475Y-109801914D01*
X189515475Y-109801914D02*
X189477380Y-109878104D01*
X189477380Y-109878104D02*
X189439285Y-109916200D01*
X189439285Y-109916200D02*
X189363094Y-109954295D01*
X189363094Y-109954295D02*
X189248808Y-109954295D01*
X189858333Y-109420961D02*
X189858333Y-109954295D01*
X189858333Y-109497152D02*
X189896428Y-109459057D01*
X189896428Y-109459057D02*
X189972618Y-109420961D01*
X189972618Y-109420961D02*
X190086904Y-109420961D01*
X190086904Y-109420961D02*
X190163095Y-109459057D01*
X190163095Y-109459057D02*
X190201190Y-109535247D01*
X190201190Y-109535247D02*
X190201190Y-109954295D01*
X185534524Y-111242295D02*
X185534524Y-110442295D01*
X185534524Y-110442295D02*
X185725000Y-110442295D01*
X185725000Y-110442295D02*
X185839286Y-110480390D01*
X185839286Y-110480390D02*
X185915476Y-110556580D01*
X185915476Y-110556580D02*
X185953571Y-110632771D01*
X185953571Y-110632771D02*
X185991667Y-110785152D01*
X185991667Y-110785152D02*
X185991667Y-110899438D01*
X185991667Y-110899438D02*
X185953571Y-111051819D01*
X185953571Y-111051819D02*
X185915476Y-111128009D01*
X185915476Y-111128009D02*
X185839286Y-111204200D01*
X185839286Y-111204200D02*
X185725000Y-111242295D01*
X185725000Y-111242295D02*
X185534524Y-111242295D01*
X186334524Y-111242295D02*
X186334524Y-110708961D01*
X186334524Y-110442295D02*
X186296428Y-110480390D01*
X186296428Y-110480390D02*
X186334524Y-110518485D01*
X186334524Y-110518485D02*
X186372619Y-110480390D01*
X186372619Y-110480390D02*
X186334524Y-110442295D01*
X186334524Y-110442295D02*
X186334524Y-110518485D01*
X186829761Y-111242295D02*
X186753571Y-111204200D01*
X186753571Y-111204200D02*
X186715476Y-111166104D01*
X186715476Y-111166104D02*
X186677380Y-111089914D01*
X186677380Y-111089914D02*
X186677380Y-110861342D01*
X186677380Y-110861342D02*
X186715476Y-110785152D01*
X186715476Y-110785152D02*
X186753571Y-110747057D01*
X186753571Y-110747057D02*
X186829761Y-110708961D01*
X186829761Y-110708961D02*
X186944047Y-110708961D01*
X186944047Y-110708961D02*
X187020238Y-110747057D01*
X187020238Y-110747057D02*
X187058333Y-110785152D01*
X187058333Y-110785152D02*
X187096428Y-110861342D01*
X187096428Y-110861342D02*
X187096428Y-111089914D01*
X187096428Y-111089914D02*
X187058333Y-111166104D01*
X187058333Y-111166104D02*
X187020238Y-111204200D01*
X187020238Y-111204200D02*
X186944047Y-111242295D01*
X186944047Y-111242295D02*
X186829761Y-111242295D01*
X187782143Y-111242295D02*
X187782143Y-110442295D01*
X187782143Y-111204200D02*
X187705952Y-111242295D01*
X187705952Y-111242295D02*
X187553571Y-111242295D01*
X187553571Y-111242295D02*
X187477381Y-111204200D01*
X187477381Y-111204200D02*
X187439286Y-111166104D01*
X187439286Y-111166104D02*
X187401190Y-111089914D01*
X187401190Y-111089914D02*
X187401190Y-110861342D01*
X187401190Y-110861342D02*
X187439286Y-110785152D01*
X187439286Y-110785152D02*
X187477381Y-110747057D01*
X187477381Y-110747057D02*
X187553571Y-110708961D01*
X187553571Y-110708961D02*
X187705952Y-110708961D01*
X187705952Y-110708961D02*
X187782143Y-110747057D01*
X188467858Y-111204200D02*
X188391667Y-111242295D01*
X188391667Y-111242295D02*
X188239286Y-111242295D01*
X188239286Y-111242295D02*
X188163096Y-111204200D01*
X188163096Y-111204200D02*
X188125000Y-111128009D01*
X188125000Y-111128009D02*
X188125000Y-110823247D01*
X188125000Y-110823247D02*
X188163096Y-110747057D01*
X188163096Y-110747057D02*
X188239286Y-110708961D01*
X188239286Y-110708961D02*
X188391667Y-110708961D01*
X188391667Y-110708961D02*
X188467858Y-110747057D01*
X188467858Y-110747057D02*
X188505953Y-110823247D01*
X188505953Y-110823247D02*
X188505953Y-110899438D01*
X188505953Y-110899438D02*
X188125000Y-110975628D01*
X188810714Y-111204200D02*
X188886905Y-111242295D01*
X188886905Y-111242295D02*
X189039286Y-111242295D01*
X189039286Y-111242295D02*
X189115476Y-111204200D01*
X189115476Y-111204200D02*
X189153572Y-111128009D01*
X189153572Y-111128009D02*
X189153572Y-111089914D01*
X189153572Y-111089914D02*
X189115476Y-111013723D01*
X189115476Y-111013723D02*
X189039286Y-110975628D01*
X189039286Y-110975628D02*
X188925000Y-110975628D01*
X188925000Y-110975628D02*
X188848810Y-110937533D01*
X188848810Y-110937533D02*
X188810714Y-110861342D01*
X188810714Y-110861342D02*
X188810714Y-110823247D01*
X188810714Y-110823247D02*
X188848810Y-110747057D01*
X188848810Y-110747057D02*
X188925000Y-110708961D01*
X188925000Y-110708961D02*
X189039286Y-110708961D01*
X189039286Y-110708961D02*
X189115476Y-110747057D01*
X149482505Y-102537419D02*
X149482505Y-101537419D01*
X149482505Y-101537419D02*
X149720600Y-101537419D01*
X149720600Y-101537419D02*
X149863457Y-101585038D01*
X149863457Y-101585038D02*
X149958695Y-101680276D01*
X149958695Y-101680276D02*
X150006314Y-101775514D01*
X150006314Y-101775514D02*
X150053933Y-101965990D01*
X150053933Y-101965990D02*
X150053933Y-102108847D01*
X150053933Y-102108847D02*
X150006314Y-102299323D01*
X150006314Y-102299323D02*
X149958695Y-102394561D01*
X149958695Y-102394561D02*
X149863457Y-102489800D01*
X149863457Y-102489800D02*
X149720600Y-102537419D01*
X149720600Y-102537419D02*
X149482505Y-102537419D01*
X151006314Y-102537419D02*
X150434886Y-102537419D01*
X150720600Y-102537419D02*
X150720600Y-101537419D01*
X150720600Y-101537419D02*
X150625362Y-101680276D01*
X150625362Y-101680276D02*
X150530124Y-101775514D01*
X150530124Y-101775514D02*
X150434886Y-101823133D01*
X148955886Y-93393466D02*
X149717791Y-93393466D01*
X149336838Y-93774419D02*
X149336838Y-93012514D01*
X150670171Y-92774419D02*
X150193981Y-92774419D01*
X150193981Y-92774419D02*
X150146362Y-93250609D01*
X150146362Y-93250609D02*
X150193981Y-93202990D01*
X150193981Y-93202990D02*
X150289219Y-93155371D01*
X150289219Y-93155371D02*
X150527314Y-93155371D01*
X150527314Y-93155371D02*
X150622552Y-93202990D01*
X150622552Y-93202990D02*
X150670171Y-93250609D01*
X150670171Y-93250609D02*
X150717790Y-93345847D01*
X150717790Y-93345847D02*
X150717790Y-93583942D01*
X150717790Y-93583942D02*
X150670171Y-93679180D01*
X150670171Y-93679180D02*
X150622552Y-93726800D01*
X150622552Y-93726800D02*
X150527314Y-93774419D01*
X150527314Y-93774419D02*
X150289219Y-93774419D01*
X150289219Y-93774419D02*
X150193981Y-93726800D01*
X150193981Y-93726800D02*
X150146362Y-93679180D01*
X151003505Y-92774419D02*
X151336838Y-93774419D01*
X151336838Y-93774419D02*
X151670171Y-92774419D01*
X160234333Y-110012819D02*
X159901000Y-109536628D01*
X159662905Y-110012819D02*
X159662905Y-109012819D01*
X159662905Y-109012819D02*
X160043857Y-109012819D01*
X160043857Y-109012819D02*
X160139095Y-109060438D01*
X160139095Y-109060438D02*
X160186714Y-109108057D01*
X160186714Y-109108057D02*
X160234333Y-109203295D01*
X160234333Y-109203295D02*
X160234333Y-109346152D01*
X160234333Y-109346152D02*
X160186714Y-109441390D01*
X160186714Y-109441390D02*
X160139095Y-109489009D01*
X160139095Y-109489009D02*
X160043857Y-109536628D01*
X160043857Y-109536628D02*
X159662905Y-109536628D01*
X161186714Y-110012819D02*
X160615286Y-110012819D01*
X160901000Y-110012819D02*
X160901000Y-109012819D01*
X160901000Y-109012819D02*
X160805762Y-109155676D01*
X160805762Y-109155676D02*
X160710524Y-109250914D01*
X160710524Y-109250914D02*
X160615286Y-109298533D01*
X158615286Y-104272819D02*
X159234333Y-104272819D01*
X159234333Y-104272819D02*
X158901000Y-104653771D01*
X158901000Y-104653771D02*
X159043857Y-104653771D01*
X159043857Y-104653771D02*
X159139095Y-104701390D01*
X159139095Y-104701390D02*
X159186714Y-104749009D01*
X159186714Y-104749009D02*
X159234333Y-104844247D01*
X159234333Y-104844247D02*
X159234333Y-105082342D01*
X159234333Y-105082342D02*
X159186714Y-105177580D01*
X159186714Y-105177580D02*
X159139095Y-105225200D01*
X159139095Y-105225200D02*
X159043857Y-105272819D01*
X159043857Y-105272819D02*
X158758143Y-105272819D01*
X158758143Y-105272819D02*
X158662905Y-105225200D01*
X158662905Y-105225200D02*
X158615286Y-105177580D01*
X159567667Y-104272819D02*
X160186714Y-104272819D01*
X160186714Y-104272819D02*
X159853381Y-104653771D01*
X159853381Y-104653771D02*
X159996238Y-104653771D01*
X159996238Y-104653771D02*
X160091476Y-104701390D01*
X160091476Y-104701390D02*
X160139095Y-104749009D01*
X160139095Y-104749009D02*
X160186714Y-104844247D01*
X160186714Y-104844247D02*
X160186714Y-105082342D01*
X160186714Y-105082342D02*
X160139095Y-105177580D01*
X160139095Y-105177580D02*
X160091476Y-105225200D01*
X160091476Y-105225200D02*
X159996238Y-105272819D01*
X159996238Y-105272819D02*
X159710524Y-105272819D01*
X159710524Y-105272819D02*
X159615286Y-105225200D01*
X159615286Y-105225200D02*
X159567667Y-105177580D01*
X160805762Y-104272819D02*
X160901000Y-104272819D01*
X160901000Y-104272819D02*
X160996238Y-104320438D01*
X160996238Y-104320438D02*
X161043857Y-104368057D01*
X161043857Y-104368057D02*
X161091476Y-104463295D01*
X161091476Y-104463295D02*
X161139095Y-104653771D01*
X161139095Y-104653771D02*
X161139095Y-104891866D01*
X161139095Y-104891866D02*
X161091476Y-105082342D01*
X161091476Y-105082342D02*
X161043857Y-105177580D01*
X161043857Y-105177580D02*
X160996238Y-105225200D01*
X160996238Y-105225200D02*
X160901000Y-105272819D01*
X160901000Y-105272819D02*
X160805762Y-105272819D01*
X160805762Y-105272819D02*
X160710524Y-105225200D01*
X160710524Y-105225200D02*
X160662905Y-105177580D01*
X160662905Y-105177580D02*
X160615286Y-105082342D01*
X160615286Y-105082342D02*
X160567667Y-104891866D01*
X160567667Y-104891866D02*
X160567667Y-104653771D01*
X160567667Y-104653771D02*
X160615286Y-104463295D01*
X160615286Y-104463295D02*
X160662905Y-104368057D01*
X160662905Y-104368057D02*
X160710524Y-104320438D01*
X160710524Y-104320438D02*
X160805762Y-104272819D01*
X162139095Y-105272819D02*
X161805762Y-104796628D01*
X161567667Y-105272819D02*
X161567667Y-104272819D01*
X161567667Y-104272819D02*
X161948619Y-104272819D01*
X161948619Y-104272819D02*
X162043857Y-104320438D01*
X162043857Y-104320438D02*
X162091476Y-104368057D01*
X162091476Y-104368057D02*
X162139095Y-104463295D01*
X162139095Y-104463295D02*
X162139095Y-104606152D01*
X162139095Y-104606152D02*
X162091476Y-104701390D01*
X162091476Y-104701390D02*
X162043857Y-104749009D01*
X162043857Y-104749009D02*
X161948619Y-104796628D01*
X161948619Y-104796628D02*
X161567667Y-104796628D01*
X179394476Y-103125819D02*
X179394476Y-102125819D01*
X179394476Y-102125819D02*
X179727809Y-102840104D01*
X179727809Y-102840104D02*
X180061142Y-102125819D01*
X180061142Y-102125819D02*
X180061142Y-103125819D01*
X181108761Y-103030580D02*
X181061142Y-103078200D01*
X181061142Y-103078200D02*
X180918285Y-103125819D01*
X180918285Y-103125819D02*
X180823047Y-103125819D01*
X180823047Y-103125819D02*
X180680190Y-103078200D01*
X180680190Y-103078200D02*
X180584952Y-102982961D01*
X180584952Y-102982961D02*
X180537333Y-102887723D01*
X180537333Y-102887723D02*
X180489714Y-102697247D01*
X180489714Y-102697247D02*
X180489714Y-102554390D01*
X180489714Y-102554390D02*
X180537333Y-102363914D01*
X180537333Y-102363914D02*
X180584952Y-102268676D01*
X180584952Y-102268676D02*
X180680190Y-102173438D01*
X180680190Y-102173438D02*
X180823047Y-102125819D01*
X180823047Y-102125819D02*
X180918285Y-102125819D01*
X180918285Y-102125819D02*
X181061142Y-102173438D01*
X181061142Y-102173438D02*
X181108761Y-102221057D01*
X181442095Y-102125819D02*
X182108761Y-102125819D01*
X182108761Y-102125819D02*
X181680190Y-103125819D01*
X182537333Y-103125819D02*
X182727809Y-103125819D01*
X182727809Y-103125819D02*
X182823047Y-103078200D01*
X182823047Y-103078200D02*
X182870666Y-103030580D01*
X182870666Y-103030580D02*
X182965904Y-102887723D01*
X182965904Y-102887723D02*
X183013523Y-102697247D01*
X183013523Y-102697247D02*
X183013523Y-102316295D01*
X183013523Y-102316295D02*
X182965904Y-102221057D01*
X182965904Y-102221057D02*
X182918285Y-102173438D01*
X182918285Y-102173438D02*
X182823047Y-102125819D01*
X182823047Y-102125819D02*
X182632571Y-102125819D01*
X182632571Y-102125819D02*
X182537333Y-102173438D01*
X182537333Y-102173438D02*
X182489714Y-102221057D01*
X182489714Y-102221057D02*
X182442095Y-102316295D01*
X182442095Y-102316295D02*
X182442095Y-102554390D01*
X182442095Y-102554390D02*
X182489714Y-102649628D01*
X182489714Y-102649628D02*
X182537333Y-102697247D01*
X182537333Y-102697247D02*
X182632571Y-102744866D01*
X182632571Y-102744866D02*
X182823047Y-102744866D01*
X182823047Y-102744866D02*
X182918285Y-102697247D01*
X182918285Y-102697247D02*
X182965904Y-102649628D01*
X182965904Y-102649628D02*
X183013523Y-102554390D01*
X183442095Y-103125819D02*
X183442095Y-102125819D01*
X183442095Y-102125819D02*
X183775428Y-102840104D01*
X183775428Y-102840104D02*
X184108761Y-102125819D01*
X184108761Y-102125819D02*
X184108761Y-103125819D01*
X184775428Y-102125819D02*
X184870666Y-102125819D01*
X184870666Y-102125819D02*
X184965904Y-102173438D01*
X184965904Y-102173438D02*
X185013523Y-102221057D01*
X185013523Y-102221057D02*
X185061142Y-102316295D01*
X185061142Y-102316295D02*
X185108761Y-102506771D01*
X185108761Y-102506771D02*
X185108761Y-102744866D01*
X185108761Y-102744866D02*
X185061142Y-102935342D01*
X185061142Y-102935342D02*
X185013523Y-103030580D01*
X185013523Y-103030580D02*
X184965904Y-103078200D01*
X184965904Y-103078200D02*
X184870666Y-103125819D01*
X184870666Y-103125819D02*
X184775428Y-103125819D01*
X184775428Y-103125819D02*
X184680190Y-103078200D01*
X184680190Y-103078200D02*
X184632571Y-103030580D01*
X184632571Y-103030580D02*
X184584952Y-102935342D01*
X184584952Y-102935342D02*
X184537333Y-102744866D01*
X184537333Y-102744866D02*
X184537333Y-102506771D01*
X184537333Y-102506771D02*
X184584952Y-102316295D01*
X184584952Y-102316295D02*
X184632571Y-102221057D01*
X184632571Y-102221057D02*
X184680190Y-102173438D01*
X184680190Y-102173438D02*
X184775428Y-102125819D01*
X186013523Y-102125819D02*
X185537333Y-102125819D01*
X185537333Y-102125819D02*
X185489714Y-102602009D01*
X185489714Y-102602009D02*
X185537333Y-102554390D01*
X185537333Y-102554390D02*
X185632571Y-102506771D01*
X185632571Y-102506771D02*
X185870666Y-102506771D01*
X185870666Y-102506771D02*
X185965904Y-102554390D01*
X185965904Y-102554390D02*
X186013523Y-102602009D01*
X186013523Y-102602009D02*
X186061142Y-102697247D01*
X186061142Y-102697247D02*
X186061142Y-102935342D01*
X186061142Y-102935342D02*
X186013523Y-103030580D01*
X186013523Y-103030580D02*
X185965904Y-103078200D01*
X185965904Y-103078200D02*
X185870666Y-103125819D01*
X185870666Y-103125819D02*
X185632571Y-103125819D01*
X185632571Y-103125819D02*
X185537333Y-103078200D01*
X185537333Y-103078200D02*
X185489714Y-103030580D01*
X123277333Y-110012819D02*
X122944000Y-109536628D01*
X122705905Y-110012819D02*
X122705905Y-109012819D01*
X122705905Y-109012819D02*
X123086857Y-109012819D01*
X123086857Y-109012819D02*
X123182095Y-109060438D01*
X123182095Y-109060438D02*
X123229714Y-109108057D01*
X123229714Y-109108057D02*
X123277333Y-109203295D01*
X123277333Y-109203295D02*
X123277333Y-109346152D01*
X123277333Y-109346152D02*
X123229714Y-109441390D01*
X123229714Y-109441390D02*
X123182095Y-109489009D01*
X123182095Y-109489009D02*
X123086857Y-109536628D01*
X123086857Y-109536628D02*
X122705905Y-109536628D01*
X124134476Y-109346152D02*
X124134476Y-110012819D01*
X123896381Y-108965200D02*
X123658286Y-109679485D01*
X123658286Y-109679485D02*
X124277333Y-109679485D01*
X123229714Y-105272819D02*
X122658286Y-105272819D01*
X122944000Y-105272819D02*
X122944000Y-104272819D01*
X122944000Y-104272819D02*
X122848762Y-104415676D01*
X122848762Y-104415676D02*
X122753524Y-104510914D01*
X122753524Y-104510914D02*
X122658286Y-104558533D01*
X123658286Y-105272819D02*
X123658286Y-104272819D01*
X124229714Y-105272819D02*
X123801143Y-104701390D01*
X124229714Y-104272819D02*
X123658286Y-104844247D01*
X135596333Y-110012819D02*
X135263000Y-109536628D01*
X135024905Y-110012819D02*
X135024905Y-109012819D01*
X135024905Y-109012819D02*
X135405857Y-109012819D01*
X135405857Y-109012819D02*
X135501095Y-109060438D01*
X135501095Y-109060438D02*
X135548714Y-109108057D01*
X135548714Y-109108057D02*
X135596333Y-109203295D01*
X135596333Y-109203295D02*
X135596333Y-109346152D01*
X135596333Y-109346152D02*
X135548714Y-109441390D01*
X135548714Y-109441390D02*
X135501095Y-109489009D01*
X135501095Y-109489009D02*
X135405857Y-109536628D01*
X135405857Y-109536628D02*
X135024905Y-109536628D01*
X135929667Y-109012819D02*
X136548714Y-109012819D01*
X136548714Y-109012819D02*
X136215381Y-109393771D01*
X136215381Y-109393771D02*
X136358238Y-109393771D01*
X136358238Y-109393771D02*
X136453476Y-109441390D01*
X136453476Y-109441390D02*
X136501095Y-109489009D01*
X136501095Y-109489009D02*
X136548714Y-109584247D01*
X136548714Y-109584247D02*
X136548714Y-109822342D01*
X136548714Y-109822342D02*
X136501095Y-109917580D01*
X136501095Y-109917580D02*
X136453476Y-109965200D01*
X136453476Y-109965200D02*
X136358238Y-110012819D01*
X136358238Y-110012819D02*
X136072524Y-110012819D01*
X136072524Y-110012819D02*
X135977286Y-109965200D01*
X135977286Y-109965200D02*
X135929667Y-109917580D01*
X134004286Y-104254819D02*
X134623333Y-104254819D01*
X134623333Y-104254819D02*
X134290000Y-104635771D01*
X134290000Y-104635771D02*
X134432857Y-104635771D01*
X134432857Y-104635771D02*
X134528095Y-104683390D01*
X134528095Y-104683390D02*
X134575714Y-104731009D01*
X134575714Y-104731009D02*
X134623333Y-104826247D01*
X134623333Y-104826247D02*
X134623333Y-105064342D01*
X134623333Y-105064342D02*
X134575714Y-105159580D01*
X134575714Y-105159580D02*
X134528095Y-105207200D01*
X134528095Y-105207200D02*
X134432857Y-105254819D01*
X134432857Y-105254819D02*
X134147143Y-105254819D01*
X134147143Y-105254819D02*
X134051905Y-105207200D01*
X134051905Y-105207200D02*
X134004286Y-105159580D01*
X134956667Y-104254819D02*
X135575714Y-104254819D01*
X135575714Y-104254819D02*
X135242381Y-104635771D01*
X135242381Y-104635771D02*
X135385238Y-104635771D01*
X135385238Y-104635771D02*
X135480476Y-104683390D01*
X135480476Y-104683390D02*
X135528095Y-104731009D01*
X135528095Y-104731009D02*
X135575714Y-104826247D01*
X135575714Y-104826247D02*
X135575714Y-105064342D01*
X135575714Y-105064342D02*
X135528095Y-105159580D01*
X135528095Y-105159580D02*
X135480476Y-105207200D01*
X135480476Y-105207200D02*
X135385238Y-105254819D01*
X135385238Y-105254819D02*
X135099524Y-105254819D01*
X135099524Y-105254819D02*
X135004286Y-105207200D01*
X135004286Y-105207200D02*
X134956667Y-105159580D01*
X136194762Y-104254819D02*
X136290000Y-104254819D01*
X136290000Y-104254819D02*
X136385238Y-104302438D01*
X136385238Y-104302438D02*
X136432857Y-104350057D01*
X136432857Y-104350057D02*
X136480476Y-104445295D01*
X136480476Y-104445295D02*
X136528095Y-104635771D01*
X136528095Y-104635771D02*
X136528095Y-104873866D01*
X136528095Y-104873866D02*
X136480476Y-105064342D01*
X136480476Y-105064342D02*
X136432857Y-105159580D01*
X136432857Y-105159580D02*
X136385238Y-105207200D01*
X136385238Y-105207200D02*
X136290000Y-105254819D01*
X136290000Y-105254819D02*
X136194762Y-105254819D01*
X136194762Y-105254819D02*
X136099524Y-105207200D01*
X136099524Y-105207200D02*
X136051905Y-105159580D01*
X136051905Y-105159580D02*
X136004286Y-105064342D01*
X136004286Y-105064342D02*
X135956667Y-104873866D01*
X135956667Y-104873866D02*
X135956667Y-104635771D01*
X135956667Y-104635771D02*
X136004286Y-104445295D01*
X136004286Y-104445295D02*
X136051905Y-104350057D01*
X136051905Y-104350057D02*
X136099524Y-104302438D01*
X136099524Y-104302438D02*
X136194762Y-104254819D01*
X137528095Y-105254819D02*
X137194762Y-104778628D01*
X136956667Y-105254819D02*
X136956667Y-104254819D01*
X136956667Y-104254819D02*
X137337619Y-104254819D01*
X137337619Y-104254819D02*
X137432857Y-104302438D01*
X137432857Y-104302438D02*
X137480476Y-104350057D01*
X137480476Y-104350057D02*
X137528095Y-104445295D01*
X137528095Y-104445295D02*
X137528095Y-104588152D01*
X137528095Y-104588152D02*
X137480476Y-104683390D01*
X137480476Y-104683390D02*
X137432857Y-104731009D01*
X137432857Y-104731009D02*
X137337619Y-104778628D01*
X137337619Y-104778628D02*
X136956667Y-104778628D01*
X142573705Y-102537419D02*
X142573705Y-101537419D01*
X142573705Y-101537419D02*
X142811800Y-101537419D01*
X142811800Y-101537419D02*
X142954657Y-101585038D01*
X142954657Y-101585038D02*
X143049895Y-101680276D01*
X143049895Y-101680276D02*
X143097514Y-101775514D01*
X143097514Y-101775514D02*
X143145133Y-101965990D01*
X143145133Y-101965990D02*
X143145133Y-102108847D01*
X143145133Y-102108847D02*
X143097514Y-102299323D01*
X143097514Y-102299323D02*
X143049895Y-102394561D01*
X143049895Y-102394561D02*
X142954657Y-102489800D01*
X142954657Y-102489800D02*
X142811800Y-102537419D01*
X142811800Y-102537419D02*
X142573705Y-102537419D01*
X143526086Y-101632657D02*
X143573705Y-101585038D01*
X143573705Y-101585038D02*
X143668943Y-101537419D01*
X143668943Y-101537419D02*
X143907038Y-101537419D01*
X143907038Y-101537419D02*
X144002276Y-101585038D01*
X144002276Y-101585038D02*
X144049895Y-101632657D01*
X144049895Y-101632657D02*
X144097514Y-101727895D01*
X144097514Y-101727895D02*
X144097514Y-101823133D01*
X144097514Y-101823133D02*
X144049895Y-101965990D01*
X144049895Y-101965990D02*
X143478467Y-102537419D01*
X143478467Y-102537419D02*
X144097514Y-102537419D01*
X141678095Y-93393866D02*
X142440000Y-93393866D01*
X142059047Y-93774819D02*
X142059047Y-93012914D01*
X143439999Y-93774819D02*
X142868571Y-93774819D01*
X143154285Y-93774819D02*
X143154285Y-92774819D01*
X143154285Y-92774819D02*
X143059047Y-92917676D01*
X143059047Y-92917676D02*
X142963809Y-93012914D01*
X142963809Y-93012914D02*
X142868571Y-93060533D01*
X143820952Y-92870057D02*
X143868571Y-92822438D01*
X143868571Y-92822438D02*
X143963809Y-92774819D01*
X143963809Y-92774819D02*
X144201904Y-92774819D01*
X144201904Y-92774819D02*
X144297142Y-92822438D01*
X144297142Y-92822438D02*
X144344761Y-92870057D01*
X144344761Y-92870057D02*
X144392380Y-92965295D01*
X144392380Y-92965295D02*
X144392380Y-93060533D01*
X144392380Y-93060533D02*
X144344761Y-93203390D01*
X144344761Y-93203390D02*
X143773333Y-93774819D01*
X143773333Y-93774819D02*
X144392380Y-93774819D01*
X144678095Y-92774819D02*
X145011428Y-93774819D01*
X145011428Y-93774819D02*
X145344761Y-92774819D01*
X129035505Y-102537419D02*
X129035505Y-101537419D01*
X129035505Y-101537419D02*
X129273600Y-101537419D01*
X129273600Y-101537419D02*
X129416457Y-101585038D01*
X129416457Y-101585038D02*
X129511695Y-101680276D01*
X129511695Y-101680276D02*
X129559314Y-101775514D01*
X129559314Y-101775514D02*
X129606933Y-101965990D01*
X129606933Y-101965990D02*
X129606933Y-102108847D01*
X129606933Y-102108847D02*
X129559314Y-102299323D01*
X129559314Y-102299323D02*
X129511695Y-102394561D01*
X129511695Y-102394561D02*
X129416457Y-102489800D01*
X129416457Y-102489800D02*
X129273600Y-102537419D01*
X129273600Y-102537419D02*
X129035505Y-102537419D01*
X130464076Y-101870752D02*
X130464076Y-102537419D01*
X130225981Y-101489800D02*
X129987886Y-102204085D01*
X129987886Y-102204085D02*
X130606933Y-102204085D01*
X127848095Y-93403866D02*
X128610000Y-93403866D01*
X129609999Y-93784819D02*
X129038571Y-93784819D01*
X129324285Y-93784819D02*
X129324285Y-92784819D01*
X129324285Y-92784819D02*
X129229047Y-92927676D01*
X129229047Y-92927676D02*
X129133809Y-93022914D01*
X129133809Y-93022914D02*
X129038571Y-93070533D01*
X129990952Y-92880057D02*
X130038571Y-92832438D01*
X130038571Y-92832438D02*
X130133809Y-92784819D01*
X130133809Y-92784819D02*
X130371904Y-92784819D01*
X130371904Y-92784819D02*
X130467142Y-92832438D01*
X130467142Y-92832438D02*
X130514761Y-92880057D01*
X130514761Y-92880057D02*
X130562380Y-92975295D01*
X130562380Y-92975295D02*
X130562380Y-93070533D01*
X130562380Y-93070533D02*
X130514761Y-93213390D01*
X130514761Y-93213390D02*
X129943333Y-93784819D01*
X129943333Y-93784819D02*
X130562380Y-93784819D01*
X130848095Y-92784819D02*
X131181428Y-93784819D01*
X131181428Y-93784819D02*
X131514761Y-92784819D01*
X147915333Y-110012819D02*
X147582000Y-109536628D01*
X147343905Y-110012819D02*
X147343905Y-109012819D01*
X147343905Y-109012819D02*
X147724857Y-109012819D01*
X147724857Y-109012819D02*
X147820095Y-109060438D01*
X147820095Y-109060438D02*
X147867714Y-109108057D01*
X147867714Y-109108057D02*
X147915333Y-109203295D01*
X147915333Y-109203295D02*
X147915333Y-109346152D01*
X147915333Y-109346152D02*
X147867714Y-109441390D01*
X147867714Y-109441390D02*
X147820095Y-109489009D01*
X147820095Y-109489009D02*
X147724857Y-109536628D01*
X147724857Y-109536628D02*
X147343905Y-109536628D01*
X148296286Y-109108057D02*
X148343905Y-109060438D01*
X148343905Y-109060438D02*
X148439143Y-109012819D01*
X148439143Y-109012819D02*
X148677238Y-109012819D01*
X148677238Y-109012819D02*
X148772476Y-109060438D01*
X148772476Y-109060438D02*
X148820095Y-109108057D01*
X148820095Y-109108057D02*
X148867714Y-109203295D01*
X148867714Y-109203295D02*
X148867714Y-109298533D01*
X148867714Y-109298533D02*
X148820095Y-109441390D01*
X148820095Y-109441390D02*
X148248667Y-110012819D01*
X148248667Y-110012819D02*
X148867714Y-110012819D01*
X147905714Y-105234819D02*
X147334286Y-105234819D01*
X147620000Y-105234819D02*
X147620000Y-104234819D01*
X147620000Y-104234819D02*
X147524762Y-104377676D01*
X147524762Y-104377676D02*
X147429524Y-104472914D01*
X147429524Y-104472914D02*
X147334286Y-104520533D01*
X148334286Y-105234819D02*
X148334286Y-104234819D01*
X148905714Y-105234819D02*
X148477143Y-104663390D01*
X148905714Y-104234819D02*
X148334286Y-104806247D01*
X160520866Y-92246419D02*
X160520866Y-92960704D01*
X160520866Y-92960704D02*
X160473247Y-93103561D01*
X160473247Y-93103561D02*
X160378009Y-93198800D01*
X160378009Y-93198800D02*
X160235152Y-93246419D01*
X160235152Y-93246419D02*
X160139914Y-93246419D01*
X160997057Y-93246419D02*
X160997057Y-92246419D01*
X160997057Y-92246419D02*
X161378009Y-92246419D01*
X161378009Y-92246419D02*
X161473247Y-92294038D01*
X161473247Y-92294038D02*
X161520866Y-92341657D01*
X161520866Y-92341657D02*
X161568485Y-92436895D01*
X161568485Y-92436895D02*
X161568485Y-92579752D01*
X161568485Y-92579752D02*
X161520866Y-92674990D01*
X161520866Y-92674990D02*
X161473247Y-92722609D01*
X161473247Y-92722609D02*
X161378009Y-92770228D01*
X161378009Y-92770228D02*
X160997057Y-92770228D01*
X162520866Y-93246419D02*
X161949438Y-93246419D01*
X162235152Y-93246419D02*
X162235152Y-92246419D01*
X162235152Y-92246419D02*
X162139914Y-92389276D01*
X162139914Y-92389276D02*
X162044676Y-92484514D01*
X162044676Y-92484514D02*
X161949438Y-92532133D01*
X171521333Y-102527580D02*
X171473714Y-102575200D01*
X171473714Y-102575200D02*
X171330857Y-102622819D01*
X171330857Y-102622819D02*
X171235619Y-102622819D01*
X171235619Y-102622819D02*
X171092762Y-102575200D01*
X171092762Y-102575200D02*
X170997524Y-102479961D01*
X170997524Y-102479961D02*
X170949905Y-102384723D01*
X170949905Y-102384723D02*
X170902286Y-102194247D01*
X170902286Y-102194247D02*
X170902286Y-102051390D01*
X170902286Y-102051390D02*
X170949905Y-101860914D01*
X170949905Y-101860914D02*
X170997524Y-101765676D01*
X170997524Y-101765676D02*
X171092762Y-101670438D01*
X171092762Y-101670438D02*
X171235619Y-101622819D01*
X171235619Y-101622819D02*
X171330857Y-101622819D01*
X171330857Y-101622819D02*
X171473714Y-101670438D01*
X171473714Y-101670438D02*
X171521333Y-101718057D01*
X171902286Y-101718057D02*
X171949905Y-101670438D01*
X171949905Y-101670438D02*
X172045143Y-101622819D01*
X172045143Y-101622819D02*
X172283238Y-101622819D01*
X172283238Y-101622819D02*
X172378476Y-101670438D01*
X172378476Y-101670438D02*
X172426095Y-101718057D01*
X172426095Y-101718057D02*
X172473714Y-101813295D01*
X172473714Y-101813295D02*
X172473714Y-101908533D01*
X172473714Y-101908533D02*
X172426095Y-102051390D01*
X172426095Y-102051390D02*
X171854667Y-102622819D01*
X171854667Y-102622819D02*
X172473714Y-102622819D01*
X170045143Y-109218057D02*
X170092762Y-109170438D01*
X170092762Y-109170438D02*
X170188000Y-109122819D01*
X170188000Y-109122819D02*
X170426095Y-109122819D01*
X170426095Y-109122819D02*
X170521333Y-109170438D01*
X170521333Y-109170438D02*
X170568952Y-109218057D01*
X170568952Y-109218057D02*
X170616571Y-109313295D01*
X170616571Y-109313295D02*
X170616571Y-109408533D01*
X170616571Y-109408533D02*
X170568952Y-109551390D01*
X170568952Y-109551390D02*
X169997524Y-110122819D01*
X169997524Y-110122819D02*
X170616571Y-110122819D01*
X170997524Y-109218057D02*
X171045143Y-109170438D01*
X171045143Y-109170438D02*
X171140381Y-109122819D01*
X171140381Y-109122819D02*
X171378476Y-109122819D01*
X171378476Y-109122819D02*
X171473714Y-109170438D01*
X171473714Y-109170438D02*
X171521333Y-109218057D01*
X171521333Y-109218057D02*
X171568952Y-109313295D01*
X171568952Y-109313295D02*
X171568952Y-109408533D01*
X171568952Y-109408533D02*
X171521333Y-109551390D01*
X171521333Y-109551390D02*
X170949905Y-110122819D01*
X170949905Y-110122819D02*
X171568952Y-110122819D01*
X172426095Y-109456152D02*
X172426095Y-110122819D01*
X171997524Y-109456152D02*
X171997524Y-109979961D01*
X171997524Y-109979961D02*
X172045143Y-110075200D01*
X172045143Y-110075200D02*
X172140381Y-110122819D01*
X172140381Y-110122819D02*
X172283238Y-110122819D01*
X172283238Y-110122819D02*
X172378476Y-110075200D01*
X172378476Y-110075200D02*
X172426095Y-110027580D01*
X173235619Y-109599009D02*
X172902286Y-109599009D01*
X172902286Y-110122819D02*
X172902286Y-109122819D01*
X172902286Y-109122819D02*
X173378476Y-109122819D01*
X180744905Y-105045819D02*
X180744905Y-104045819D01*
X180744905Y-104045819D02*
X180983000Y-104045819D01*
X180983000Y-104045819D02*
X181125857Y-104093438D01*
X181125857Y-104093438D02*
X181221095Y-104188676D01*
X181221095Y-104188676D02*
X181268714Y-104283914D01*
X181268714Y-104283914D02*
X181316333Y-104474390D01*
X181316333Y-104474390D02*
X181316333Y-104617247D01*
X181316333Y-104617247D02*
X181268714Y-104807723D01*
X181268714Y-104807723D02*
X181221095Y-104902961D01*
X181221095Y-104902961D02*
X181125857Y-104998200D01*
X181125857Y-104998200D02*
X180983000Y-105045819D01*
X180983000Y-105045819D02*
X180744905Y-105045819D01*
X182173476Y-104045819D02*
X181983000Y-104045819D01*
X181983000Y-104045819D02*
X181887762Y-104093438D01*
X181887762Y-104093438D02*
X181840143Y-104141057D01*
X181840143Y-104141057D02*
X181744905Y-104283914D01*
X181744905Y-104283914D02*
X181697286Y-104474390D01*
X181697286Y-104474390D02*
X181697286Y-104855342D01*
X181697286Y-104855342D02*
X181744905Y-104950580D01*
X181744905Y-104950580D02*
X181792524Y-104998200D01*
X181792524Y-104998200D02*
X181887762Y-105045819D01*
X181887762Y-105045819D02*
X182078238Y-105045819D01*
X182078238Y-105045819D02*
X182173476Y-104998200D01*
X182173476Y-104998200D02*
X182221095Y-104950580D01*
X182221095Y-104950580D02*
X182268714Y-104855342D01*
X182268714Y-104855342D02*
X182268714Y-104617247D01*
X182268714Y-104617247D02*
X182221095Y-104522009D01*
X182221095Y-104522009D02*
X182173476Y-104474390D01*
X182173476Y-104474390D02*
X182078238Y-104426771D01*
X182078238Y-104426771D02*
X181887762Y-104426771D01*
X181887762Y-104426771D02*
X181792524Y-104474390D01*
X181792524Y-104474390D02*
X181744905Y-104522009D01*
X181744905Y-104522009D02*
X181697286Y-104617247D01*
X179268714Y-109938200D02*
X179411571Y-109985819D01*
X179411571Y-109985819D02*
X179649666Y-109985819D01*
X179649666Y-109985819D02*
X179744904Y-109938200D01*
X179744904Y-109938200D02*
X179792523Y-109890580D01*
X179792523Y-109890580D02*
X179840142Y-109795342D01*
X179840142Y-109795342D02*
X179840142Y-109700104D01*
X179840142Y-109700104D02*
X179792523Y-109604866D01*
X179792523Y-109604866D02*
X179744904Y-109557247D01*
X179744904Y-109557247D02*
X179649666Y-109509628D01*
X179649666Y-109509628D02*
X179459190Y-109462009D01*
X179459190Y-109462009D02*
X179363952Y-109414390D01*
X179363952Y-109414390D02*
X179316333Y-109366771D01*
X179316333Y-109366771D02*
X179268714Y-109271533D01*
X179268714Y-109271533D02*
X179268714Y-109176295D01*
X179268714Y-109176295D02*
X179316333Y-109081057D01*
X179316333Y-109081057D02*
X179363952Y-109033438D01*
X179363952Y-109033438D02*
X179459190Y-108985819D01*
X179459190Y-108985819D02*
X179697285Y-108985819D01*
X179697285Y-108985819D02*
X179840142Y-109033438D01*
X180602047Y-109462009D02*
X180744904Y-109509628D01*
X180744904Y-109509628D02*
X180792523Y-109557247D01*
X180792523Y-109557247D02*
X180840142Y-109652485D01*
X180840142Y-109652485D02*
X180840142Y-109795342D01*
X180840142Y-109795342D02*
X180792523Y-109890580D01*
X180792523Y-109890580D02*
X180744904Y-109938200D01*
X180744904Y-109938200D02*
X180649666Y-109985819D01*
X180649666Y-109985819D02*
X180268714Y-109985819D01*
X180268714Y-109985819D02*
X180268714Y-108985819D01*
X180268714Y-108985819D02*
X180602047Y-108985819D01*
X180602047Y-108985819D02*
X180697285Y-109033438D01*
X180697285Y-109033438D02*
X180744904Y-109081057D01*
X180744904Y-109081057D02*
X180792523Y-109176295D01*
X180792523Y-109176295D02*
X180792523Y-109271533D01*
X180792523Y-109271533D02*
X180744904Y-109366771D01*
X180744904Y-109366771D02*
X180697285Y-109414390D01*
X180697285Y-109414390D02*
X180602047Y-109462009D01*
X180602047Y-109462009D02*
X180268714Y-109462009D01*
X181792523Y-109985819D02*
X181221095Y-109985819D01*
X181506809Y-109985819D02*
X181506809Y-108985819D01*
X181506809Y-108985819D02*
X181411571Y-109128676D01*
X181411571Y-109128676D02*
X181316333Y-109223914D01*
X181316333Y-109223914D02*
X181221095Y-109271533D01*
X182649666Y-109319152D02*
X182649666Y-109985819D01*
X182411571Y-108938200D02*
X182173476Y-109652485D01*
X182173476Y-109652485D02*
X182792523Y-109652485D01*
X183363952Y-108985819D02*
X183459190Y-108985819D01*
X183459190Y-108985819D02*
X183554428Y-109033438D01*
X183554428Y-109033438D02*
X183602047Y-109081057D01*
X183602047Y-109081057D02*
X183649666Y-109176295D01*
X183649666Y-109176295D02*
X183697285Y-109366771D01*
X183697285Y-109366771D02*
X183697285Y-109604866D01*
X183697285Y-109604866D02*
X183649666Y-109795342D01*
X183649666Y-109795342D02*
X183602047Y-109890580D01*
X183602047Y-109890580D02*
X183554428Y-109938200D01*
X183554428Y-109938200D02*
X183459190Y-109985819D01*
X183459190Y-109985819D02*
X183363952Y-109985819D01*
X183363952Y-109985819D02*
X183268714Y-109938200D01*
X183268714Y-109938200D02*
X183221095Y-109890580D01*
X183221095Y-109890580D02*
X183173476Y-109795342D01*
X183173476Y-109795342D02*
X183125857Y-109604866D01*
X183125857Y-109604866D02*
X183125857Y-109366771D01*
X183125857Y-109366771D02*
X183173476Y-109176295D01*
X183173476Y-109176295D02*
X183221095Y-109081057D01*
X183221095Y-109081057D02*
X183268714Y-109033438D01*
X183268714Y-109033438D02*
X183363952Y-108985819D01*
X135905505Y-102537419D02*
X135905505Y-101537419D01*
X135905505Y-101537419D02*
X136143600Y-101537419D01*
X136143600Y-101537419D02*
X136286457Y-101585038D01*
X136286457Y-101585038D02*
X136381695Y-101680276D01*
X136381695Y-101680276D02*
X136429314Y-101775514D01*
X136429314Y-101775514D02*
X136476933Y-101965990D01*
X136476933Y-101965990D02*
X136476933Y-102108847D01*
X136476933Y-102108847D02*
X136429314Y-102299323D01*
X136429314Y-102299323D02*
X136381695Y-102394561D01*
X136381695Y-102394561D02*
X136286457Y-102489800D01*
X136286457Y-102489800D02*
X136143600Y-102537419D01*
X136143600Y-102537419D02*
X135905505Y-102537419D01*
X136810267Y-101537419D02*
X137429314Y-101537419D01*
X137429314Y-101537419D02*
X137095981Y-101918371D01*
X137095981Y-101918371D02*
X137238838Y-101918371D01*
X137238838Y-101918371D02*
X137334076Y-101965990D01*
X137334076Y-101965990D02*
X137381695Y-102013609D01*
X137381695Y-102013609D02*
X137429314Y-102108847D01*
X137429314Y-102108847D02*
X137429314Y-102346942D01*
X137429314Y-102346942D02*
X137381695Y-102442180D01*
X137381695Y-102442180D02*
X137334076Y-102489800D01*
X137334076Y-102489800D02*
X137238838Y-102537419D01*
X137238838Y-102537419D02*
X136953124Y-102537419D01*
X136953124Y-102537419D02*
X136857886Y-102489800D01*
X136857886Y-102489800D02*
X136810267Y-102442180D01*
X135184286Y-93403866D02*
X135946191Y-93403866D01*
X136898571Y-92784819D02*
X136422381Y-92784819D01*
X136422381Y-92784819D02*
X136374762Y-93261009D01*
X136374762Y-93261009D02*
X136422381Y-93213390D01*
X136422381Y-93213390D02*
X136517619Y-93165771D01*
X136517619Y-93165771D02*
X136755714Y-93165771D01*
X136755714Y-93165771D02*
X136850952Y-93213390D01*
X136850952Y-93213390D02*
X136898571Y-93261009D01*
X136898571Y-93261009D02*
X136946190Y-93356247D01*
X136946190Y-93356247D02*
X136946190Y-93594342D01*
X136946190Y-93594342D02*
X136898571Y-93689580D01*
X136898571Y-93689580D02*
X136850952Y-93737200D01*
X136850952Y-93737200D02*
X136755714Y-93784819D01*
X136755714Y-93784819D02*
X136517619Y-93784819D01*
X136517619Y-93784819D02*
X136422381Y-93737200D01*
X136422381Y-93737200D02*
X136374762Y-93689580D01*
X137231905Y-92784819D02*
X137565238Y-93784819D01*
X137565238Y-93784819D02*
X137898571Y-92784819D01*
X192301905Y-105045819D02*
X192301905Y-104045819D01*
X192301905Y-104045819D02*
X192540000Y-104045819D01*
X192540000Y-104045819D02*
X192682857Y-104093438D01*
X192682857Y-104093438D02*
X192778095Y-104188676D01*
X192778095Y-104188676D02*
X192825714Y-104283914D01*
X192825714Y-104283914D02*
X192873333Y-104474390D01*
X192873333Y-104474390D02*
X192873333Y-104617247D01*
X192873333Y-104617247D02*
X192825714Y-104807723D01*
X192825714Y-104807723D02*
X192778095Y-104902961D01*
X192778095Y-104902961D02*
X192682857Y-104998200D01*
X192682857Y-104998200D02*
X192540000Y-105045819D01*
X192540000Y-105045819D02*
X192301905Y-105045819D01*
X193778095Y-104045819D02*
X193301905Y-104045819D01*
X193301905Y-104045819D02*
X193254286Y-104522009D01*
X193254286Y-104522009D02*
X193301905Y-104474390D01*
X193301905Y-104474390D02*
X193397143Y-104426771D01*
X193397143Y-104426771D02*
X193635238Y-104426771D01*
X193635238Y-104426771D02*
X193730476Y-104474390D01*
X193730476Y-104474390D02*
X193778095Y-104522009D01*
X193778095Y-104522009D02*
X193825714Y-104617247D01*
X193825714Y-104617247D02*
X193825714Y-104855342D01*
X193825714Y-104855342D02*
X193778095Y-104950580D01*
X193778095Y-104950580D02*
X193730476Y-104998200D01*
X193730476Y-104998200D02*
X193635238Y-105045819D01*
X193635238Y-105045819D02*
X193397143Y-105045819D01*
X193397143Y-105045819D02*
X193301905Y-104998200D01*
X193301905Y-104998200D02*
X193254286Y-104950580D01*
X190825714Y-109938200D02*
X190968571Y-109985819D01*
X190968571Y-109985819D02*
X191206666Y-109985819D01*
X191206666Y-109985819D02*
X191301904Y-109938200D01*
X191301904Y-109938200D02*
X191349523Y-109890580D01*
X191349523Y-109890580D02*
X191397142Y-109795342D01*
X191397142Y-109795342D02*
X191397142Y-109700104D01*
X191397142Y-109700104D02*
X191349523Y-109604866D01*
X191349523Y-109604866D02*
X191301904Y-109557247D01*
X191301904Y-109557247D02*
X191206666Y-109509628D01*
X191206666Y-109509628D02*
X191016190Y-109462009D01*
X191016190Y-109462009D02*
X190920952Y-109414390D01*
X190920952Y-109414390D02*
X190873333Y-109366771D01*
X190873333Y-109366771D02*
X190825714Y-109271533D01*
X190825714Y-109271533D02*
X190825714Y-109176295D01*
X190825714Y-109176295D02*
X190873333Y-109081057D01*
X190873333Y-109081057D02*
X190920952Y-109033438D01*
X190920952Y-109033438D02*
X191016190Y-108985819D01*
X191016190Y-108985819D02*
X191254285Y-108985819D01*
X191254285Y-108985819D02*
X191397142Y-109033438D01*
X192159047Y-109462009D02*
X192301904Y-109509628D01*
X192301904Y-109509628D02*
X192349523Y-109557247D01*
X192349523Y-109557247D02*
X192397142Y-109652485D01*
X192397142Y-109652485D02*
X192397142Y-109795342D01*
X192397142Y-109795342D02*
X192349523Y-109890580D01*
X192349523Y-109890580D02*
X192301904Y-109938200D01*
X192301904Y-109938200D02*
X192206666Y-109985819D01*
X192206666Y-109985819D02*
X191825714Y-109985819D01*
X191825714Y-109985819D02*
X191825714Y-108985819D01*
X191825714Y-108985819D02*
X192159047Y-108985819D01*
X192159047Y-108985819D02*
X192254285Y-109033438D01*
X192254285Y-109033438D02*
X192301904Y-109081057D01*
X192301904Y-109081057D02*
X192349523Y-109176295D01*
X192349523Y-109176295D02*
X192349523Y-109271533D01*
X192349523Y-109271533D02*
X192301904Y-109366771D01*
X192301904Y-109366771D02*
X192254285Y-109414390D01*
X192254285Y-109414390D02*
X192159047Y-109462009D01*
X192159047Y-109462009D02*
X191825714Y-109462009D01*
X193349523Y-109985819D02*
X192778095Y-109985819D01*
X193063809Y-109985819D02*
X193063809Y-108985819D01*
X193063809Y-108985819D02*
X192968571Y-109128676D01*
X192968571Y-109128676D02*
X192873333Y-109223914D01*
X192873333Y-109223914D02*
X192778095Y-109271533D01*
X194206666Y-109319152D02*
X194206666Y-109985819D01*
X193968571Y-108938200D02*
X193730476Y-109652485D01*
X193730476Y-109652485D02*
X194349523Y-109652485D01*
X194920952Y-108985819D02*
X195016190Y-108985819D01*
X195016190Y-108985819D02*
X195111428Y-109033438D01*
X195111428Y-109033438D02*
X195159047Y-109081057D01*
X195159047Y-109081057D02*
X195206666Y-109176295D01*
X195206666Y-109176295D02*
X195254285Y-109366771D01*
X195254285Y-109366771D02*
X195254285Y-109604866D01*
X195254285Y-109604866D02*
X195206666Y-109795342D01*
X195206666Y-109795342D02*
X195159047Y-109890580D01*
X195159047Y-109890580D02*
X195111428Y-109938200D01*
X195111428Y-109938200D02*
X195016190Y-109985819D01*
X195016190Y-109985819D02*
X194920952Y-109985819D01*
X194920952Y-109985819D02*
X194825714Y-109938200D01*
X194825714Y-109938200D02*
X194778095Y-109890580D01*
X194778095Y-109890580D02*
X194730476Y-109795342D01*
X194730476Y-109795342D02*
X194682857Y-109604866D01*
X194682857Y-109604866D02*
X194682857Y-109366771D01*
X194682857Y-109366771D02*
X194730476Y-109176295D01*
X194730476Y-109176295D02*
X194778095Y-109081057D01*
X194778095Y-109081057D02*
X194825714Y-109033438D01*
X194825714Y-109033438D02*
X194920952Y-108985819D01*
X171553333Y-93129580D02*
X171505714Y-93177200D01*
X171505714Y-93177200D02*
X171362857Y-93224819D01*
X171362857Y-93224819D02*
X171267619Y-93224819D01*
X171267619Y-93224819D02*
X171124762Y-93177200D01*
X171124762Y-93177200D02*
X171029524Y-93081961D01*
X171029524Y-93081961D02*
X170981905Y-92986723D01*
X170981905Y-92986723D02*
X170934286Y-92796247D01*
X170934286Y-92796247D02*
X170934286Y-92653390D01*
X170934286Y-92653390D02*
X170981905Y-92462914D01*
X170981905Y-92462914D02*
X171029524Y-92367676D01*
X171029524Y-92367676D02*
X171124762Y-92272438D01*
X171124762Y-92272438D02*
X171267619Y-92224819D01*
X171267619Y-92224819D02*
X171362857Y-92224819D01*
X171362857Y-92224819D02*
X171505714Y-92272438D01*
X171505714Y-92272438D02*
X171553333Y-92320057D01*
X172505714Y-93224819D02*
X171934286Y-93224819D01*
X172220000Y-93224819D02*
X172220000Y-92224819D01*
X172220000Y-92224819D02*
X172124762Y-92367676D01*
X172124762Y-92367676D02*
X172029524Y-92462914D01*
X172029524Y-92462914D02*
X171934286Y-92510533D01*
X170077143Y-99820057D02*
X170124762Y-99772438D01*
X170124762Y-99772438D02*
X170220000Y-99724819D01*
X170220000Y-99724819D02*
X170458095Y-99724819D01*
X170458095Y-99724819D02*
X170553333Y-99772438D01*
X170553333Y-99772438D02*
X170600952Y-99820057D01*
X170600952Y-99820057D02*
X170648571Y-99915295D01*
X170648571Y-99915295D02*
X170648571Y-100010533D01*
X170648571Y-100010533D02*
X170600952Y-100153390D01*
X170600952Y-100153390D02*
X170029524Y-100724819D01*
X170029524Y-100724819D02*
X170648571Y-100724819D01*
X171029524Y-99820057D02*
X171077143Y-99772438D01*
X171077143Y-99772438D02*
X171172381Y-99724819D01*
X171172381Y-99724819D02*
X171410476Y-99724819D01*
X171410476Y-99724819D02*
X171505714Y-99772438D01*
X171505714Y-99772438D02*
X171553333Y-99820057D01*
X171553333Y-99820057D02*
X171600952Y-99915295D01*
X171600952Y-99915295D02*
X171600952Y-100010533D01*
X171600952Y-100010533D02*
X171553333Y-100153390D01*
X171553333Y-100153390D02*
X170981905Y-100724819D01*
X170981905Y-100724819D02*
X171600952Y-100724819D01*
X172458095Y-100058152D02*
X172458095Y-100724819D01*
X172029524Y-100058152D02*
X172029524Y-100581961D01*
X172029524Y-100581961D02*
X172077143Y-100677200D01*
X172077143Y-100677200D02*
X172172381Y-100724819D01*
X172172381Y-100724819D02*
X172315238Y-100724819D01*
X172315238Y-100724819D02*
X172410476Y-100677200D01*
X172410476Y-100677200D02*
X172458095Y-100629580D01*
X173267619Y-100201009D02*
X172934286Y-100201009D01*
X172934286Y-100724819D02*
X172934286Y-99724819D01*
X172934286Y-99724819D02*
X173410476Y-99724819D01*
D14*
%TO.C,D1*%
X147655600Y-96092600D02*
X147655600Y-99182600D01*
X153205599Y-97638062D02*
G75*
G03*
X147655601Y-96092770I-2989999J462D01*
G01*
X147655600Y-99182430D02*
G75*
G03*
X153205600Y-97637138I2560000J1544830D01*
G01*
X152715600Y-97637600D02*
G75*
G03*
X152715600Y-97637600I-2500000J0D01*
G01*
%TO.C,R1*%
X164441000Y-107188000D02*
X163671000Y-107188000D01*
X163671000Y-108558000D02*
X163671000Y-105818000D01*
X163671000Y-105818000D02*
X157131000Y-105818000D01*
X157131000Y-108558000D02*
X163671000Y-108558000D01*
X157131000Y-105818000D02*
X157131000Y-108558000D01*
X156361000Y-107188000D02*
X157131000Y-107188000D01*
%TO.C,U1*%
X179394000Y-94721000D02*
X179394000Y-94991000D01*
X179394000Y-94991000D02*
X176564000Y-94991000D01*
X179394000Y-101351000D02*
X178294000Y-101351000D01*
X179394000Y-101621000D02*
X179394000Y-101351000D01*
X185814000Y-94721000D02*
X179394000Y-94721000D01*
X185814000Y-101621000D02*
X179394000Y-101621000D01*
%TO.C,R4*%
X127484000Y-107188000D02*
X126714000Y-107188000D01*
X126714000Y-108558000D02*
X126714000Y-105818000D01*
X126714000Y-105818000D02*
X120174000Y-105818000D01*
X120174000Y-108558000D02*
X126714000Y-108558000D01*
X120174000Y-105818000D02*
X120174000Y-108558000D01*
X119404000Y-107188000D02*
X120174000Y-107188000D01*
%TO.C,R3*%
X139803000Y-107188000D02*
X139033000Y-107188000D01*
X139033000Y-108558000D02*
X139033000Y-105818000D01*
X139033000Y-105818000D02*
X132493000Y-105818000D01*
X132493000Y-108558000D02*
X139033000Y-108558000D01*
X132493000Y-105818000D02*
X132493000Y-108558000D01*
X131723000Y-107188000D02*
X132493000Y-107188000D01*
%TO.C,D2*%
X140802600Y-96092600D02*
X140802600Y-99182600D01*
X146352599Y-97638062D02*
G75*
G03*
X140802601Y-96092770I-2989999J462D01*
G01*
X140802600Y-99182430D02*
G75*
G03*
X146352600Y-97637138I2560000J1544830D01*
G01*
X145862600Y-97637600D02*
G75*
G03*
X145862600Y-97637600I-2500000J0D01*
G01*
%TO.C,D4*%
X127081600Y-96092600D02*
X127081600Y-99182600D01*
X132631599Y-97638062D02*
G75*
G03*
X127081601Y-96092770I-2989999J462D01*
G01*
X127081600Y-99182430D02*
G75*
G03*
X132631600Y-97637138I2560000J1544830D01*
G01*
X132141600Y-97637600D02*
G75*
G03*
X132141600Y-97637600I-2500000J0D01*
G01*
%TO.C,R2*%
X152122000Y-107188000D02*
X151352000Y-107188000D01*
X151352000Y-108558000D02*
X151352000Y-105818000D01*
X151352000Y-105818000D02*
X144812000Y-105818000D01*
X144812000Y-108558000D02*
X151352000Y-108558000D01*
X144812000Y-105818000D02*
X144812000Y-108558000D01*
X144042000Y-107188000D02*
X144812000Y-107188000D01*
%TO.C,JP1*%
X158805000Y-96560000D02*
X158805000Y-95230000D01*
X160135000Y-96560000D02*
X158805000Y-96560000D01*
X161405000Y-96560000D02*
X164005000Y-96560000D01*
X161405000Y-96560000D02*
X161405000Y-93900000D01*
X164005000Y-96560000D02*
X164005000Y-93900000D01*
X161405000Y-93900000D02*
X164005000Y-93900000D01*
%TO.C,C2*%
X168883225Y-104443000D02*
X169383225Y-104443000D01*
X169133225Y-104193000D02*
X169133225Y-104693000D01*
X171688000Y-103338000D02*
X171688000Y-104878000D01*
X171688000Y-106958000D02*
X171688000Y-108498000D01*
X171728000Y-103338000D02*
X171728000Y-104878000D01*
X171728000Y-106958000D02*
X171728000Y-108498000D01*
X171768000Y-103339000D02*
X171768000Y-104878000D01*
X171768000Y-106958000D02*
X171768000Y-108497000D01*
X171808000Y-103340000D02*
X171808000Y-104878000D01*
X171808000Y-106958000D02*
X171808000Y-108496000D01*
X171848000Y-103342000D02*
X171848000Y-104878000D01*
X171848000Y-106958000D02*
X171848000Y-108494000D01*
X171888000Y-103345000D02*
X171888000Y-104878000D01*
X171888000Y-106958000D02*
X171888000Y-108491000D01*
X171928000Y-103349000D02*
X171928000Y-104878000D01*
X171928000Y-106958000D02*
X171928000Y-108487000D01*
X171968000Y-103353000D02*
X171968000Y-104878000D01*
X171968000Y-106958000D02*
X171968000Y-108483000D01*
X172008000Y-103357000D02*
X172008000Y-104878000D01*
X172008000Y-106958000D02*
X172008000Y-108479000D01*
X172048000Y-103362000D02*
X172048000Y-104878000D01*
X172048000Y-106958000D02*
X172048000Y-108474000D01*
X172088000Y-103368000D02*
X172088000Y-104878000D01*
X172088000Y-106958000D02*
X172088000Y-108468000D01*
X172128000Y-103375000D02*
X172128000Y-104878000D01*
X172128000Y-106958000D02*
X172128000Y-108461000D01*
X172168000Y-103382000D02*
X172168000Y-104878000D01*
X172168000Y-106958000D02*
X172168000Y-108454000D01*
X172208000Y-103390000D02*
X172208000Y-104878000D01*
X172208000Y-106958000D02*
X172208000Y-108446000D01*
X172248000Y-103398000D02*
X172248000Y-104878000D01*
X172248000Y-106958000D02*
X172248000Y-108438000D01*
X172288000Y-103407000D02*
X172288000Y-104878000D01*
X172288000Y-106958000D02*
X172288000Y-108429000D01*
X172328000Y-103417000D02*
X172328000Y-104878000D01*
X172328000Y-106958000D02*
X172328000Y-108419000D01*
X172368000Y-103427000D02*
X172368000Y-104878000D01*
X172368000Y-106958000D02*
X172368000Y-108409000D01*
X172409000Y-103438000D02*
X172409000Y-104878000D01*
X172409000Y-106958000D02*
X172409000Y-108398000D01*
X172449000Y-103450000D02*
X172449000Y-104878000D01*
X172449000Y-106958000D02*
X172449000Y-108386000D01*
X172489000Y-103463000D02*
X172489000Y-104878000D01*
X172489000Y-106958000D02*
X172489000Y-108373000D01*
X172529000Y-103476000D02*
X172529000Y-104878000D01*
X172529000Y-106958000D02*
X172529000Y-108360000D01*
X172569000Y-103490000D02*
X172569000Y-104878000D01*
X172569000Y-106958000D02*
X172569000Y-108346000D01*
X172609000Y-103504000D02*
X172609000Y-104878000D01*
X172609000Y-106958000D02*
X172609000Y-108332000D01*
X172649000Y-103520000D02*
X172649000Y-104878000D01*
X172649000Y-106958000D02*
X172649000Y-108316000D01*
X172689000Y-103536000D02*
X172689000Y-104878000D01*
X172689000Y-106958000D02*
X172689000Y-108300000D01*
X172729000Y-103553000D02*
X172729000Y-104878000D01*
X172729000Y-106958000D02*
X172729000Y-108283000D01*
X172769000Y-103570000D02*
X172769000Y-104878000D01*
X172769000Y-106958000D02*
X172769000Y-108266000D01*
X172809000Y-103589000D02*
X172809000Y-104878000D01*
X172809000Y-106958000D02*
X172809000Y-108247000D01*
X172849000Y-103608000D02*
X172849000Y-104878000D01*
X172849000Y-106958000D02*
X172849000Y-108228000D01*
X172889000Y-103628000D02*
X172889000Y-104878000D01*
X172889000Y-106958000D02*
X172889000Y-108208000D01*
X172929000Y-103650000D02*
X172929000Y-104878000D01*
X172929000Y-106958000D02*
X172929000Y-108186000D01*
X172969000Y-103671000D02*
X172969000Y-104878000D01*
X172969000Y-106958000D02*
X172969000Y-108165000D01*
X173009000Y-103694000D02*
X173009000Y-104878000D01*
X173009000Y-106958000D02*
X173009000Y-108142000D01*
X173049000Y-103718000D02*
X173049000Y-104878000D01*
X173049000Y-106958000D02*
X173049000Y-108118000D01*
X173089000Y-103743000D02*
X173089000Y-104878000D01*
X173089000Y-106958000D02*
X173089000Y-108093000D01*
X173129000Y-103769000D02*
X173129000Y-104878000D01*
X173129000Y-106958000D02*
X173129000Y-108067000D01*
X173169000Y-103796000D02*
X173169000Y-104878000D01*
X173169000Y-106958000D02*
X173169000Y-108040000D01*
X173209000Y-103823000D02*
X173209000Y-104878000D01*
X173209000Y-106958000D02*
X173209000Y-108013000D01*
X173249000Y-103853000D02*
X173249000Y-104878000D01*
X173249000Y-106958000D02*
X173249000Y-107983000D01*
X173289000Y-103883000D02*
X173289000Y-104878000D01*
X173289000Y-106958000D02*
X173289000Y-107953000D01*
X173329000Y-103914000D02*
X173329000Y-104878000D01*
X173329000Y-106958000D02*
X173329000Y-107922000D01*
X173369000Y-103947000D02*
X173369000Y-104878000D01*
X173369000Y-106958000D02*
X173369000Y-107889000D01*
X173409000Y-103981000D02*
X173409000Y-104878000D01*
X173409000Y-106958000D02*
X173409000Y-107855000D01*
X173449000Y-104017000D02*
X173449000Y-104878000D01*
X173449000Y-106958000D02*
X173449000Y-107819000D01*
X173489000Y-104054000D02*
X173489000Y-104878000D01*
X173489000Y-106958000D02*
X173489000Y-107782000D01*
X173529000Y-104092000D02*
X173529000Y-104878000D01*
X173529000Y-106958000D02*
X173529000Y-107744000D01*
X173569000Y-104133000D02*
X173569000Y-104878000D01*
X173569000Y-106958000D02*
X173569000Y-107703000D01*
X173609000Y-104175000D02*
X173609000Y-104878000D01*
X173609000Y-106958000D02*
X173609000Y-107661000D01*
X173649000Y-104219000D02*
X173649000Y-104878000D01*
X173649000Y-106958000D02*
X173649000Y-107617000D01*
X173689000Y-104265000D02*
X173689000Y-104878000D01*
X173689000Y-106958000D02*
X173689000Y-107571000D01*
X173729000Y-104313000D02*
X173729000Y-107523000D01*
X173769000Y-104364000D02*
X173769000Y-107472000D01*
X173809000Y-104418000D02*
X173809000Y-107418000D01*
X173849000Y-104475000D02*
X173849000Y-107361000D01*
X173889000Y-104535000D02*
X173889000Y-107301000D01*
X173929000Y-104599000D02*
X173929000Y-107237000D01*
X173969000Y-104667000D02*
X173969000Y-107169000D01*
X174009000Y-104740000D02*
X174009000Y-107096000D01*
X174049000Y-104820000D02*
X174049000Y-107016000D01*
X174089000Y-104907000D02*
X174089000Y-106929000D01*
X174129000Y-105003000D02*
X174129000Y-106833000D01*
X174169000Y-105113000D02*
X174169000Y-106723000D01*
X174209000Y-105241000D02*
X174209000Y-106595000D01*
X174249000Y-105400000D02*
X174249000Y-106436000D01*
X174289000Y-105634000D02*
X174289000Y-106202000D01*
X174308000Y-105918000D02*
G75*
G03*
X174308000Y-105918000I-2620000J0D01*
G01*
%TO.C,D6*%
X178763000Y-105591000D02*
X184203000Y-105591000D01*
X178763000Y-105721000D02*
X178763000Y-105591000D01*
X178763000Y-108401000D02*
X178763000Y-108531000D01*
X178763000Y-108531000D02*
X184203000Y-108531000D01*
X179543000Y-105591000D02*
X179543000Y-108531000D01*
X179663000Y-105591000D02*
X179663000Y-108531000D01*
X179783000Y-105591000D02*
X179783000Y-108531000D01*
X184203000Y-105591000D02*
X184203000Y-105721000D01*
X184203000Y-108531000D02*
X184203000Y-108401000D01*
%TO.C,D3*%
X133944600Y-96092600D02*
X133944600Y-99182600D01*
X139494599Y-97638062D02*
G75*
G03*
X133944601Y-96092770I-2989999J462D01*
G01*
X133944600Y-99182430D02*
G75*
G03*
X139494600Y-97637138I2560000J1544830D01*
G01*
X139004600Y-97637600D02*
G75*
G03*
X139004600Y-97637600I-2500000J0D01*
G01*
%TO.C,D5*%
X190320000Y-105591000D02*
X195760000Y-105591000D01*
X190320000Y-105721000D02*
X190320000Y-105591000D01*
X190320000Y-108401000D02*
X190320000Y-108531000D01*
X190320000Y-108531000D02*
X195760000Y-108531000D01*
X191100000Y-105591000D02*
X191100000Y-108531000D01*
X191220000Y-105591000D02*
X191220000Y-108531000D01*
X191340000Y-105591000D02*
X191340000Y-108531000D01*
X195760000Y-105591000D02*
X195760000Y-105721000D01*
X195760000Y-108531000D02*
X195760000Y-108401000D01*
%TO.C,C1*%
X168915225Y-95045000D02*
X169415225Y-95045000D01*
X169165225Y-94795000D02*
X169165225Y-95295000D01*
X171720000Y-93940000D02*
X171720000Y-95480000D01*
X171720000Y-97560000D02*
X171720000Y-99100000D01*
X171760000Y-93940000D02*
X171760000Y-95480000D01*
X171760000Y-97560000D02*
X171760000Y-99100000D01*
X171800000Y-93941000D02*
X171800000Y-95480000D01*
X171800000Y-97560000D02*
X171800000Y-99099000D01*
X171840000Y-93942000D02*
X171840000Y-95480000D01*
X171840000Y-97560000D02*
X171840000Y-99098000D01*
X171880000Y-93944000D02*
X171880000Y-95480000D01*
X171880000Y-97560000D02*
X171880000Y-99096000D01*
X171920000Y-93947000D02*
X171920000Y-95480000D01*
X171920000Y-97560000D02*
X171920000Y-99093000D01*
X171960000Y-93951000D02*
X171960000Y-95480000D01*
X171960000Y-97560000D02*
X171960000Y-99089000D01*
X172000000Y-93955000D02*
X172000000Y-95480000D01*
X172000000Y-97560000D02*
X172000000Y-99085000D01*
X172040000Y-93959000D02*
X172040000Y-95480000D01*
X172040000Y-97560000D02*
X172040000Y-99081000D01*
X172080000Y-93964000D02*
X172080000Y-95480000D01*
X172080000Y-97560000D02*
X172080000Y-99076000D01*
X172120000Y-93970000D02*
X172120000Y-95480000D01*
X172120000Y-97560000D02*
X172120000Y-99070000D01*
X172160000Y-93977000D02*
X172160000Y-95480000D01*
X172160000Y-97560000D02*
X172160000Y-99063000D01*
X172200000Y-93984000D02*
X172200000Y-95480000D01*
X172200000Y-97560000D02*
X172200000Y-99056000D01*
X172240000Y-93992000D02*
X172240000Y-95480000D01*
X172240000Y-97560000D02*
X172240000Y-99048000D01*
X172280000Y-94000000D02*
X172280000Y-95480000D01*
X172280000Y-97560000D02*
X172280000Y-99040000D01*
X172320000Y-94009000D02*
X172320000Y-95480000D01*
X172320000Y-97560000D02*
X172320000Y-99031000D01*
X172360000Y-94019000D02*
X172360000Y-95480000D01*
X172360000Y-97560000D02*
X172360000Y-99021000D01*
X172400000Y-94029000D02*
X172400000Y-95480000D01*
X172400000Y-97560000D02*
X172400000Y-99011000D01*
X172441000Y-94040000D02*
X172441000Y-95480000D01*
X172441000Y-97560000D02*
X172441000Y-99000000D01*
X172481000Y-94052000D02*
X172481000Y-95480000D01*
X172481000Y-97560000D02*
X172481000Y-98988000D01*
X172521000Y-94065000D02*
X172521000Y-95480000D01*
X172521000Y-97560000D02*
X172521000Y-98975000D01*
X172561000Y-94078000D02*
X172561000Y-95480000D01*
X172561000Y-97560000D02*
X172561000Y-98962000D01*
X172601000Y-94092000D02*
X172601000Y-95480000D01*
X172601000Y-97560000D02*
X172601000Y-98948000D01*
X172641000Y-94106000D02*
X172641000Y-95480000D01*
X172641000Y-97560000D02*
X172641000Y-98934000D01*
X172681000Y-94122000D02*
X172681000Y-95480000D01*
X172681000Y-97560000D02*
X172681000Y-98918000D01*
X172721000Y-94138000D02*
X172721000Y-95480000D01*
X172721000Y-97560000D02*
X172721000Y-98902000D01*
X172761000Y-94155000D02*
X172761000Y-95480000D01*
X172761000Y-97560000D02*
X172761000Y-98885000D01*
X172801000Y-94172000D02*
X172801000Y-95480000D01*
X172801000Y-97560000D02*
X172801000Y-98868000D01*
X172841000Y-94191000D02*
X172841000Y-95480000D01*
X172841000Y-97560000D02*
X172841000Y-98849000D01*
X172881000Y-94210000D02*
X172881000Y-95480000D01*
X172881000Y-97560000D02*
X172881000Y-98830000D01*
X172921000Y-94230000D02*
X172921000Y-95480000D01*
X172921000Y-97560000D02*
X172921000Y-98810000D01*
X172961000Y-94252000D02*
X172961000Y-95480000D01*
X172961000Y-97560000D02*
X172961000Y-98788000D01*
X173001000Y-94273000D02*
X173001000Y-95480000D01*
X173001000Y-97560000D02*
X173001000Y-98767000D01*
X173041000Y-94296000D02*
X173041000Y-95480000D01*
X173041000Y-97560000D02*
X173041000Y-98744000D01*
X173081000Y-94320000D02*
X173081000Y-95480000D01*
X173081000Y-97560000D02*
X173081000Y-98720000D01*
X173121000Y-94345000D02*
X173121000Y-95480000D01*
X173121000Y-97560000D02*
X173121000Y-98695000D01*
X173161000Y-94371000D02*
X173161000Y-95480000D01*
X173161000Y-97560000D02*
X173161000Y-98669000D01*
X173201000Y-94398000D02*
X173201000Y-95480000D01*
X173201000Y-97560000D02*
X173201000Y-98642000D01*
X173241000Y-94425000D02*
X173241000Y-95480000D01*
X173241000Y-97560000D02*
X173241000Y-98615000D01*
X173281000Y-94455000D02*
X173281000Y-95480000D01*
X173281000Y-97560000D02*
X173281000Y-98585000D01*
X173321000Y-94485000D02*
X173321000Y-95480000D01*
X173321000Y-97560000D02*
X173321000Y-98555000D01*
X173361000Y-94516000D02*
X173361000Y-95480000D01*
X173361000Y-97560000D02*
X173361000Y-98524000D01*
X173401000Y-94549000D02*
X173401000Y-95480000D01*
X173401000Y-97560000D02*
X173401000Y-98491000D01*
X173441000Y-94583000D02*
X173441000Y-95480000D01*
X173441000Y-97560000D02*
X173441000Y-98457000D01*
X173481000Y-94619000D02*
X173481000Y-95480000D01*
X173481000Y-97560000D02*
X173481000Y-98421000D01*
X173521000Y-94656000D02*
X173521000Y-95480000D01*
X173521000Y-97560000D02*
X173521000Y-98384000D01*
X173561000Y-94694000D02*
X173561000Y-95480000D01*
X173561000Y-97560000D02*
X173561000Y-98346000D01*
X173601000Y-94735000D02*
X173601000Y-95480000D01*
X173601000Y-97560000D02*
X173601000Y-98305000D01*
X173641000Y-94777000D02*
X173641000Y-95480000D01*
X173641000Y-97560000D02*
X173641000Y-98263000D01*
X173681000Y-94821000D02*
X173681000Y-95480000D01*
X173681000Y-97560000D02*
X173681000Y-98219000D01*
X173721000Y-94867000D02*
X173721000Y-95480000D01*
X173721000Y-97560000D02*
X173721000Y-98173000D01*
X173761000Y-94915000D02*
X173761000Y-98125000D01*
X173801000Y-94966000D02*
X173801000Y-98074000D01*
X173841000Y-95020000D02*
X173841000Y-98020000D01*
X173881000Y-95077000D02*
X173881000Y-97963000D01*
X173921000Y-95137000D02*
X173921000Y-97903000D01*
X173961000Y-95201000D02*
X173961000Y-97839000D01*
X174001000Y-95269000D02*
X174001000Y-97771000D01*
X174041000Y-95342000D02*
X174041000Y-97698000D01*
X174081000Y-95422000D02*
X174081000Y-97618000D01*
X174121000Y-95509000D02*
X174121000Y-97531000D01*
X174161000Y-95605000D02*
X174161000Y-97435000D01*
X174201000Y-95715000D02*
X174201000Y-97325000D01*
X174241000Y-95843000D02*
X174241000Y-97197000D01*
X174281000Y-96002000D02*
X174281000Y-97038000D01*
X174321000Y-96236000D02*
X174321000Y-96804000D01*
X174340000Y-96520000D02*
G75*
G03*
X174340000Y-96520000I-2620000J0D01*
G01*
%TD*%
M02*
