%TF.GenerationSoftware,KiCad,Pcbnew,7.0.7*%
%TF.CreationDate,2023-10-30T05:19:45-05:00*%
%TF.ProjectId,Voltage Blaster,566f6c74-6167-4652-9042-6c6173746572,rev?*%
%TF.SameCoordinates,Original*%
%TF.FileFunction,Copper,L1,Top*%
%TF.FilePolarity,Positive*%
%FSLAX46Y46*%
G04 Gerber Fmt 4.6, Leading zero omitted, Abs format (unit mm)*
G04 Created by KiCad (PCBNEW 7.0.7) date 2023-10-30 05:19:45*
%MOMM*%
%LPD*%
G01*
G04 APERTURE LIST*
G04 Aperture macros list*
%AMRoundRect*
0 Rectangle with rounded corners*
0 $1 Rounding radius*
0 $2 $3 $4 $5 $6 $7 $8 $9 X,Y pos of 4 corners*
0 Add a 4 corners polygon primitive as box body*
4,1,4,$2,$3,$4,$5,$6,$7,$8,$9,$2,$3,0*
0 Add four circle primitives for the rounded corners*
1,1,$1+$1,$2,$3*
1,1,$1+$1,$4,$5*
1,1,$1+$1,$6,$7*
1,1,$1+$1,$8,$9*
0 Add four rect primitives between the rounded corners*
20,1,$1+$1,$2,$3,$4,$5,0*
20,1,$1+$1,$4,$5,$6,$7,0*
20,1,$1+$1,$6,$7,$8,$9,0*
20,1,$1+$1,$8,$9,$2,$3,0*%
G04 Aperture macros list end*
%TA.AperFunction,ComponentPad*%
%ADD10R,1.800000X1.800000*%
%TD*%
%TA.AperFunction,ComponentPad*%
%ADD11C,1.800000*%
%TD*%
%TA.AperFunction,ComponentPad*%
%ADD12C,1.600000*%
%TD*%
%TA.AperFunction,ComponentPad*%
%ADD13O,1.600000X1.600000*%
%TD*%
%TA.AperFunction,SMDPad,CuDef*%
%ADD14RoundRect,0.250000X-0.850000X-0.350000X0.850000X-0.350000X0.850000X0.350000X-0.850000X0.350000X0*%
%TD*%
%TA.AperFunction,SMDPad,CuDef*%
%ADD15RoundRect,0.250000X-1.275000X-1.125000X1.275000X-1.125000X1.275000X1.125000X-1.275000X1.125000X0*%
%TD*%
%TA.AperFunction,SMDPad,CuDef*%
%ADD16RoundRect,0.249997X-2.950003X-2.650003X2.950003X-2.650003X2.950003X2.650003X-2.950003X2.650003X0*%
%TD*%
%TA.AperFunction,ComponentPad*%
%ADD17R,1.700000X1.700000*%
%TD*%
%TA.AperFunction,ComponentPad*%
%ADD18O,1.700000X1.700000*%
%TD*%
%TA.AperFunction,ComponentPad*%
%ADD19R,1.600000X1.600000*%
%TD*%
%TA.AperFunction,ComponentPad*%
%ADD20R,2.200000X2.200000*%
%TD*%
%TA.AperFunction,ComponentPad*%
%ADD21O,2.200000X2.200000*%
%TD*%
%TA.AperFunction,ConnectorPad*%
%ADD22R,1.780000X7.366000*%
%TD*%
%TA.AperFunction,ViaPad*%
%ADD23C,0.800000*%
%TD*%
%TA.AperFunction,Conductor*%
%ADD24C,0.750000*%
%TD*%
%TA.AperFunction,Conductor*%
%ADD25C,0.500000*%
%TD*%
%TA.AperFunction,Conductor*%
%ADD26C,0.250000*%
%TD*%
%TA.AperFunction,Conductor*%
%ADD27C,1.000000*%
%TD*%
G04 APERTURE END LIST*
D10*
%TO.P,D1,1,K*%
%TO.N,GND*%
X148945600Y-97637600D03*
D11*
%TO.P,D1,2,A*%
%TO.N,Net-(D1-A)*%
X151485600Y-97637600D03*
%TD*%
D12*
%TO.P,R1,1*%
%TO.N,+5V*%
X165481000Y-107188000D03*
D13*
%TO.P,R1,2*%
%TO.N,Net-(D1-A)*%
X155321000Y-107188000D03*
%TD*%
D14*
%TO.P,U1,1,GND*%
%TO.N,GND*%
X177664000Y-95891000D03*
D15*
%TO.P,U1,2,VI*%
%TO.N,-12V*%
X182289000Y-96646000D03*
X182289000Y-99696000D03*
D16*
X183964000Y-98171000D03*
D15*
X185639000Y-96646000D03*
X185639000Y-99696000D03*
D14*
%TO.P,U1,3,VO*%
%TO.N,/VO*%
X177664000Y-100451000D03*
%TD*%
D12*
%TO.P,R4,1*%
%TO.N,-12V*%
X128524000Y-107188000D03*
D13*
%TO.P,R4,2*%
%TO.N,Net-(D4-K)*%
X118364000Y-107188000D03*
%TD*%
D12*
%TO.P,R3,1*%
%TO.N,-5V*%
X140843000Y-107188000D03*
D13*
%TO.P,R3,2*%
%TO.N,Net-(D3-K)*%
X130683000Y-107188000D03*
%TD*%
D10*
%TO.P,D2,1,K*%
%TO.N,GND*%
X142092600Y-97637600D03*
D11*
%TO.P,D2,2,A*%
%TO.N,Net-(D2-A)*%
X144632600Y-97637600D03*
%TD*%
D10*
%TO.P,D4,1,K*%
%TO.N,Net-(D4-K)*%
X128371600Y-97637600D03*
D11*
%TO.P,D4,2,A*%
%TO.N,GND*%
X130911600Y-97637600D03*
%TD*%
D12*
%TO.P,R2,1*%
%TO.N,+12V*%
X153162000Y-107188000D03*
D13*
%TO.P,R2,2*%
%TO.N,Net-(D2-A)*%
X143002000Y-107188000D03*
%TD*%
D17*
%TO.P,JP1,1,A*%
%TO.N,/VO*%
X160135000Y-95230000D03*
D18*
%TO.P,JP1,2,B*%
%TO.N,-5V*%
X162675000Y-95230000D03*
%TD*%
D19*
%TO.P,C2,1*%
%TO.N,GND*%
X170688000Y-105918000D03*
D12*
%TO.P,C2,2*%
%TO.N,/VO*%
X172688000Y-105918000D03*
%TD*%
D20*
%TO.P,D6,1,K*%
%TO.N,GND*%
X177673000Y-107061000D03*
D21*
%TO.P,D6,2,A*%
%TO.N,/VO*%
X185293000Y-107061000D03*
%TD*%
D10*
%TO.P,D3,1,K*%
%TO.N,Net-(D3-K)*%
X135234600Y-97637600D03*
D11*
%TO.P,D3,2,A*%
%TO.N,GND*%
X137774600Y-97637600D03*
%TD*%
D20*
%TO.P,D5,1,K*%
%TO.N,/VO*%
X189230000Y-107061000D03*
D21*
%TO.P,D5,2,A*%
%TO.N,-12V*%
X196850000Y-107061000D03*
%TD*%
D19*
%TO.P,C1,1*%
%TO.N,GND*%
X170720000Y-96520000D03*
D12*
%TO.P,C1,2*%
%TO.N,-12V*%
X172720000Y-96520000D03*
%TD*%
D22*
%TO.P,J1,A01,IO*%
%TO.N,unconnected-(J1-IO-PadA01)*%
X195707000Y-117094000D03*
%TO.P,J1,A02,DB7*%
%TO.N,unconnected-(J1-DB7-PadA02)*%
X193167000Y-117094000D03*
%TO.P,J1,A03,DB6*%
%TO.N,unconnected-(J1-DB6-PadA03)*%
X190627000Y-117094000D03*
%TO.P,J1,A04,DB5*%
%TO.N,unconnected-(J1-DB5-PadA04)*%
X188087000Y-117094000D03*
%TO.P,J1,A05,DB4*%
%TO.N,unconnected-(J1-DB4-PadA05)*%
X185547000Y-117094000D03*
%TO.P,J1,A06,DB3*%
%TO.N,unconnected-(J1-DB3-PadA06)*%
X183007000Y-117094000D03*
%TO.P,J1,A07,DB2*%
%TO.N,unconnected-(J1-DB2-PadA07)*%
X180467000Y-117094000D03*
%TO.P,J1,A08,DB1*%
%TO.N,unconnected-(J1-DB1-PadA08)*%
X177927000Y-117094000D03*
%TO.P,J1,A09,DB0*%
%TO.N,unconnected-(J1-DB0-PadA09)*%
X175387000Y-117094000D03*
%TO.P,J1,A10,IO_READY*%
%TO.N,unconnected-(J1-IO_READY-PadA10)*%
X172847000Y-117094000D03*
%TO.P,J1,A11,AEN*%
%TO.N,unconnected-(J1-AEN-PadA11)*%
X170307000Y-117094000D03*
%TO.P,J1,A12,BA19*%
%TO.N,unconnected-(J1-BA19-PadA12)*%
X167767000Y-117094000D03*
%TO.P,J1,A13,BA18*%
%TO.N,unconnected-(J1-BA18-PadA13)*%
X165227000Y-117094000D03*
%TO.P,J1,A14,BA17*%
%TO.N,unconnected-(J1-BA17-PadA14)*%
X162687000Y-117094000D03*
%TO.P,J1,A15,BA16*%
%TO.N,unconnected-(J1-BA16-PadA15)*%
X160147000Y-117094000D03*
%TO.P,J1,A16,BA15*%
%TO.N,unconnected-(J1-BA15-PadA16)*%
X157607000Y-117094000D03*
%TO.P,J1,A17,BA14*%
%TO.N,unconnected-(J1-BA14-PadA17)*%
X155067000Y-117094000D03*
%TO.P,J1,A18,BA13*%
%TO.N,unconnected-(J1-BA13-PadA18)*%
X152527000Y-117094000D03*
%TO.P,J1,A19,BA12*%
%TO.N,unconnected-(J1-BA12-PadA19)*%
X149987000Y-117094000D03*
%TO.P,J1,A20,BA11*%
%TO.N,unconnected-(J1-BA11-PadA20)*%
X147447000Y-117094000D03*
%TO.P,J1,A21,BA10*%
%TO.N,unconnected-(J1-BA10-PadA21)*%
X144907000Y-117094000D03*
%TO.P,J1,A22,BA09*%
%TO.N,unconnected-(J1-BA09-PadA22)*%
X142367000Y-117094000D03*
%TO.P,J1,A23,BA08*%
%TO.N,unconnected-(J1-BA08-PadA23)*%
X139827000Y-117094000D03*
%TO.P,J1,A24,BA07*%
%TO.N,unconnected-(J1-BA07-PadA24)*%
X137287000Y-117094000D03*
%TO.P,J1,A25,BA06*%
%TO.N,unconnected-(J1-BA06-PadA25)*%
X134747000Y-117094000D03*
%TO.P,J1,A26,BA05*%
%TO.N,unconnected-(J1-BA05-PadA26)*%
X132207000Y-117094000D03*
%TO.P,J1,A27,BA04*%
%TO.N,unconnected-(J1-BA04-PadA27)*%
X129667000Y-117094000D03*
%TO.P,J1,A28,BA03*%
%TO.N,unconnected-(J1-BA03-PadA28)*%
X127127000Y-117094000D03*
%TO.P,J1,A29,BA02*%
%TO.N,unconnected-(J1-BA02-PadA29)*%
X124587000Y-117094000D03*
%TO.P,J1,A30,BA01*%
%TO.N,unconnected-(J1-BA01-PadA30)*%
X122047000Y-117094000D03*
%TO.P,J1,A31,BA00*%
%TO.N,unconnected-(J1-BA00-PadA31)*%
X119507000Y-117094000D03*
%TD*%
D23*
%TO.N,-12V*%
X187960000Y-93980000D03*
X198120000Y-101600000D03*
X193040000Y-93980000D03*
X190500000Y-93980000D03*
X195580000Y-101600000D03*
X198120000Y-99060000D03*
X198120000Y-93980000D03*
X195580000Y-93980000D03*
X198120000Y-96520000D03*
X180577400Y-111963200D03*
X187960000Y-101600000D03*
X194056000Y-97790000D03*
X182366900Y-107747000D03*
X193040000Y-101600000D03*
X190500000Y-101600000D03*
X130973100Y-109637100D03*
%TD*%
D24*
%TO.N,GND*%
X172262800Y-94386400D02*
X176159400Y-94386400D01*
X176159400Y-94386400D02*
X177157300Y-95384300D01*
X170720000Y-96520000D02*
X170720000Y-95929200D01*
D25*
X137774600Y-97637600D02*
X142092600Y-97637600D01*
D24*
X170720000Y-95929200D02*
X172262800Y-94386400D01*
D26*
X177157300Y-95384300D02*
X177664000Y-95891000D01*
D25*
%TO.N,-12V*%
X180577400Y-109637100D02*
X180577400Y-111963200D01*
D26*
X183814000Y-98171000D02*
X182289000Y-99696000D01*
X185639000Y-96646000D02*
X184114000Y-98171000D01*
X183964000Y-98171000D02*
X183814000Y-98171000D01*
X182289000Y-96646000D02*
X183814000Y-98171000D01*
X187073200Y-101130200D02*
X185639000Y-99696000D01*
D25*
X182366900Y-107847600D02*
X180577400Y-109637100D01*
D26*
X130973100Y-109637100D02*
X180577400Y-109637100D01*
X186719400Y-97726400D02*
X185639000Y-96646000D01*
X182366900Y-107747000D02*
X182366900Y-107847600D01*
X184114000Y-98171000D02*
X183964000Y-98171000D01*
%TO.N,-5V*%
X162675000Y-93395000D02*
X162675000Y-95230000D01*
X151837300Y-101927700D02*
X157570000Y-96195000D01*
X157570000Y-96195000D02*
X157570000Y-93080000D01*
X157990000Y-92660000D02*
X161940000Y-92660000D01*
X140843000Y-107188000D02*
X146103300Y-101927700D01*
X161940000Y-92660000D02*
X162675000Y-93395000D01*
X146103300Y-101927700D02*
X151837300Y-101927700D01*
X157570000Y-93080000D02*
X157990000Y-92660000D01*
D24*
%TO.N,/VO*%
X160990000Y-98350000D02*
X160060000Y-97420000D01*
D25*
X160140000Y-95235000D02*
X160135000Y-95230000D01*
D27*
X184274000Y-107061000D02*
X177664000Y-100451000D01*
D24*
X160135000Y-97345000D02*
X160135000Y-95230000D01*
X175853300Y-102261700D02*
X177664000Y-100451000D01*
D25*
X185293000Y-107061000D02*
X184274000Y-107061000D01*
D24*
X172688000Y-105918000D02*
X172688000Y-102261700D01*
X167031600Y-98350000D02*
X160990000Y-98350000D01*
X170943300Y-102261700D02*
X172688000Y-102261700D01*
X172688000Y-102261700D02*
X175853300Y-102261700D01*
X160060000Y-97420000D02*
X160135000Y-97345000D01*
D27*
X189230000Y-107061000D02*
X185293000Y-107061000D01*
D24*
X167031600Y-98350000D02*
X170943300Y-102261700D01*
%TD*%
%TA.AperFunction,Conductor*%
%TO.N,-12V*%
G36*
X199333039Y-92729685D02*
G01*
X199378794Y-92782489D01*
X199390000Y-92834000D01*
X199390000Y-102619000D01*
X199370315Y-102686039D01*
X199317511Y-102731794D01*
X199266000Y-102743000D01*
X186814000Y-102743000D01*
X186746961Y-102723315D01*
X186701206Y-102670511D01*
X186690000Y-102619000D01*
X186690000Y-92834000D01*
X186709685Y-92766961D01*
X186762489Y-92721206D01*
X186814000Y-92710000D01*
X199266000Y-92710000D01*
X199333039Y-92729685D01*
G37*
%TD.AperFunction*%
%TD*%
M02*
