M48
; DRILL file {KiCad 7.0.7} date Thu Nov  2 23:14:14 2023
; FORMAT={-:-/ absolute / inch / decimal}
; #@! TF.CreationDate,2023-11-02T23:14:14-05:00
; #@! TF.GenerationSoftware,Kicad,Pcbnew,7.0.7
; #@! TF.FileFunction,Plated,1,2,PTH
FMAT,2
INCH
; #@! TA.AperFunction,Plated,PTH,ViaDrill
T1C0.0157
; #@! TA.AperFunction,Plated,PTH,ComponentDrill
T2C0.0315
; #@! TA.AperFunction,Plated,PTH,ComponentDrill
T3C0.0354
; #@! TA.AperFunction,Plated,PTH,ComponentDrill
T4C0.0394
; #@! TA.AperFunction,Plated,PTH,ComponentDrill
T5C0.0433
%
G90
G05
T1
X5.1564Y-4.3164
X7.1093Y-4.408
X7.1798Y-4.242
X7.4Y-3.7
X7.4Y-4.0
X7.5Y-3.7
X7.5Y-4.0
X7.6Y-3.7
X7.6Y-4.0
X7.64Y-3.85
X7.7Y-3.7
X7.7Y-4.0
X7.8Y-3.7
X7.8Y-3.8
X7.8Y-3.9
X7.8Y-4.0
T2
X4.66Y-4.22
X5.06Y-4.22
X5.145Y-4.22
X5.545Y-4.22
X5.63Y-4.22
X6.03Y-4.22
X6.115Y-4.22
X6.515Y-4.22
X6.72Y-4.17
X6.7213Y-3.8
X6.7987Y-4.17
X6.8Y-3.8
T3
X5.054Y-3.844
X5.154Y-3.844
X5.3242Y-3.844
X5.4242Y-3.844
X5.5942Y-3.844
X5.6942Y-3.844
X5.864Y-3.844
X5.964Y-3.844
T4
X6.3045Y-3.7492
X6.4045Y-3.7492
T5
X6.995Y-4.215
X7.295Y-4.215
X7.45Y-4.215
X7.75Y-4.215
T0
M30
